<mxfile host="65bd71144e">
    <diagram id="9t49yZxqg_L90o-UHEJC" name="Page-1">
        <mxGraphModel dx="4074" dy="3036" grid="1" gridSize="10" guides="1" tooltips="1" connect="1" arrows="1" fold="1" page="1" pageScale="1" pageWidth="850" pageHeight="1100" math="0" shadow="0">
            <root>
                <mxCell id="0"/>
                <mxCell id="1" parent="0"/>
                <mxCell id="16" value="" style="shape=image;verticalLabelPosition=bottom;labelBackgroundColor=default;verticalAlign=top;aspect=fixed;imageAspect=0;image=data:image/png,iVBORw0KGgoAAAANSUhEUgAAAjkAAAHZCAYAAABkRypyAAAAAXNSR0IArs4c6QAAAARnQU1BAACxjwv8YQUAAAAJcEhZcwAAEnQAABJ0Ad5mH3gAAP+lSURBVHhe7J0FYFRX1sf/cXdXILgGd/dCKRRaqHu3W/eV7vbbtrt195aWtri7u4VAEgIhRiDu7q5855zMFCktJA1JZrg/+jozz2by3n33/u+5555jcIFAVRZQkw+FQqFQKBQKfeFykWNoolmtUCgUCoVCocM01F4hcix9AWMbzVaFQqFQKBQKHaSuFKhIgaHmo0KhUCgUCoVeoUSOQqFQKBQKvUSJHIVCoVAoFHqJEjkKhUKhUCj0EiVyFAqFQqFQ6CVK5CgUCoVCodBLlMhRKBQKhUKhlyiRo1AoFAqFQi9RIkehUCgUCoVeokSOQqFQKBQKvURv0jo0NDQgIzMLu/ceQk1trWatgnF0sMO40SPh6uoMQ0Ola7msZGfnYufu/ahWZeUyrK0sMXH8aLi7ucHISJWV1qKwqBiHA44jMzNbs0bBWFqYY/iwwejs1xHGRkaatQrFdaBJ66AXIof/hKCQUzgVFoGBgwbCyFA9DJdSXVONiPAIDB7YD4MG+N/0QofLCi9DhgyGsbFKSnsptXV1iIyIQI9unTFy+FC6PupZutHk5xdgxZpN6N6jBxzs7TRrFQyXx4SERJibGmHOrBmqPCquH30SOZVVVTh4+Bhs7Z1gbW2tWau4lOrqapSVFGLE0EGwtLTQrL35qK2txf5DATCzsIaDg4NmreJS6ugaFeTnYtiQAbCzVQl7bzS/LF2Jzl26w8bWVrNGcTkXcCYsDDOmTYSLs5NmnX5TWlZO4jdfOvCKi5iYmFAZcIaZmalmzR+gTyKnrKwMgUEn4eDkShfhOv74JsKXqLamGgb0vkFT6AwNDGBiZi7vdYE66hGVFBVg6CB/EoJWmrU3HyyIA44FiSA2M//j+8fDWrU1NXSvASNjYxgaGWu2NA8uRzVUjugNTExNYWBgSAuXqvYF/92FJHIG+vcmIWivWau4Ubz7yTeYMX1amzRoDfX1UiZNTIxhYEhlXGPlLSrMp/dG0qiUlZbA3tGJOkn06uBI+7W+JTgu9hxGDhsETw93zRr9JSw8Ujrtfn6dlHvBFVRWVqKEyuHts26Bk5OjZu3voE8ip5REzvEbKHIqKyqwedtO5ObmoLSkGJZW1rCzscH9996FBtrOw2PcCNZThcFNVj01Elw4jTRjyHV1jX4fPDTCl7u+vk4aN96ffy8LkCNHDmPI4MHUm7O7IQ2fEjmN/CpyHEjkXEOkno05j+3bt4tfgAEJHFu6blOnTIaLq6vcO76mJnTfudLn9+wzUEf31oj25XuYmBAPY2okfHx85XNRYQGWLFtB+9bDyspKrCRTp0yCnT1blC6IuOBGpb6+gfaplfLDZYYbooYLXNJEH8k+DH8n/w5T/szliT7zd/OxcfHxsLWxgru7p2zjc/H5eeH3f1TGGhrqUZhHIqd/HyVyWoF3P/mWRM7UNhE5gccDcfBQAJydnaT8+nXyxaiRo3Dy5ElU19SinOq+wOPBePSRB7Fm7QY88+RjUke1NjeLyOHn+ZPPv8WUadM1axRXUkj1qEFDHcaPHalZ8ztoRI7RGwTqyujqVlLtSYXX0Eyzh+5QQ73ttPQMWFhaSQXe0vA5O3bwQbfOnXD27DlpmIYNG4oz4REIDj6JxMRE+Hh7ISbmHC0xCAsLQ1paOlxdXZBHjcX+/QcRGxdHjZq1WIACjgUiKSkJAQHHpcFKSk7EqjUbZbs3nYcFU0vDjVt1VSW8PN1hatryQlBXYGGQkpoOMwtLEhB/fJ0zMzNx7lwsFsyfiy6d/eh+RyIrJxedOvqSKD2K8Mgo5GZnw8XZEUeOBiCb3geHnKSebylsrK2xbMVq5NL+3bp2EctNeUU5Dh48grFjRmLQwAE4HRaOYhKerIxPnw7D0YBAdKHeWwC9hoSeQlxcPDU+jkhPT0MInTfm3DlERERSGfFEdXUNjh7l3xBJPZtiWJPw3n/goJi4T1P5CwoORWpqKpVdICUlFW7u7khISEBsbCw8PDz+8DmRfg81bh7urrAggae4sQQcP4muXTprPrUu56hMcf05h3rG5mamOEH1WZ8+vVBaXEyy25A6bBeQmZGO/v39EXs+FoMH9YdpG1iwCwryqY71hI2Nfrsj8DBVRnYutR1umjUtA3dqbkTnuS1gv6zMjAz06tlNs+Z3aKgBaovVFPLrga0yNja2sLOzF1FiS+/raqpx4OAh9OzRlRrNVASdCCKxkoqIyGiqCAYi+uxZamRSkJ2VCRcXJ+5M49ChI9Q4VYkw4l68g6MdDlNj6WBrKwWwM4ko7vkr2g9sdUtKTEJ4eDiJnizqSbpSZX9eBMiwwQPkPsfGxSKcxEcCiV1PTw/sP3gYVpZmdC9N0ZEEkZn55T5QVSQ22eTKFkgeMsvIyMQx6i0PHTxQRAifa9iQQaiqrBQxlZKSgu0796BPr55Iz8jG4UOHcSbsDImqHAzy70tl6BgJmHgRTWdJaA8c0I8aKAN06+IHBwdHnKJ9y8tLRTzxLJ5riTvFzcX52HgsXrYae/YdRAcfb1haWuI8le/wqPOaPRStBXdGxTLbghyi+uKrr7/Fwh9+xLZt25CT03oz+NgHMicrQ/z8WgqSa02yeiqR00yKikuokcnDscATYublYRAuoH6dOsDbxxfOTk7UsFTItPbgkFCci4mlxipNhrO4EvGifQZQA8UOwYaaXrW1tY2MgyvaDzy7Iyktk8RMLLqSCB09ajQys7KRRQJj3/6DInpr63joqh6DSFzw0BT3ftlSYmZmJvf6yqnYx4NCSSAfQb++vTFl8hR5YDv6+qBHz57IzsmDq4uznIe/LzevAHX19XB3c4FfZz95LaJeNlsIE0h8scCxt7NDeUUlfW89Ro0cRuWvg5Qpa+r1unt4yLBcclISEmjp1rWr3vToFH8eLgsdfL0x7/ZbMWP6FCQmN3bMuEy2xfCZomXhRz01LQ2lpSXUIe+OJGqDPv70S1RWlKOgoADR0dFigebP8fFxKC0pleHuJOqwlRQXIiU5CRnp6YiPi0NxcZGMQOTl5sq52Rf2XEwMbYsVX5liqpfiYs+LBZyPZ3/Gs9FRWLt+k3TU2golcpoIP/b0+IuvAi+d/PxE1Pj79xOnZK1IqaBGp7yicdaXuZkFPL08SQhVIzc3T/bjCoT35VduKHn8Oz4hiZRvjRyvaB9YW1lhwR1zMP/O25FJwoaHK93c3GBrZ4tevXvD19cXXp4eInBZ1PDrBV407UNaWgZqqi/eU77fd8y9Dc898yRunTlThiYbSBTxsBA7Int6ukuldDrsDE6fiYSbqwuJaGNkkfgJJEGdnJIKV1dXWRwdHUkY9UDHjh2oofKhkxvI0BljYmxCvfEE6kHVoXevHti1Zz+sLK3g59dRtisUDJdHHq7Kyy9CGXXK2B+spqZOs1WhF1BdxLOOe1Fd0b1bNxEkLER27NyFqOizWLFiFRJJvGzfsRsHDh9BOoma1Ws3oKK8HKvWrMde6swtX7kai35eSsfswXff/yD+hTvp+NBTpxFw7AR279krYUq++Op7+nyc9l+D8PAzYqUuKCxCPgmqlqKpfTQlcpoADyVxQWGnUQdHZ8ybO1tmHBgZGsCOetOdqEfE48bcO+rRoxu8vDxw7113UqPoDP++fTF40ACx+PTp1R1WFhZU8GypAeoJJ2dnzL5thgxlsfOoon3g7OiAvr17woDEKFtWJo4fi/Pnz6Fnz54YQvcyncQI+whY29higH8fem8jTt2DBvjTk2iIcWNGwcLSQvyAGDNTU/FpsGPn8kssduxMyRZAQypHPbr3wMgRI8Sfhv3AJkwYJ0KIhRRXTn1798CoUSPRv39/KTtsKWSrob29Pf2m/jI0xsOrHNDPnN5zmerYoYNYhKZMngh2TFYotLAPoIe7G9JSU1BMvfjp06bAl8oLz+zp27srfKhzxmWd/QX79e0lQ7AK3SMxKRnf//AzTpwIwtzZt8LewUFGIFjIsGW4tLQMw4YORsjJU9LZ9vXxbNyH2ryhQwajD9U7bK2+deZ0lFEHnoUQD2mei01EYnKaiBmun3ioYuYtU6id7C5D+t26dRXLdPfu1/CfaQLaDuT1omZX3SRwQ6tmVzVtdlV74dChgzh9OhzPP/c0mjqNPT8vDxs2bpZh0aee+qsIoGvBs6sK8nIxSM2uahXacnZVU+AedFv9xJtldhX7zO09cATduvfUrPlz8D1bvGS5iJlHH34AJmY8schA4g5t3b4Tf3n0QSxdsRrDhw7BsOHD8MZbb8vw9+RJE6ij3h0Lf/gJM2fegpjoKKSkZ+Gu+fPw/oef4r6778S+/YcweeJYEso+1HkyQHjkWaxZtxGff/IBtm7bgRISTyNHDsfuPfuwYMGd4h/YErB/T2JCHO6cO0uz5nfQzK5SlhyFop3DfjQTJ467zPpzvZiamWLQwP544IF7r0vgaGmiRVhxE9DONZjiKvA9c3R0gJurM4zEobnxyXZwchILy5Gjx+Dr442c3Fyx1Azo7y/Dlz4+PjIiwTOEzUkY2dnZwtTUQobOeUjdic45YIA/Tp46g81btyMy+hysLC3pXF7i0sEBZx2pg2RrYyOzeeNi4+R7W4LG4arrr6GUJecmQVlyGtFFS05royw5rYuuWHLaEmXJaT7sdMx+fyxUtOKA4/GwpYWxtLKUmZy59Mzv3rOfhIoPbrllukye4PAUlpZWJHzYlaJBfHuKiotgZ2srvqWFBQXiW8rD5TxBgmdxOjk5o7ysnLZzPDAbOQd3sGxbKL6SsuQoFIo/if7E1FAobnYaw5+wwLj4TLOAcXB0lIU7e3YODjgdFgVnZxdMmjRBwkxwHaANm8JixZbOwbM2HR2dYGRsIgYFVzd3OLu4iO+Oubk5CRwXOrsBrEgM2djQ/iRu7O0dWkzgNAe9seQcOBQAcwtrudiK38KWnLraKowbNfymt+TsP3iUHlIzmMr4tOJKeIZYVXkZRo0cIiZnxY3lnY++wvBhQ5Ul5w9ITIzHjKmT4OnRskHy2hs3wpJzvXC/RheKYH1dLRLi43Hn3Fs1a34HfUvrwEMQPPbIqlPxW9iUWFpaimGDB970IufosRMSkZinfCt+C4ucwsIiDBror0ROK/D2h19QAz5B+bz8AXEJiRgzYhg8lMi56WnqcJXeiJyYc3Ho26enTNNV/BYOWBdzPg5+HXxuepETGRWD3j27q5QFvwOLnOiz5+Ht5aF8cloB9sn5x4t/1XxSXI3I6BhxdlU+OQq99clhLcbL78GmNg73rPUl4NeWWrTnq6mpRWVllYSqzsrKlrD6HPSPf9aVx7S7hf+Im6SryOWEHe208PtLyw5fC7okv71G11i0cMC0iooKec8WD073UFhUJOuvdpyuLfS/xtdLYOGjpfH6Xvys+PPw9WZnUI57dOm9KC4uQVl5udQ1fM35laNwFxQUyX3gKLNc/vLyC2RImkv3pcfr03IpfC20z7Q+lUf+K3l2U1VFmVp+Z6muqmjS/daZBJ379h1EalqG5AK6Ei4U+fSQc3TY2rpanItNgIO9vYTT54qD4YeEHwZeeN2l02m5ctA+SNqHh1/5M2+Lij4HE1MTxMUn0LnjJYLtsuWrpIGLT0xCCv2uzhLMrf1qRv578goK6brY6X2CzsAToTh1+ozkFWM2bd0tjnZOTg5yPznqNE+f5KFN7f3W3nsWKtr7qN3GC5OQlIzysgqUl5fhaMBxdKR7/sOiZYiPi6dGphDBIacac5LpuPXjAonCvLw8mf7J1q6SklIsW7EG/v360rUxkOfh0NFj6NOrh+YIxZ+BE3SOGTEERUUl+PyLbzF+3GgqexwR3RCJSSlSvy1dtoqufx/8uGgJOvl1xA8/LcOggf2wcfN2SRSck5OHuMQUyZhvT8+4vpFDzyyXRW2CzkU/L5M6np+1nNx87Ni5F926+slzrstUUdvCORA7+nrBwtxULVdZTKkt5gCGPbs31u+/iyZBp86InF9+WYqS8goMHzpYs+Yil4ocrnw30IPPeX/OxyVi2849VCnHoAtVDKnpmdi2Yx/CzkQgPikN3emh4GSKIaFnEBF1Hpx8MTrmnDRWgSdCkJqRK/P9v/txMWysraiBrJcQ1RYWZpKyYf4ds+Hu7oaVq9fDzMxUslO3V0Tk0DW6GUTO3gOHcSosHFMnj5fPn3+zmO6tiwjRS0UOv1++agMJ1RSJ77Bs+WrJwlxHQoenW+7acwAhp8Jw/MRJafA3bd0p53Wwt0VCQpLkntqz94CkaeDMzSyFOGZEn969qLG5PCmnLnHhQgNy8/J/FTlc5t//4DMJBMYdh4Djodi1/zBmz5yqOULxZ9CKnIrKShItu1BGIvr4iWB4eXmKyKmrrUH02XMYPmwwAkhc9+vbBzv37Mek8aNxJjIG48aOFv8prgd37D4gka91vbG/kitFzhtvfyy53jp18EZyaiZ+XrYOt0wdLw2gLsPD6eVlZRLbytnJUS1XWbgNy8rOlSjxf0hLZCHnhrO1Fs6qfD2Wkt49e6AHKTxzeiA+/PQrKviTRJzwOGdGRjYSU9Jw64xp2Llrt1yoouIyTJ86AabGBgiiBo4THQaFRmDGtMnYu38f7Gws0cHT7VergBZ+mDhmAI8RT5k0HsdIFClaH47VcGVZ4TQbl6Uv4HJj8NuyU1FZRb3gSAzs1xs7d+9DTd0FzJ41E+998i3yC4pxJDAU/an3zFm9Dx4NoF6jHaZPmQh3N1fNGdhCCBHCbMHhhKscECszI1OzVUfRWDUvxeDSZ4+28bN45XVv00VjbdN1iqkjx2H0XZydpaPFIfbTs/M0W3+LAZV1FtQsSHv36o7y8koZ3tJ3Gp/vxjIqRZXLI4nzq5aNZixa621borUiX/l7tOuZS4fltet50a6/dF+mcdvFoR5tHkXtPpyaIS09U9wwPvz4C/F3/fiTL/Hc83/DR59+jdDT4SLEdIlmOR5zjyMy6ixSSEHTZWtceYPZvmMvXFydMGP6ZLohVKapYPN9NKQSXsWZvKmQjx01HHn5+dhFveuRw4fihb/9F/cumEU90VJ09PWEu6sz9cATcM/d8/H2+5+RkJmE8MhoCXaUmpYODw8PuDrbk/Apxexbp+GhR/+KTz96l3r4a7BgwTzExiVKD9fH2wNnY87jofvvlt+2cs0GlJWV4/FH7pfP7ZHa2jqc1TPHYy6D8dTTra25PI3/cWocikpK8MA98+Xzwp9XYfgQf/Tr05MEb604YY8bPRzV1TVYunItHnv4frz2n3epfDhJLp/Is7G4f8EcHDx4BPfeO1/8H45QD5p9IYYNGQRrS3Ps2XsQ9993F959/xM89ddH4enpIVnnv1n4E+beNhOdO3eS79ZF6qkS5GvI+WwsqAFl0/A33y3CP159QSwEJ0JOIyT0NO6+c85lFWhbwsPJPbt1Qdcufr8RaO0ddjz+50tPkrAuxL///Sa++vJjRETFICjklDTjLq4uOB0aiheffwqfff4tHnzwXrz/8Zd4/3//xpqN2zBlwjh06uhD96kEX3z9I15+/q+wsrJsPLmeEHX2HKJjYql+dpLP73/yFWZOn4o+vbohPSMLqzdsxV3zZrXI7FouP2wx4uHY1p6yzo7H4dTxGjd2FJKpQ87tEnfSWdQNHewvf2tmVrYoO/++vagdikOXzh3FunH4yDFJBJ1HbRQ/liRdZPiSywXPqq2uqUFk5FmwyYDz8nXq2EFmmvLwJg+TDabOHFuv2SXj0YfuxTPPvoiF33+J7xYuxiMP3YMaakM2bd0l53zkgbva7Dljn9gjAScwacIYzZrf4c84Hm/YvANf0x8en5iANLoJrbFU0k1ISEzF5m0HsGX7fmzern3dTw3OIUkbz7DYYRVqYW5GvRtzET6jRwySxIZ8U7TWIH4YcvLyEBEdj2lTxkvFrvXf4YzgFzFAdW29XNhL4SENFjYngkOxfecBTJ08QbNF0Rrs3ncE/3v/UwTR9b+yrHDvIzsnH1t2HJDykV+Qj5OnI+T9jt2HkZuTqzkLaXpN0Ku+1Au2tLLG1Enj6WHvIzM52FpneIkFiHvMqanpl/WEuJHnyiMjMxtr1m+mcnFBErPqOpyVes+BQLlm+w4G0vNXj2107fjzqbBoVNIzduV1b8vl6LEgvPraG9TTPKP5C3STvJIKJFMZS05OgaPDtXxr2M+QZ07WynAOD6e6ubnKsI6+wZ3ZvfTMc/nbsvOgdCiCQs7I5yOBIZLYOC0946plo6lLEl37dZt2iJAso7qkLeB6hXNBcdoEVxcnhIZFUOcrDscCT0i04fiEZERFn5cJD4eOBqGYOnXLVq5DBokgFgD2djbYSO00+2qlpmZgz/4jOHz0uPhl8vkOHDoqPq7vffytWAMjI6NkSNTYxBi2dH4TetViSKLIlkSfDyecnn87du/aIx1EXaHJlhwWAn997h+4Z/5sjCe12Vpq7vX/+y9c3N3x3FOPa9ZchBu1c+fjSMj0kgbo+0XLMWRQP+m1L1mxAV6e7njx2cdlRlQONXBjRo/AijUbZex6z/6jSE5KwsgRQyWZIWcP5xlUE8aNpl7R93j6r4/h4OEAUc+DBg5AQWEB9fhd8N2Py0kBW9G+1Xj84XvR2a+jXIu2UrfXQt8sObfMvR+3TB6LZ5987DfXfPGy1dLr454u8+RLb2LurInU4x0jptYo6iX3IlFTR9fkAN1bHtJkP5SPPl+I/Pw8jBo+CJMnjqcKJUjKCpevM+FRkmn8vU++w/jRQ2BibISJE8Zi0S/LkUFlo6q6Ab27dsADD9wtArq9loPrgZ/x6Jjz8PZsnELOZf+xJ57DpnXLpfLbsGUPdu7djx++fF9zRNvD1diLr/5beqfPPvXYr50ZXUBryeEGa9GipdTTJvFCxeeh+xbgeFAonBxsxTdnzm0zsH3HHowePRJrN2zBY1TvrNuwnTqbieKP071zB9y14E4ZPtWlv/964CnkHLNJO4X89gWP4Nmnn8DEscMQFROPDz79Ft988laLWbBKSkvx6BPP49GH75Mh6tZCa8kZO2YkduzaJyL21hlTqEO/m/42K1xoqMfqtRuRW1BE5eMuDBsyAJtJ3Pbu1QPRUdHo698PubkFuG3mFLz99gd45NEH6XM+Vq9eC1sHRxwOCJVM8qYmRnjmrw/gpx9/ws8/fUed9VPUUcuEj7e3WHLmzZlJx/5VLDkLF/6C5559Qqy63Dbe+8BjWLtqcZv5fd1wSw5Po26or4O3t2e7q8hramtkdkJtVRkCjwUiOCgEPbp0hI2FCX788Rds27YTwcEnZYwxMy0NWzZvQ1VZMdycHRAfG4uiwkKcOB6EM2Fn8NnnX6OBegdffvUdIiMikZ+biz279+AkHc/n8XZ3hLW5GVyoAtq0aat87+mwcM0vUdxI2GE4MzNfYt1crQxyg8fGWi0XqNGWVZfQQOu++fZHxJ47jy++/Jbu8/cwM7oAT1cnJCYk4QcqL9HRZ/H9wp+wYsUaRFFPhx2Tvd0cJNncWer1fP3ND6iqqICjrQ08XeykkeJysG3HXs1v0FVIrNO/y7j0z6G/7VJfgPYAl4PZs25BfFIqyqiXr2vwTM0tW3bQpSWJc6EehtSYLVmygsrnOZw4EYJsEprfL/xZLA2rVq1FfU01vv/+J6qXsmFvbQlXR3s6RzG+/e5HfPjR5zrV024OfJ2oxdd84rfXP6X4euBgof37+yPsTJRmTevDw0PZuXkylMTlg3NQffDpdzJsfMvUyVIPcifEytoGq0ns3n33nXJcHbXPXP/wE6qth7SzS5994j6s+OlTvPvm39CjWxcSw0aXCWKeWFBZVX3Z9WRfJ/4tPAy2bsNWDBoyrM0ETnNosiWHldxzL7+Gf776HPw6ddSsvfFs3bZLEolNot7zlWgtOaxmU1LSYUy97NaG21oHBwcZG22P6JMlhx/uwWNuw8fv/OOq5YGjX3NW3blzGsN+r1izBf59e5Ao6varJacnvU9Ly7whZcWaelxubpzDRTfhafTsc8YWUK5Ei6h3uXzlWvz1Lw9L5RZGPc0z4dF48L5Gn6f2AvsJLV6+Du+88Q/YkvDUFdiS8/IzjyGLY+BcMSzeHPj+sZ+GPllzrrTkfPP9z5gyaZz4YGVk5YjLwt3z58gs15aAm8WPv1yIUuq4vPl/f9esvfFcasnZve8QzlInzFZyQBmIJXrDlp0y4cXWxkpCO8yfdxsOHDmOpKQUPPvkw7R/nMweHTNqGNas2yQWaR7K4kk1PBv00JFAmJlbwq+jt0yq+Gnxcrz8wlOIOnuenvMiadPZ74Z9UhcvXYHnnn4Cq9ZsgLWtnaRT4Mj50yaNb9PI00215DRZ5HAQtOdf+Xerixytv8zVFOSlw1UtVcj1jZtJ5HBZ4Q6MVsDw/lzh86IVOTwThc2vit9y5XAVVxHs/Kgdp+chYV7Yn6k9ocsih4erFL/PlSKHGzp2xuXGn8snl9mWLI9tLXJYkPzjX2+iAYawszKTv83UxERGUlhocDvHr6bm1khKy4KpQS083VzB9hv+7exLWN9QDyOq89iWw9eH37NFht/z8dyW8nU0oXNrZyeyBZcnWPCzzq+mtI1fJdApXWtjOoZ/i79/P8ybe5sc09rccJFTRY3Esy+1viXnj1Ai59rcTCLnj1Ai59qwE/5Z6tlpLTm6ghI5+suVIudG09Yih31EDx8NFCHi4+Wp2fpbeBaeiakxunb2ExHTWlhaWbX6zDMtTRU5Tb4qfPMVCoUeox5xhaJN4ckL3IHjCTBduvj97nL77Bm49Zap6N6ty1W336hFl7LBN0PkaN4oFAo9RYzemvcKhaIt0OUZmu2JJoscHgNVKPQBtkry0Nf1wn4pl8bI+TPwuDifq6a2tv1ZR6ly5X9K5tx4Gu+9utIKxY1C74aruOHgCI/ciOzZdwg/LVmNH39ZhV+WrUVBYaFmL4WCnegroY1kfD0EhYQiPTMLsfGJVK7WYOnKjQgIPCkxNa5GdXW1zEy62jOTnJIqs2nWrN2I7OxcCfrFv4cdfrmsLl+9GUfl3I3ByPgc7HfWKtDPLa+ooOfnICKjz7eYsFNcDkdP37RtN8o097ipcGwcntbL94cj13JZOXU6HD8vXSMzCjn2CfsvMPxdmZnZ8l6huJnQu+Gq5NQ07N5zQDL6fvX1d/Dr6Ise3bs0Zqg1NJJGhx/4goJCaTh44bgaHC2TKwsWR3l5BZKUsJjEEjvscjRRXs9wXpiUtHSZSq/QbbgB4KCBnKuF41AwXB74fnNIdW3jzvc+OycX0WfPSyyS87EJMi2zS+cOtD4Hy1ZuEGHNx7Jw4eMZFiw7du8TwcAWI97GKVEYdno2MzXFkcNHRXxzBFKOrsrJZEvotbOfL507G4uXr0FsXAI1XKtpWYl9B47IrIobDTegx4NO4vU338M7738q8VkULQPHPVmzYRte/udbkkW8srIxrg/fV66fOJI61zsc1fd8bDyqOG4JlS2OQs31Dwd347LJUW95SjHvt3nbTinDLMQ5UbGvjydOnj6Dj7/4XoTQ0hUsnNdL2H6F4mZC74arIiKiEUiVc15BAWqoJz10SH+MGDZQIkOy5/r/vfUBPvvyR7zy99dx+HAA7RuKBx95mhqT9fiZetAseF7+xxv44usfcN+jz+G1/7yD/73/BVVKW2X6/Bv/+xhLlq/D/LseFBGk0F1Yrx8OOI6fFq/E7LseQxSJklVrN+E9atRX0+u3PyyR7PYPP/EyPvv6R+zef5gaG546bYQe3TpjxNCBElnU0MhQGpyNW3fiw0+/wWtvfICNW3YhKTmNGppIlJaU4bsfFmPhj0tw27wHRRCdOBGMyKjoxh9yCTybolsXPwyn8jp75jRYWlhJstDuXTvR7zVAd/pensZ5Y7kg+Wze+NerePP1V5GWkY27HnhCgh9ybI72atnhwGY8RbY9/j7SKBKg73BAMBY88CQW/bIUUyaMxjefvQcX10YnziISKfdTXfTW2x8gJDQMf3/9fwg+eQqv/OttEd1vvfsR3vngM/zf/z7Etl37kJicSqLmtAhuLVx+OKHs6BGD8eRjD0jU7vyCIvh4e5IYKpfYMoq2hTs8VyujPD2cO1HaTgznrZI8VRr4mM3bdklOOU7BkJGZJWlMuFyx1Zi35+cXSgeehS8Pr2vhfdrrc3ujMXqDQF0ZdVeph2liRzWFmWbT1eEbwb0BDjbUXqaXcq+TGyPuwdjb28qU8lEjhmLT9r1wdnJAClUQnI+EgyixFeeZJx9Gt25dEZeQIkGzOnXqAFcXR9pWgN49uiEoNByvvfosnacU/n37YMrE0YhPTJKw2idPhWP2jMkwNjVHcVGhpIHQBbiA59E14mCFpqa6Pc2e/5aFP6/EtEmjr51u/wq4guFgWa4uzlJuTodF4P9eewl9e3bDtu27xeoyYsQQeHt5IjM7l3rRlaiinvZbr/+NhEwqCZBO0pvmRqtrZxYeoAonFpxn6MvvFuP+BbejX58e+P6nlZhz62RYmJpg0OABkt+KI4xyzrMSapQ4Fw9bcyIiojB8+FCcj0uQ4FxsJTSh+9PFj8MzXEBcfIIE/uIktFMmjpOGnDOe30j4b2JrgamZKbw83DF29HD4+njjWNApEoGbUUnXxMLcXO4DXy/twtPzORZRW8XP4RkpW7Zx+HsLWFpayjW/9Pe11ZJLzx0n2/z6u19wJCAQk8aPwkvPPYEhgwbI9eKEp2NGDqHrV41DR4Px8XtvIjj0DD2r9pJ0lDND8zMbEhqJF595HKOGD8bmrTuoPIxFbnY2Jk8aj/0Hj0jy2PiERHTv3g3WVpZy7sPHgkUgc7oLLtP2dnY6GWaDraOck4sTZ7YWx4NDUUNlmmc4tRRc5yz8cbHkxfNwdxMLHY8aBFMZ+HHxCuw9EABPd1f0onbl5Kkw6piXyP1i0wI/Vyx6zKneOHLsBExI0AYFn0J5aSkSEpPp/nrgnvsflUSvnJfqVHi0JOJkS97WnXvoeb0gZerSvFS6CNc7LPqvWfc31AC1xU235LR3uIK+wCHnqfDU1VRTY+EnUTF5MaWby3lguPLm3rCh4QXs2H2AlHG5VAjsE8GFzt3VAcZUYXJo7+7d/KTCtKaFk8AZGxlIZTpkkD8GDezf+KUKnYSFCg9ZceAsM3Mzur81IiaMjYxhZ2eL8WOGw5zWm1lo4gpdxYhZXlaOstIS2p+Fh4H0pO1srfHC0482fgHBFr9dew5KeHQemrjekPs8JJpDYoMrpknjx1BD5Ss98hsO/WweVvu/Nz/AI0//A8+88iZWrt+JEnpOsqlR/eGnZfjXm+/hzXc+vmz51xvv4f2PvxIR2Raw0Lxn/hwcOByIdz78/De/r62W1998H2/R68lToSR6KnHk+Gn8442P5do++PgLqKWGT4uTrTk15mZUdBqoXDZmVx9KIpmte44OVhL13czMDLXU+F6LLBLpfC969uiObl07kwga2KoiQdfh2U2XJ2v+83DQvdSMLHmWuL3Zc+Aw3nr3U6xcuwl9+/TCU4/fByfHRuMBD1kGkJgJPnkaixavJoGTgw0bNks1xJ2kq9GpQwe89PzTuGv+XBFLB48cRyl1ys7GxIov4c1Iky057J+wc/f+dmvJaaCe8p6DR9G5ky82b96KJ594BM7OTtKDYZ+H87Fx6N27p5j1snPykJyWTft6i2mQfS36Sfr68xg2dDDOUC+7U0cfEkAGkkOERQ2PeXt5emDP/kMYPWoErCx1I6CcsuQ0cqklhyuRRYtXUvlwlJws8+bOJgFSi4SkNHi4udBrslhXvvlhGZWrWgQEBmH0yKEoKCjG+bh4FBUX45MvvhV/L07kWVdThaSUVOqR11JZK6Vy1REh1Bvz9fXFkSNH6XlxQnpGJjU++XBxdpAGR2vJYf+dAf59ZdgrMTlNfuMHn3xNDVQXsaSweGotePo49wYHD+yHieNHYtzoYejfpzsCj58Q/yF+9p978jGMHzcWI4cPa1xGDMOgAX1x6OgJWo5hxrRJrT4FljsqXTp3wthRw+lZHYgRw4Ze/H1tuIylsmFDwjcy+pwkdr37jlm44/YZ9DuHYuK4kTgXl4SxVK4qyitw+Mgx3HLLFGnI9h06ij49u+P06TPo0MEbx4NP0rUfLnmFeLhz9JhRCAw5LRbFo4Eh9F2DEU7lqY6E+5nwSCq3S3Dn3Fslsayu09qWHC67iUmpCDxxAhPGjaJ6vmUSf/JQ1KEjgTLsu5A6C3sOHMXsmVNJ3DyIQf37UafKHLk5uXS/faS8WNPfe/usW5CSmoby8kqsX7cRt98+SxK2Ojs5IiMzW0YruD/VkY7Zu+8gpk+bLJYiztmXkBBP633Rt29v6Sxx26XrM6SbaslpRlqHSjz/yr/abcRjvrksWPiBYAdiDpLElR/TOOZZJI0am4bZDMx5hrjy6NalM8+cFZNgNW3z8vKQsU0eouLj+TtcSCxxJvMEKmB8gVlU6UosAxXxuJFLIx7zveayUlxcCjc3V3hQz4dnWkXS9traGvTq2QM2dK3YmZ1nprjTPlyx8DAIixWG13EkVj4XTwePiIyW8tKnVw8Y0GsqHevo4CDlh4UD96jjqEfF5+EhBV7n7OwsDqdurs5iumYnZzm3q6sk1WtNgcNwR4ZFF5d3ft73UafhaMBxWJib4b5778bwof0lxPzVYB+R5199HRtX/STXU3ER7olzj52HITr6emPWjKkkYrvhu0XL8Y+XnpRnlMsVN1ZckbPPRUTkWfQnkcKinMuqh7u7WHm40ecGi53mefiS/bzcSZiLTwYJUS4zLnQMlzN9iLfS2hGPGRYiL7/2P9RS54Xrewvq0P7ZK8kiJzg4VIaTuIN8263TG6Nz0z1lTE3NRLTcQkJluyYL+awZU7B9514RQP99610sXrxQJip0p7qEZ2X2oE5WfcMFjBs7En/7+//h00/ekyGpY8eDZbj7ngV36PwQ1aXc8LQOLAyee7n9ihyV1uHqKJHTiErrcG04T82J4BAcPRaEsIgYdOvsiwljR2HEiGEwv8bzVVBYjF6DJ+H4/vXiB6K4HC678YnJOHj4mDRQ3HBz5+uzD9/S7KG4Gm0hchie6cb+UUVFhai/xJG3uXAnimdc8mSCjPR0uNPfM2zwALiQsGG4TuLklzOmT8GW7btxKiwCUyePx+Gjx3HLlIl4/oVXsGTxD9h74Ah69egqQ1m9u3f5VeQ88sRLeOKx+6hzlY7ElAzcfts0ahd76oXQ1XLDRY7KXaWbKJHTiBI514YtOVx5BgQcx+zZs+Dl6QpLulbXU1EWFZeiq/94BB/aoETOHyBhCXLzsHnrLqRlZOHt/7RefiRdpK1EjhZuJlsCngX1xv8+wsgRQ8SS+9W3i0igQCw6D9wzT0QVDzmOo04Fu1MUFxdT+chA506dxFH5ZOhp9O/fVyx51lbWst3Wxgb1FxrEyZgd3NmP0MTYRKzTLs6Ov45k6AtNFTlN/uvZQ1uhUOgxJGbY6f6xR+5Hty4dxR9Bn3qC7QEeTvKkRuvJxx+EtY2tZq2ivcLlv6UWIyNDCdEwcfwYLPvlW9x711zs2XcAd9z1sPi78rA3w8PXPLw9cdwYdPD1FlcMTtzJHY6Ovj4yrNXZryNcXJzg7uoiQ+Y8q3jQAH/xLeXj9U3gNIcmXwG6RwqFQp+RfozqzCgULY0RCZEpk8ejUwcf+cyCZf682/DVp+/h/vsWyAwo9gVStBzNEDlK5SgU+o1Kz6lQ3Ag4dMn4MSPh4+2lWdMIDyvNnT0Tjz9yHxwdG/1zFC1Dk0VOfcPNGTVRobhp0JjVFQpF68FDS+wn+HsxcBTNo8kihwOn6QLsKMZpHDi4mxYOwtYYrVb1UxWXw5GwtfmrrheeDsphCnjhqeDacOw6Dz0e6hlpfdihMiExRfOpkYyMLAkImZSSJg73Kanp8spw3cbh+9W9Uih+H91QLE2Ap2PGnIuTCuPDT7/Frt37f60Etu7Yg81bd1MloSeNkaLFCAk9LcEfr4TL0fETIVdtSDiO0muv/xfLV6zCshVr8ONPyyTgokLRHErLyrF02UrNp0bYCZXL4Pr1myX31PoNnFajseO2Z98hLPx5uXTcbgTJyakSnFKh0GWaLHI4SFV7ZunyVfjos28QFhGNhvoaBJ8ME1HDvZ+DhwOowqiRIFur12/BosUrJOASw1PyvvzuZ3z1/S8SkC05JR2Bx4Px+dc/YPfegyKQPvniO2nYuJJZvmoD/v3m+zh9JlL1pHQUvm+cAPHrhT9Ltme29HGk4R+p4fjki+8lYNfWnQfwIZUnjktxLjYO/3n7E3z74xKxEnIDZGNlgWeefgLPPPmYBF/bvvuwZJn+aclKvPHOxxJUj7/naGAw3vnwS+yistTuMVC+d20Bl5PMnHysXLtRyiAH9eNgfxzNvbi4SOpeTuLJ+/EU9HWbd0kutPSMbIltxEEG127YSvXftxJE8Dsqp8dOnJT9OcTG2+9/hoU/LZWEngFUHjnwINeNu0gs8dTlvfsPy/HfLvxFAlJywtkPPv0KRUUqEbFCd2n6cFU7n5I2YfxYDOjfR5IhGhgYYuCAvjgbc07SMbi4uMLe3l5iCyxdsQ6DB/bH5m275aHnRq6jrxe8PFyx6OdlyMmjxm7xGgnEtGPnXhFJPDVv1Zr1WLtuEz34BZh96zQsXbVRQmsrdA9OyLpq7RaMGj4EZyLPUdk2kKBbXbt0kjg6m7buwiD/XrA0N5cIxj/+sgrTp4yVKdXrN++Q4GD5hSWIOnsOoafDZaihS0dPfEoCiYcRpk0ahw2btiM9PQtr1q7HzGkTkUqNlna4od1Cmp0bRkXrk0Uix8XFBdyVPHg4ULJNn4//rTXl6LFgDPbviW6dOyIy6qzkRTsRfFos2f379cbHXyyUBKDvf/QFCaUMrFizCVMmjYeVlY3UfSyIiktK6T43IDTkpAR53bRtj0SKd3d3xfKVa+Hn1xHTpkzU5GVT6AKc7uGTLxfi828XSSJt7mRdrb5pTI2QKuL4SoKCQ+Ucb73/Od7/9FtJD3LsRAiCqZxci/ZYb+jdcBUHAzQ3M4OxUeOfxpl30zO4kdkk0R+1dKfKoV+fnpJXiDMul5aWyivfpALqudTV1mHMiIEy1a8fVRq9e3aXEOz5+flUEeXBxNQMCQmJcHdxhLFx64bdV7QMnDjT3cVJ8lNxZmfu1XKG37iEJLHYcW6qOqoMTAwvoKq6ip5gqhiSqWKoq5UknNybLquolB7xkhXrYUkNxJDBA5CYmChCiCsRjmVhbmGKyRPHI5AqioryslZP09AclB2nbXB3tsOEMSMwdJA/cnNyZJ2R0eV3gwUJW1k4em5ycjIOHjoq4oaD5fn364XevXthxLABGODfW2bq5OUXSiyV3r26YdK4ESgrKf7VIs9t0gUx3QF2lqYYPnSQRMjNoWO4k8jJQJVVr/Xh+5KSkkZ1RjA2btmBQ0eOiVjhOmXbzn3Yd+CoWN+OHjuOEmq7GE5MG5+UKhkixo8eDktLK2zZvhdnIs5S+ajBseMh2LRlF2LjEsVC+CkJmeNBJyUlCFuqN2zaJjmyOBHwtEljqd4zQJdOPpJfzdnRERbmFjgZGobDASewfddehEeexZ79hxF0MkzK0/nzcdQx3EnrjrSrafBNFjntvYfHv44bH872yvh6e0qiM1fOO0Q3SouZibE8vJwwjwkKjcLggf5wcnJERWUNnecCLDRJ2dh6xXmI+G/nKYAWJKS6d+2CaVMnijXHzlYF89JFrKwsRbyw1YXN+dx4RMecw7gxIyV/EDt8cm1T02AowpnzWHGUzVvovg+jXjIH3+ro5Ybp1Nt95fkncCKksSft5OIGv05UUUyZgAnjxlD5MUKnTh1wz11zEXU2HqnUs27XSJumGra2oLC0GoWFxTJk7kh10dXgtBDOTs545IF7cP898+Hu6Ynw8EjJT8RlkkU0R9MVcUL1loOdrczY4bLJw6ym5pYiejhZcW5eHgqKS0XQMFzX8cKdRD68jgS9oi24gNPhUdh/MEA618Ehp8Rit3TlRsl7lpmdTXVVrOSWO3L0uLz+8NMyEiLmJGzt0atHd4wdPYxE60AZkue6jPMu9ujeGS/983+SN4uTVnehzj4LqOKSMnSjNu2lf74twrh3rx4yrd3Xx1tGRRISkxB4PAjbdu1HTk4ulTFj/Lx0FZVDJ3z15TfiEL9k5QYRyLW11ZLM+GpWoragySKnvWcwdaLeDHd8kqjHzVEiOQO5p6cHbp89U8Jdc3JOTrrZi24Gw5EjedreiCH9RBXnZOdi0IDe4gTIyRf5gedcIhy0iSNOdu/eHfPvmI0DhwKxcs1mKWjKtK+bOFFlYG1rh6+/X4Qufh0k4SE/pPuoV8M+DZwlmhuKkSMGi39Of/9++GXZGnrQ9yGLetlmVKH06tNb9mFR9NC9d4jQefrx+7Fjz2EsX7URiUnJYl1k37B1G7dLJeN7RYyMdgeVZxUpp/VhgdK/Xy8qJ1tk8sSIYYOpkfGCq4sLevbsQfWPKXpQ45VNjdWCeTPhQHUdL/fOn4MYEukc4daSOmbcgeO6i+ulflSeefiJG8afFq+QOmvmLZNFyIeejsL23QeoMXMmgWSCnr16NnbiqK7jhMXckeMevxqObxu4qeXIxSwyunXritz8QkybPE46Ymdj4pCVnSNWuwx6ZSEzeuRw6Yxd+uiy6GG1yqLGwtKcjjuP2poKlFdWwczYUFJCcELitLRUhEdGUVlzEP/UK2FLDRsPDAyMMHL4EPpNnTF0cH/06dUdfp27UHmNlc4iT9I4H5tI9WMB6hvaxwQfvUzQyWZclmJ8Y/jh5am9/PAyjTfKQNaZUaXBMxe458M6pbqmWgoJK1C+LCzouOJhM6F2iIFzQLHYYSdV/h4eomjvfkqMyl3VyJW5q7h3y/dRm3iSy0Z5RRVVCuZSfriH26B5WLkMlFOPiYcnufLg7XxdtfnSuGxx2ZHyweetqaFGx0LKB2+rpIrFnMqLtiy2V/hv4MrQy9NdGtGmoHJXNZ13P/kW/3zpSalzuGxzXcQtFYsaLptshdGWKy6vDJdBbb3Dx3F9xOWTUwZwGebyxnUXZ8zneo7LqpRd2of9bhg+F5dttjSyFYjLMr/y+bTHs3O9Cb22dR3X1rmrWgu2tLFVbiyJ0K3b98hQ1F13ziHhu03qkiUr1+M//3wRe/YfJQHsiVtJsLKzOHe2//biU9SpSkNYeBTuu2uOPIu8bWD/vjJ8FEX73DJ1PB5+4iWsWvwNVq5cI5MmFi9fI8EJeXgzOSVNhiy57P348zL49+uDIYP6Sxb0jLQ0lFXWYAH9Hvbl4tmoUydNwH/f+0SGWPccOIpHHriLyk4djKnd7dShA5WbljeKcJt9Q3NXNT6A7Rt+KPkB5RvFDzx/5ldeeD1XBvzgy750M/gB5sqBrTX8nh90rlB4X4ZftcfzeoYbNjYJt/XDr/hz8P3kXk5jA9HYcNhYN97XxrLC5cHk13LCQ1bSOyL4s1bgMHz8r+WDXllMassHb+PP7V3gCO3bWKu3SF1F5YzLENddDNddl5arxm2NZVELHydJGane4vXaeo7R1nO/ll2NwGH4POZUlvlVW7fxK+/Lv4Pf8/GXfpei9TA1MxFH4oWLliA9PR1DBvqjT88e4kfj7uaMjIwMVFXXwsnRkT67wMHejuoyM+Tl5WDdpm1YQuLFy8OFhEpvseZxctATdOyd8+YgLj4BHf38EHA8GGNGDRNLIFuwCwoKqBw0lhk7O1vpxDNcd7m6usDT3QWmVM64rPGICNcVri7O8PHxFif4rdt340RwqAjo9jLqo7KQ3yQoS04jKgv5teFePM/K8Pb0UJacVkBryVH8PjejJefgoQCx/A7w7ysClMUuW+TYasftnFiHq6qxfec+dKB6feSwQWKFY0sHw+JUK3YZdj5mqx2Lj0YrdeMrC9pGq16DiGUtXM/yOXjh79KiFb38Xfz+0pGOKvo9vO5GtsM33JKjdehVKBT6ioH8UygUbYeLq7NYadj6phURLCD4M7+yOOEhIysrC/j3afQxbbTImcpyqcBhGtc1WqsbrdQ8THnRQnipwGF4H96X4X21C3+H1uLH8H7adfzb2puhoel2SKVxFAqFQqG4YbBg4LAlXbv4adZcndEjhmLWjKkyU1RxdZosctr77CqFQvFnUbOrFIq2hi0l12pvtRYUxe/T9OGqBlX5KfQPHo/mRcGo4aq2gH0crsyrx74QXC616/mV97sR8Hnr1TOg0DOaPlzVzuEHlZ1LuXLYuXvfZZVGdnYuAo4FieMS75eQmHzVmACKmw/OQcbTpq+Ey0l5eeVVGxaOpbR42RosXrICq9ZskGik1yuU2BFc6yCoUDBl5RXYuHmb5lMj7ADOgdh27Nor4Tu4TssvKMDaDduwbNkqqs9OSODA36OCjrnUaVQLBxTkcrt46epfy3BIaBgSaf3VyrpCoavo3XBVbl4+du85IIGJvvlmIYmciw1JWkYWPv7iB4k4yw9yZPR5pKdnyjb2Cuc4JgzHpOAki1ypsCc7C6UKzTaGPdHz8ouuWnkodAvtvU1KTkZKWrqs47JQVlYh7/MLCrFw0WJJ38BlJr+wmBqjStnGsScCj4dgyNDBEiH0829+xikSSwwLmMLi0l9FD5cljkrKsxP5PKGnzyD45Ol2aj1Sw1VtAc9+CTx2XMofC2guJ77e3nBzdUVo6CkpO6EnT0mahh17D8G/vz+qqC56/a0PERefKOfgOoln6PCxHGPng0++REJSspQznkLMIfz5vb2drZRbDtjGufwGD9EEHnR1ke/h83B55bqQ68Wqqho5P8Oin1MK8HcoFO0dozcI1JXR00EVt4kdqZjLPayvhBt4TvzFc+ubOr30RsGVA2fqdaMHlDOHHw44jh7du2Lb9p1YMP8OmdPPcAyAjPR0FBSVom+fHpKU09bWWiqDH39airDwaJRXVIjH+edf/SBhsH9ZvhZ5eQXUk9rHVnwSeUZYs2EL9a4ScOhIILp09pM4K+0drtjy6BpxLAVtHARdhf+WhT+vxLRJo+HXqWnTlHm6I2ca59gOLHB+/HmpCI6Qk2ESvTMrO1fu66mwM8jOySdBU46VqzegV89u2Lv/KCIjo0ScsFnfztYGIUEhmDfvNrqu9igpLpIp1Cywf/hlOZW1DJyPS0CnDr5496MvkZ6RgTUbt8tUWI5QylG5OenrlbMg2hpuurjM29pYXxZX5XrgzsGX3/2Cxx9aINdEcW0Cjp/EmBFDREysWLsVRUWF2HcwQMpXYFAwddyKkJqaghHDh+DEiRD06dMLgSfC8OiD89HFryM6dfTBW+98ilEjhmLD5u1ITEyi449RGXeSIHI21tYkZErlPedZC4+MlsjeHOGboydzx3XC+NFITklHVPRZicMSEBiCo4FBCI+IQkQUrzsFH29PHAoIkngqISS6qmvq5LtbA7a4c1m0oTKpz7DAzc7OQUeqM24E3GmLj0+StlJX4fqfgxZes+5vIGFeW9x0S05793HqSxVAzx5d5QG+Ev7pfXp1E1Gyfed+ETOGBoaSqNHLywv2JHg2b9+HOuqF8/s5t81A546+sKb977t7HjZu2oozVEEkUWVgZGyOtIwchGl67grdgxOtlpSU4YlHH0QHqlT44TEybAwGaGJihrMxMY2xYmws4EG96QgSOHzfKypqcSwwWKx8SWlZ2LBlFz7/ZpFksx9NjRWnc7C2tqECZ4Jj1IDx+jyqpGfeMhUTxo7AoaPH0atHNwwZNPA30zbbBaqD3mZYUnm47547MYlER1hYOMrLKhqTw/4BLKLzstPFIsn5+YxItJSVFtNSSp04G4waOQxnIqJRU1uPunoDEi3nkJyapjn6Imy14WFUtiL16d0DE8ePk2fk0QfvhR+JmQiq+1at2ShB4C7AGEuoA6i4cdTwkDZ1yvi+stWMO1xsQWP4PrHBgTsV3MnnDhvHi9PClji2NGutbXxP2bocn5CITVt3yToW1dzp4/W8nes/faQZIqd9qxz+eeI0+Ts/k3vNt982nXpEwdRTz6FGywhLVmygm12LztQrKi2toILRQL1YK5hRhWMhiwnsqVdqYGgk2cm5R+Pfrycevm8+9cT7as6s0DUucEh7Aw6fbyI5XLgXxRl2LSwsqZLvTg9+hVQWDKcBsbC0wsABfTBj+gTcOXcWTEkke7k7Y/KE0ejg44n8wlJ4erihrrocQwb2w7Ah/fHEY/dLAldD1IvVkHvXFRWNQ2Ht91lSw1VtBYtezmDP0Ymvt0cZER0D306cZypDMugPHTJI6q2a6mrNHgTdTk70OGRQPzx43wJ08P19CwyXeU8PV3C0bycHB6ozjcAJO6sqK+k89RjQvzemTR6Ll59/QnOEoqVhcRJy8hT+/cZ7kgjzeFAIPvj4a/znnU+wbuNW2nYab3/wOT767Bu8+9EX+OSL7/AmbTtyLFgyif/z/97GJ1/+iPXUMed67fX/fogPPvlaLCB8f5OSUrB89Xqp496n9V9++xM+/Ow7zbfrF3o3u8rE2AT5+flinuUeR3pmlgwLZGblyJQ8Fjm8/vFHH5CU8KyCS4ry5aE/ExUDMzMDGW4wNTEVscTWHmM6J2NtZU0Cx0MUsA2d49z5WClACt3EydEBWbn5Mrx5NDAYhlSRm5PA4YSuQSeCUF3JghcworLAFYOJkRHde+5NlYkzKDdC7Nvg7uqCO+fdhpysDJwOj8bQEcNxPDhUxDIPV7HgNjMzl/IkAbWoPHGZysrOlvLX7qC/S82uan1Y9Gbnl1C9dBjHgkLh7eUl9Q/nT+MhZt5uZmYmw0sX0IAEaqjWU4P34Uef419/f07OwWU3PTOHllxU1dTD0dEJcXHx8CDRkpOTDUsLM8k+rvVV5PpQO5yvrR+57rvAVk0qAhzCn+HOIIf59/Z0Q3xiqnQQuV5V3DjyC4rQp1cPPP2XhxAeeQ6TJo7DP196Cnv2HUJaairMqXP2txefhpurG8aNGYUXn30C+w8eQVFxORbcMQcP3HM7MrLyxU0hJzsPt0ybgk4dfKjNqsLmbTslTQR3uPKoDnyIOuyc10of/aya7JPD5q2d7dgnh1MWcHZo7p379+8n2aNzcvKocaqEn19HODk5w97eVh7Y7l07i7gZPXIYEpPTMWLIQPHL4AbJr3MnSVnP4+Je3l50jJ2cv2+fniRwLBESGoF+fXvIuGB7t24xyienkUt9cljsutBrXl4+5s+dBV8qC927+iHkVCSV76GSdZzve+/ePaVXO2rkEEREnZeKYNiQAeLr4ObhAQ837vUaYeAAfzYPybNhSCIhPjEFI4YOFDHl5OxCjZa75L3ixJdc9njmC2eY5rLanrhAHZm8vDyxbimfnBuP1ifHgMRL7x5dpCPJWcRHDh9EdZADOvp4wdvHlwSMO5ypvLC10N3VCZmZ2SSy7fDAfQuobHlKOcvNK0ADCfLbbr1Fzjdm5FAUl5Ri2OCBUobDqLEcNthfzs/1loWlJQkgdxHrLKjYX8zb25PWuUnZ93B3g7MTR93l/dwweeJ48eupra3HxHEjW60uudl8cjhNQz7VS9ZUx3Sk95wgk31KM7OyJV0KW9ZcnJ3Qo0dXpJDY9CIR6+HuiqNHA+S+caeNfbsiz8Zi1PDBOHLoIO67d4EYADZv3yPlaOjgAVKWjEnI8iy9+IQkSc7Z3tuzpvrkND0LOanA51TuKp1D5a5qROWuujbsmxEdc07lrmolVO6qa3Mz5q46SsKDG/TxY0dh6cr10pHiIfDg4JMyjMhZ5WfdOh2btuxAz+7dqBPfAd8vWiI22C5d/ES0btu5Hy888zjee+9DfPHZR4iMisbajdtx28xpEp5g2uRx4lfavXtXvPH2J1i26Av5nvYM+xDd2NxVVAEqFAo9hmpJXbBOKhT6Cj9/XTp3+tWQMGfWNOrAmyA4JAyTJ05An7694e/fR4YYBw3oDy8vDxlqnDBuNB687y6x6LFf118fvQ91tTW47/57ZF8eubjrjtkYPnQgBvbvI/5fbC1kQfXWv19u9wKnOTQjTk6TD1EoFLrEhUbHR4VC0Xaw1YpjFzE8ND5v9kzcPX8OXFycZBsLIG6PO3XylSEqttz4k/jh9w/dtwAjhg1Br57d0a1rF4wdNUKGxXl4fkD/viJmOHyFk5OjuGs89tC918yTpasoxaJQKBQKhUIvacbsKjVcpVDoNWq4SqFQtFM4EGt1E2alNlnksIe+QqHQYy5cUMNVCkUbwD4ysfEJksdM8Vu4XsrKypWZZNdL02dXVVbiuZf/pTOzq3hWEf+JHAvi93qnnKMlOydXpmDyNGsO2mZubg5rK92ehXQpanZVI783u6qgsFCiHdvZ2WnWXBsuV9pggVp4rPuPrCDx8Yno1KmDHMsLw/u3J4c/nl11NuacRA1Xs6tuPDdidhXHBXN1dZYyrQ/cLLOrmCj6W7OoPTIzNZW4SMqmehG24HCkZ/++vcRh+g/RzK5qsshhQfD8K+1X5LCliefQc+6PsPBILF+zEbXVtXBxccRLzz5x1QZ+/r2PSSj183SOzn6dpAHkyp3jEOgLSuQ08nsiZ9vOPbCkzxPHXz4tkacrcq6fgf37/Ua8cMyKe+77Czr4NFa8HHPkzTf+JTF4fo9H/vICPv/4v/j+x8U4FXpKoiZ7+HTEnXNvxQD/Ptc1TLRt517cessUzaeWh83BZ8+el3g+SuTceFpK5HDIf04hwuL0u0VL8cDdd8BSB/LqXQ83k8hh+F7W1ddJ2iHFRRpIrpibmYoR4po0dwp5e89CzskWV63bJAGrPv38azz+0D34/KO3pFHjcNcx52JRVFQsDSXHCYg6ew7nOIMvdapT0rLgQr0fJr+ggM4VTvvVyzEcMl2hX7B/Wcy5OASFnEJaWob0EHjqJSfgPHTkGLJz8qiMxGLRz8sQl5BI5Scde/YdRMDxYBQWFsvxA/v3xk+LvpXl6y8/FnMzi2vOFXTk2AmJe8ERRsMiohB66gwyc4vEguPp6Yl333kLv/z8Pe66c7bEquDv5wjJew8cpt8QhqrqaiQkJsu5+Hvj4pMQS9s/+nwhCfJ4zV9xA2ArEz8QilaFcxQdPnpcRPXJU2GSQHj/oaPSaeOyEU7lYO/+Q1IeWHyfCouQ+u7QkUCq77KkjK1Zv0WCyZWWlNJ5zuIYlVXOzafQLbgjyoEeOfeYWi4uHLTyugTOJTRZ5GhN7O0VSysrmSrHkTHvWnAHdu0+gK3bd6N7l87w8+uEwONByMnJlUqDGxKu0OvqL8g0PFsbS7HecCXDWZgPHWnMuLt770GYGLevTNGKP09BQRFWrNkgJlAWuxy6nk3FJaVlsmzcskOmZRaR4OU0B78sWyvRtBOTUrFj734Rypk5hRJj4kjAcQQEBpGoKcLSleskAjeXs6O0ftfeQwg4FiTBuzgRHsPZ7rmxYoHFwoXLK4uhDz/9FsZGRjhIIuvAwQAEnTwjDZWnhwdWrd0gPTwTwwvXNtX+KVRah7aAQ+x/9e0i6YRx6H5ON8JD5kuWr5YysHbDZtjY2kr02+TUDOylfUJPR1D5rcX7H36G2uoa2t8CliS0uZwUFBZJed6weYfmGxSKm49miBzNm3aKo70dLfb0sFti+pQJkknc29sLi5auwZnwKM1eBNXhPDTg6OAgPggdfX1gZ20JNxdnsVZxj/zeu+bgh19WwMvbB646nJpecXXYD8fGwgxjRg7DgP7+JHxrRPBEk+BJz8iW9A9sGjUj0czxKAoKChFGZSiLesq1NXVSbqwsTCX0vXbhMsVh8MePHYkunTqgkhquw4eOYPKEMRgxbJCY3JmGunrUk0hiMXUqLByjhg9BTl4+9cKzEB0TJ6H5k1IzYUG/b9CAfujVsxtcSYBzYC9D1MHZ2VHOc0NQ+qZN4LLj7uIo8U3YFWDIwP7o17cXrG3sEB4RhUkTxmH4kIG0j5OE+Oce7eCB/pLZPjExAZxIk9OEsBWAhxlHUpni4dzzbKlWKG5S9G64imto7mHn5RdKiGsXZwf07d0Do4cNkKyupqZm0ovmnk5mZqYccTXrFA9FcI6u6VPG43xsovgiKfQLKxLCPCTEzvQ8LFRN79m6N33qRIweORT5hSUyBsyw47qzgzUeuvdO/OWRezH71qmSt4d7zpxbplNH318zO7P1h+Gs9QaGxnDz9EJKWgadr4i+q0q2WdvYYACJlykTx6Jbt644ez6+Ma+Ysakky3vs4ftwz/zZIq60TsnsRMrZ0LmM83DFDYP+ZjVc1TYYUf3KdayJiamIFraocW4hKytrmRzB+c7KKqpE4PA94mzj4sdFt4tf2BrIzvC8zoSOZx9F9rFSKG5Wmixy2nsWck6oaWhkgrLycnAG3iXL12Djlp2IjD6HuXNmolevnjgTeRZbd+wVBz1T6qmPGOwvQxUdqectjZmzszioUncbD1CjNqBfN/HnUegXPJvOzt4By1dvhIebC7w8PNCvTy/xfTgRHAr/fj3F8c9/QP/GjMD9+kpZ2k3iNy4uUWbyWVN5Y7+JfQeP4ODho8gnce3r7U1nN5AhJR4GZbFyNDAEe/YeQPfO3lTWjOHu7irJOhlOzlhSUipDVrNIPK1etwmbt+4kMV4u1hsu09xoeXl5SpLYcePHIyQ07AbGrFLDVW0Bh+Xv2bOH3Gs3V2exyLDg8fV0x+xZ03A+Pglr1m2BFa3v4OuFTh18ZR/ef+Cg/pJ/iEV0YlKKJOxkccyzc7pSGVQoblb0bnYVNzzcmzGkXjQLFt7GDz4PS/Fn/nO5QeHeNlcq3FvimASc54N78lwp1FAvmRsQIzoH+/c0TkNvkJ67rqJmVzVy5ewqLs88RMXDmwxbTtipmEOj1zfUN1pP6rhnzI2QCW0rhAmVA1sSJFyWWExrYWHAZYR72OZUjrgHzbnepByWlvEO0iDxUCj7hPF6/j4+T3V1jRzbQN/JjqIWlhYy24vLIv8GbrB4Hy6vtfT3c/nk7TeCxinkanZVa6GdXcVWwyqqq3hGFJcPtsJwPcbDqI31UK1kFOeyx/UU11dcJlkIlVMdprVMGnJhJaQ80Tn5XGzx0WVuttlVihZAX2dXMWzK5UqBGxRbGxvp/XKDwvA6OztbqUh4H25kuNLg9Xwcv3J8Au5l83aGj9VlgaP4fbgc8DARi15eWEywvwuLCS4HLITNqYHgRoUbHedLLCuNZcfm14UtMSyyWeAwLE605Y63cf4ZdiSVMkb78fFMY9kzk2eLv4/zyWgFDE8x1w5X8TH8ns9/owROI2q4qi1gcaKd8s11D99rWiX3ncsI10E8MYLLIqMtk7xNa9HheovX88KfuQzqusBRKP4MejdcpVAo/ixquEqhUOgHTRY53LNQKBQKhUKhaO80Q+QolaNQ6DdquEqhUOgHarhKoVBcDnVk1HCVQqHQB9RwlUKhuBzpx6jOjEKh0H3UcJVCobgCNVilUCj0A70cruJYERyXhCPZShigqiqJh8JRjjm2BMc2qaqqllgjvI335ZxCHCn0asgxtF0b9Zj349g6/FlipdA2Pg/HsZDvLiv7dRsvpaXlso7jrWi/k+NalNE63q5oOzgpYmO5qJGs4stXrZecP3yP+Z7xfeJ7dPpMJPYdPCr3j9cxHMOG7znH7ZH7SeWK3+s8PFylOjOtDsfD0ZYfLlccD4k/c/1UTmVLW59w3C8um1xm+TPXNbz8Xv2lUNzMGL1BoK6MWm5qwE3sSPb8cUwFbqh37tmPMaOGNTlQ2I2CKwdOiMjxcDjY28q1myU44OEjxyTyJ0eQ5ezOJ0+dkcy9SUkp2HcogLa54+clK2nfWJwIPi2xUTgA2qUVPIdRX7d+C+ISkhByKhx+HX0RFByKk6cjJZ+Mvb0t3njrXWnkKqtqcIAawpSUNImY6+ToSOdOwOr125GckozUtEw4Ozngl2WrkZichn37D8HO3l5+942GG+c8ukaSOkDHY/7w37Lw55WYNmk0/Do1LeAcNxqck8rVxVmCAP7w03ISN1k4FxsvjQRHL+Ygl7HxiTh0OADHqVxwNGTOexZ08hRGDB2MN97+GFMnjcMBKkNp6ZmSLJHLRGx8EioryiVXmi5zgToyuXl5EvvHwqJpGX+rqOH98rtf8PhDC6istY/6ob0TcPwkRg8fTHXGScRRuevYoQMOHQlARXklduw+iKjoaIScPC31LYufHbsPSH6z4yeC0cWvIz76YiGyszLh6ekhcZj0kRx6ZrkscrwpheK6aKih3kJx0y057Z10anTCzoTD2dEeedQj33/gMD0gBZIAcfjQQdI7unXGVGRkZksI/sycAtw1fy6GDemPmPPxmtxAF6knUZeQlCoBtcaMbAy/HxuXiBlTx2PalPESvCuRBNDgQQPFQpNMAodTwufk5tLviMD3ixbD3tacFlts2b5LIsJWVFRJI+nv31cyVyvaBm7MMzKpcfBwR/9+veHj7SlpHTp19IG9nR01Nr4kfOokw7i7mzOGDvKX+52aniPHFxUXSx40zpNWWFSCQQP6wsenMX+VQtEUuGPVpbMfAk6EorS0FHkFxRIxe8Om7ZJ008DQEMtXbZBAkD7UOXN1dsDJsEgqd8VISU3HlMkTJDGsQqG4nGYMV7XvZG+VVZWwMDOVsPyzZ07D+PGjJdeLo6OjpG7wogaNeztcIXDFYWNJAoT2lbD+DXXU8l0+fMQ9h+eeflT2ffaVN6lRzIKllYWEUOes0y7OzhIZlxtGDp8ukW1pmTJpvGQBzsvPh5ubCzw83PDXxx6QOSv2Npaws7OR8P5mpioaaVvBUWKff/ovCIuIwXc/LhZBy40N//v86++RlZMLT7p3PBTAxj1thGJjk8ZXLikccfa2GZMxbswwfPPDchw4dFSGEHQa+lvVcFXrwxZdC3MrnA6PkuF0riPKK8okyvbA/v0w7/aZCDkdjj0Hj0ndY2hkJNZHV1cn+ayNjK1QKC7SZJGjrejbK/yw88IipKCwUASIqbFxYyNlcDGjs7k5h9U3QE5BAY4HhSIuIRnOrq6/+fu4p36celddO3fCjCljaA3nialGSOgZ7N53CKeoN2WtMaH6+XWk77X6NU1EXUM9ZkyfhoKCEumB1VTXkNAiYWNuJg0ph243t1Aip63g4bvIqLOYMHY46mpJ4NK95xxfPFRjamyEbl38JBM572dmbo7iksY8aD5eHggKOYWos/GiiaNjzov4v2veDJRRL1znob9J54WaDsJ1xt133oqffllGZa8TlTMvqXdYyPDtYFFuRnVGt84dqV6qhC3VJTyMY27WtCFFheJmon0rlmbAvha3TJsslQCLHbbYTJ8yTqw3bFEZNKCfCJkZ0ybJOnfqJXEDxVmhRw4b/JveEFtaOnTwkeGI8WNHYtDAfnT+CairqxWrUPdunfHM03+RnEN+HX1kn8LiEhFZPOTx8P13olvXzuI31IUqLLYajR83RnIa8edR9J2KtoHvj7ubqzioP/nEIyJeRo0YKo3Ns089Lq9zZk2j8jMBnf06oW/vntLgPHjPnWzswD13zkK/Pj3h7elO6xvEp+v22TPlOIWiOVhZWpCYsUGvHl2lE/Tm638XPzIzMxO4UyfMv08v9OzeRQTPc08+Cjdad+ftMzVHKxSKK9HLLOQM/1nXamxSUtOwdMlKvPbaK/I5KysH/3v/M1RUXRyS69XNG6++9Oxvznfp5z/axvBn5lq/50aispA3cmUWcub37t+V6y+lPd7jloJ9QSQLOYl4lYX8xqPNQs7O6yvWbMCD992NAf69fy1LV5atPyqX+orKQq5oMvqchZy5nkrAy9MDL730nOzLC1tzPv/ov/jhq7fx49fvyPLyC0/Lvlee79LPf7SN4c9XrlO0H37v/v3RPbvaMX+0v05BjSg7ZasBq9ZlyOAB+PSD/2Jg/z6XlaUry5belDOFohVossjR9ir0AR6asrjEJ4YrDx524oW38dLefZAUTYP9sngGXXVNrWaN4koaWOTQYqTKfqvCdY2qbxSKlqUZIkfzRqHQQdjPgWO5ZGRktfuZgm0Fx5wqKS2V6fIKhUKhyzTZJ4djwTz70mvt3idHcTnKJ+ciPD03KCQUJSVlMDZR024vpb7hgjhVswM9hzhoKsonp+lofXIUv4/yyVE0GY1PTpNFDs9Eee7l9u94rLgcJXJ+Cxd9Zc35LVfOMGwKSuQ0HSVyro0SOYom01zHY30druJ4OBwyXYs2xxXnNuIZZQr9g32wtL5Xarm4KNoGFtyFhUWaT41w3ipOLVNUXCLb+VXlqFIorp8mi5z2PruKK4Cs7ByJS/Pqv/6HPXsPaLYA+w8GYPHydZJYkeGevJZ9+48gPSPz13Wc9iEiMgaBJ0KwfVfjOXjTpccoFApFS8EpGt55/zN5r61nQk9HIDzyHL765gcUk8D5+rtFSEhKwUNP/A13LngAb73zsSSP/aPEyXwu7fn4O5554Z907P345IvvqI47K47mWrT78brsnNxfk9Eyqu5T6CJNFjntPQs5J+BctnIdPaB5qK6qQPDpcE1233ps2raT3ldJdNvAEycl0V3A8WA57vy581SZnCVBs1+SeVpaWsLZ2VFC/VfVcBTcfAnZfzQwCKlp6eqBVygULU5JSYnUSZzxnrPhc8oGFycH1FRX0dYLqKmslOFafv/zom/x8AN3U511ECvWbpaUM0nJqXKe+MQUZGblUMctC4eOHMPho8elDmugTmAHH3cs+vFbzJ83G7v2HqQO3mEZzuYo3gGBIZKbr4i+e+FPyyTRMFu0Dx0JxEFaklPS5fwKha6gf/MVDRpD85uaGEtEY78OvkhITEZwyEnJM+Xk5EQ9oWSsXLUOdrbW2Lh1F1UIScjLyxNTsbmZKX5avFKyUp8igSSQoFlOwqmiskJE3q49B0Q4KRQKRUtSWFaD2ppaJCal4HjQSRwLDEZ4VIxm60V4qjln5eaksn997F6sWL5SUpTwwh0wzqLPiYXf/vALqQ95yGvrtl2aY41gZmYGby8PTBg3ShITs4UnOvosT0XB2o1bJcxCA4kpjsz+y+JVyMjKFiv+0pVrqe5T4RcUuoPeDVd5urvA1cVJkmTyw97BxwsJCYnYvucgZkybAEMDA4SeisCECWMweuQwDBnoj2308HMahoED+mESrb9QVy2zyLTWmmoSNMGnorFj1z6sWLUWYRFnfx3yUigUipbC2dYU48aMwIihgxAXG6epg/7YamxhboELDbUyK+6CxpGeE8eWlpfj/Pk4bNyyDRs2bUVQaIT49VyKkbEJTE1N5XvCImOxecsOEkrREk/KydEezo4OOBUegX37D2H1mg3Yt3c/yivZqqRQ6AZ6N1zFzqTa4amGCw3w9vZCUlomKsrKJJcVP8y+vl4IjzyP4pJSpKZloHefXqiurkFBQaGYiOksEhCwkQvijOnhYoOnnngU7/33dfz778+LlUihUChaktKKWuTk5ElSWE8vT1mn6WtdBqfe4BQl7DezfM0m3HrbbTLEXlVdLZMokhKTwC7kPJPyby89h3fe/Dfeev1lsQA1NNSjioRKWnoGToWepnrRFWvWbUQXPx+q4x6BOYmmuvo6rkzFouPg6IKHHrgbb7/5L/z841ews1F1n0J3aLLIoXLfrrG1sYGdna1UEl27+MHN1VkSMd5/73x6eM0lgad/395wcrDDzt0HYGdrg1HDh6JXr57Izs3D3gNHMHHiBHhKNnNXuND+HUkUzb9zLkJPncHhgBMy9q218igUCkVLYEIdq759eyGYhEdmdg4G9u+HDr7eUg/16NFdLC49e/WQ+EU9u3UUf5mAwBMwMzHCQ/feCT+/TmLzOXrsBIkbG/j4eOFpEi2Hjh7H0cBg5OYVSDBMR0dHBJ88hUOHA2BDgmXc6OEYN2a05CmLi0/EoIH+Eiyze/duVI8W4vGH5iM2LgEBx0NIGGVKR1Kh0BX0LhigqZkp9VIqxfrC1hwet2bLjrGJiZhzeZ0Jvecp4twTsjA3E/HDn3kbO/Vx74c1DPd4DAwMRdBwhmmeacCzt3j7RUuPbqDi5ChaAxUnp+lo4+Swlby6ukqsNAb0jyNOs/8LuwiwRcXczEwszuwnU1lZJZZqI/GvMZX6iOspXs/PhxnVa8ZUB7IgKSsrJ/FzQazPbMlhSw8PWzUeS/tR3cafeT2v47qznuo+PieH1WBRxXVsQ30DrOgcvH9ro+LkKJpMc+PktPvhKlo4uzT3eriS4IecH2TOw8MPOPdkuCNiTpWAg72dCByG92G/HLYC8UPODzKfgysUPoaPZT8fezpG1wSOQqFo/7CY4bqLxQjXRY11F9dBJtQZM5fPXG9x/cQdFbZa837a+oi3c51na2sDM6q7eD+ut/iznW1jvcb78PkvHtsoWKR+s7aW4/k7LbkOpe/VRr3mbVw3toXAUSj+DHo3XKVQKBQKhULBNEPkKJWjUCgUCoWi/dNkkVNfr3L9KBQKhUKhaP80WeTw2K1CoVAoFApFe0cpFoVCoVAoFHpJk0XOlREz2ys8nZLzV3GiTe3CGX2bQnJqquSqioiKkRwwCoVCoVAodAe9G67iDOScW4oz9t7/0F+xePEyrFixWpbzsQkSR4LjRnCyOo6Tw0EDOQYEwzEheH1hUVFjPBwra3i6uyLsdBhSUlJkH4VCobgRcMeM6yaOYsxJMbmu+vDTr5GTmydxrvILCqS+4jg4RVS/fbPwZ8m3x3Udw/HA+Bg+T1FRsdRlfJxCcTPTDMXSvuPkxCcm4+SpMKksOE/VXx5/FH/5y2Oy9OnTA0eOncC2nXskWuhPS1bR60l88tUPkqBuz4GjOB0WgUOHjyFSrDeZCAgI1JxZoVAobhxcZ61etwkx52IREBgskdW37diLzKxsibQeEBiEo8eCEBx6RpIOh5w8jeSUNCxbtVGO56jEIaGnqUOWhq079iCYtgcGnZRtCsXNSpNFDnUS2jU+Xp5wc3OVEOW2Dg5Y+NMv+HbhIlmSk1NRQL0hH28vDB7oj5zsXAwfOhjZWblSQfTv1xtenu6oratHaFgk9ZCKkRCfpDmzQqFQ3DjYsnzgSJCkmhk0wF8yjFeVlaCLXyf0pQ5apw4dYECdzIiISDg5OcPF2Unqq8SUVDm+pLhE8u+VlJbhVFgUevfojj69uss2heJmpRnDVe07To6hkaEELOSlpCAXzz/9BF598WlZOnXqIJE+vTw9JCKotaWZfLYxMxSz7+Jlq7F95x6x4DTVf0ehUCj+DJy24F9/ewY79hzGNwt/QT4JFoaHnxYtXoUtO/YhISkdFVU1v8Yr4yjGDfX18p7TQfC+nTt3xLTJY/HVdz9i7cZtsk2huFlphiWnfZtyOBQ5W2iysnJgamaGEyGnEXDipCxnY2JRU1uLiorKRhVkYCSWKSM6hntR7FPdz78/TE3NUFBUjIrKKhgZG8PAkIVT+xZ3CoVCtymgjhbXUUMH+UvqBe5ode3eA6fPRKK8rAz9/fvA0dEOpSWlqK2tRll5JVLTM1BXW4Pd+w4j+FQEKmtqJclmRUUFBg4cgKjIaM3ZFYqbkyYn6GSB8Pwr/2q3CTq5ZxNzPhauzk7U60mBmZk5/ZWN+9lYW0muKlsba0l2l5iciq7U6+ExcGfan8fEM0kgubs5o4p6S7x/ZWWlJp+MJVUwDo0n0kFUgk5Fa6ASdDYdbYJOnvgQl5CM7OxsuLm6oLNfRxIxmTKj1djIEMkpGfDycpckyTyUlZKaAXs7W+l4cl3n6GgPR3taHOwRHXNeknl26uBNx3hqvkl3UQk6FU1Gk6BT77KQc3I5xW9RIkfRGiiR03S0Ikfx+yiRo2gy+pqFXKFQKBQKhYJpxhRyhUKhULQUpiZGqK1T8Wz+iJKSUhgbm2g+KRTXj97NrlIoFApd4rYZk7H/4FHNJ8WV8GQRdkdwdLDTrFEorh+9czxWPjlXR/nkKFoD5ZPTPAJPnER1TbVMiFAzOS/CTtdcvw/07wsXF2fNWoXiOmiu47ESObqJEjmK1kCJnObDz2idJuaNohGWe8YmxjA2MmpcoVBcL811PFbDVQqFQtHymFBjbmFuppZLFnNalMBR/Bn0bnYV9/I5iV1ZeQW+/u4nSbTJsNlz6Yq1Ev+GjVe8XMql6662XaFQKBQKhW7RZJHT3oeLT5+JwE+LlyM1LRNnIqJE3DD8ej4uAeUVFQgKDkXgiWCE03YWQZzn5cCho5LQjjP5JqekYve+Q3SODDlWoVAoFAqF7tEMkdO+VY6NtY2kZbCxsdasaUT7u6NiYnH2XBw6+PqiqLQMSSRo/vfBF/Dx8UYEiR6OFBoeeRYhp86IqVShUCgUCoVuonfDVTY2VpKOgcdzyysqf7XksIWG0zb4ensi6lw8du89AHcXJyQlsWNSHXbs2o+I6FjExSfBxNgI/r26S5ZfhUKhUCgUuoneWXLYH58Da5mbmcLQyBSnTkdIhvEjAScaHfto/XN/fQgjhg3Gpq27JAkn54yZe9steOzhuzFm5DD5G42NjTXnUygUCoVCoYs0eQp5JYmC515uv7mrOHDUz0tWY9L4Uaitr8P6jTtItLAjsQEeuPcOSbS5fdcBVFdVws7WGtOnTsKixatJ1BjCzs4Wd8yZKUNWdABGjhiq+QbdR00hvxwu9uygrtKUXI4hCXxnZ8dmd2bUFHKFQtEuaG6cnPLyCrzw6r9VnBwdQ4mci6SkpGLpinVwcHKCqakqL5fCmasLCvIw97aZ6N2ru2bt9aNEjkKhaBc0V+S0d0uOEjlXR4mcRuobGrBz114YGpvD08tLs1ZxKVVVVSgqyMWYUcNgZWmpWXt9KJGjUCjaBc0NBqhQ6DK1NbUwNTOHg4ODZk3rcYEEVm1tjeZT+8XU1AQmJibirK9QKBS6TDNmVzXOVlIodJEL9I+9TQyN/rjos4Ez5uxZLFm+Ej8vWY516zciJTnpTwWJTE9Px5dfftMqUcNrSaDk5WRpPjUd+TOVu5JCodBxmixyjK7ROCgU+kJmZhbSUpLRwdsdFxrq8eW3PyA3J1ssHKmpKYg9fw4lJSUi/LOzs3GORFF6Whoy0tPEapOYkCBio7iwAImJibC1s8X4caMlAGVaaioyMjKQl5uNysoKJCUlIj4+FhUV5SgtLUUyCaosOmcq7VdUVIRz52JQROdhigoLZd+0tFQZuuPP/J7PkZqSgsqKChw5chRfffczigry5XxxsbG0LZm+q1LOcS3a+xxKhUKhuB6arFj+TE9WodA1bKyt0d+/H/z9+0qG6NLSMpw8GYqDBw8hNjYO69ZtIFGTipUrVyOKRM6evfuxecs21NZWY9mqdSgrI4ERH4dflq5CdlYWlq7cKM696zZuwdZtO5CenoGAgAAcPx6E06fCsHHzVpw7H4tly1bhZMhJbNi4CXv27EFQ8Els2rxNxNQvS5YhKioa+/YfILETRwLoLFatXofwM5H4/oefEHM2WqxGDQ21yM3Lxd49exERGYnwiEja95x6hhUKxU1DM0SO5o1CcROQmJyC7xb+hB9+XIw+vXrAt0MHhJ2JQPS5eJwKj0F4VAx9Dhfn9+lTp6Bzl86oqKzEhYYL4sDLw2Ns1eF19XV1KC4po7NekFAHfL4+ffsiJDSMBFIsTkecQ1DIGRQUFIiD9JjRI+Fgbw9HRydMnzYZGVk5OBIQhITEJJyhfcNoOX06DDAwhLm5OSZOGg97e1ukZ2aJz5G9nZ383mISZmciolFRXg4nJycdiHWlUCgULUOTRU57z0LOvVSeScSv2Tm5SKJGKjUtHYVFxaoHq2gyXTv74W+vvojx40aSaKmWYRwjYyMMHtAPD99/J1594Sl4eXrKkBULFx7K4vcsJGqqayUQZUZmduPJLsHUxBjOzk4SdNLSwhyTJozC0088iNdefQa2trYwNTWGlZWlOAFbWlqQYLGX4+rrL8CQRM38ubfi5eefIGE1GUZGRjAwMhGhY2Fh0fj99Jzyq6GhEebMmoHZt05HfFIKDhw8pByKFQrFTYPeDVfl5xcgIPCEDCs89+Lfxey/dv0WfPrlQumVMxUVlSi6RPSwXwOLII58rP1cVFwikZMVNy8WJC4cHR1gYmKGwYOHiL/MuXPnMWTQQGRl55JgOIKQ0FPw8HCHs5MTtmzbgbNnY0SEmJqZoXevrjh48LBYcZwdHWFG6zw9XEkAGcLBwR4mpqbi2zto4ECcPx+PXbv3ISIyWoQKb+fyaW1tLcexaGGrjn+/XuhCwivgeBD27z+MgqISGUZzsLcVAcYBLXmIzd3dQ4RWeHg4gk+GIjU9Ax5urvD29hZRpFAoFDcDTY6TwwLh+Vf+1W7j5Bw8HIADtDz+yP149tmXsGnDKgn4tuiXZdQjtkTP7l1wNPCkOFC7Ojti5i1T8PI//g+jRgxFfV097ph3G5atXC9pIVJS0/Cvv7+oF42CipPTSGVVFQKOBcHWwYnEg7lm7dUpLy8XqwcP/bBVpLi4iIQHxNLCQ0r8O+zs7KRcFRUVipiJiTmPU6dO4dVXXqL9S1BVVSlJY0vpXA60b0FhIdzc3FBIr1ZWViJg+Dv4fDyMZW/fOLWdfXmcnJxJrJfA2NhEhE9+fh59t71MQy8pKYYJrXcg8cTH89CYPYmgQvodpiYmtJjKe3NzC7EWsfOyoSGLKwex+PwRDQ31KMzLxcD+fURsNQUVJ0ehULQLmhsnp70PV/Xt0xM9unWBl6c7YGSOZBIqoafPkPgJRJ/ePeDq6oLbZ03DzOmTkJySItad9Kx8MftPnTJBZr7wTJSxo0fiwfvuksZNcXPCIkQbT6dRIDjCkUQFiwZXV1d4enrKPmwx4W1enl5wo/LVqWNHEUMsgNzc3GFJ+7jR/mzdcXd3l/35PCxwGBbhvJ6tLyxAeHF2dpH9bG0bRRS/53U8fMXf6eHhCWcXFxHgjZYfh8bz0u+w5kz8dG7+bv4NvL+Xlxcd03j+66F922sVCoXi+miyyGnvuX741zVcIGFCrQw3CMkpaaiqrsZ7//u3OHqePBWBbbv2IfBECErKKuHl4Y7nn3oEa9ZtxPbdB6QxWzB/nliEVq3d8OsQlkJxPfTu3Rtz584RwaG7GOj471coFIpGmixy2jtmJibIyy9CIQ8VlBdj7Kjhklnc18dLBFpWVjb8OnWQiK4XSAzFJybh7Ll4jB87ShyVC4tKaF0yRgwbhOizcaisqtacWaG4NiwO2NlXt6GuApuiFAqFQsfRu+EqHgaYOW0SGurr8e9//wPGxhcbHH4/d85Msc4MGuCP++++A57u7hg3ehgJmnOYO+sWsewM8O8rmchfefFJODbRJ0Gh0AeUxFEoFPqA3jkeqwSdV0c5HjfCjseHjhyDqbklzEwbfWKuCev662n1/+x+V66/3vNdSnOOuQL2QysvK8WwIQOaLPKV47FCoWgXNNfxWA3VK3QZLr48+8jexgoOts1c7K54/b3lz27XLlfbr6V+w5WLZn+eXahQKBS6TpMtOTxV9dmXXmt3lpyYmFj07dtLYoYofkt1TQ1izsWhi19HcJA5XebPWnKiomLQu1d3mZWk+C0cbflszHkZulVTyBUKhU7SXEtOe5xdZWVpCdZqWZnZMizD08DVcnGpq6tHXl6BXCM1nNeypKWlyxBuWnoGzp2LRUJCEjKzslFH111noXLCZUWhUCh0nSZbcjiL8XMvty+fHCY3Lx8pKWkwpUbcUI2pXUYD3eKKyip0pp61s7OjZq3u0lKWHI5PU1xcCkMjQ9jZ2kgKhvKKCri6OEsMmwp6n19QKM7snHfKxsb6N1OrX/3H/+HB++/B8pWrJRaOq6szKqrqYGZqjDvmzoLFdcalaU/U12ssOZ7KkqNQKHQUjSVHL4artLAVp7KqEg1USSsugdplS4vGPEj6QEuJnOqaWrz34ReSYXzYkP5Y9PMK9O7ZFRnZuXjysQfwy9I1sLG1Rk5OLnx8vHDn7bMkjtKl/O2f/yGRczeWLl2B559/Bu5uLigrL8fTz/8Tr774JPr26aXZU3eQ4aqzSuQoFAodRp+Gq7SYmBjD1sYG9vZ2arl0sbPTG4HTkrC+5+SXHP16zbotGDigL4YMHojjQaFISEyR3GW333YLJk8ch5TU3ybZvBps6eHcUd5ujsjN51QNOghdF/6nUCgUuk4zZlepoSCF/uDi4iTDVnkFRYiNS0BEVAymTp4ogtnYyEgsNzwby9zMWHPEteFhrpTMPPh4e2rW6BoG8k+hUCh0nSaLHIVCb7hwQZyymdtnTUVufjHMzc1QVV4iOc7YH2fTlh1YtW4jiftrPCqGxgg8How16zbjrbc/wojhQ9DR10ezUaFQKBRtQTOGq5S/i0I/sLW1wfx5s2FmaoJRI4bh2ScfgouzMx5/9AEJgvfkXx5EZ7+OuGv+PFhbXd2B+IXnnhTftGefehw9enRF//598drfX8RTdCynDtFN1HCVQqHQD5oxu6oKz73cPh2PFTcHLeF43L1bFzz+9N9hbUPlvYGtOSTeDS8RJQ219HRQH8DACPX1daioKENJaeWvlh+G4w05OzmSJmDhb0D/aYZ4GurEstPRywnPPvME7GxtG9frCGp2lUKh0HmaO7tKiRxFW9PawQCrq2tQWFQkOc8uzUpvZ2cHJ0cHzSf9QYkchUKh8zR3dhVrIoXiZoIDKLq7ucLH20uEvXbRR4HTiBquUigU+kGTRU57z0KuUCj+JAZqdpVCodAPlCVHoVBcjnrEFQqFntAMkaN5o1Ao9BQ1XKVQKPQDNVyluKmorqpGg8yGaj4cRqGmplasmlV0Pg7+V11dfZmVk99zclSdRA1XKRQKPUENVyn0jnWbdiAuPknzqRGeHbX3wGF88uV3SExK1axtGtk5ucgvKJBcVvv3H5JZV78sX4sfflmJlWu3Ys2G7bKttKwMuflFiIw6K7O5dA55xNVzrlAodB81XKXQO775/ieEhkXJe7am7D94FP96430sIUHi7ekBe/vGuDVshdm1Zz927d4niWc3bNqKRT8vw7nzcSgvL8fRY8exZu1GLF62DmnpGVi5ZiMW/bKCBFQiklNS5dxJ8QkYOqg/RgwbBCMjA/qONYg+G4uPP/8eK9ZuQlZWtk52DNRjrlAo9AE1XKXQOTh/mpmZMUrLKq4qIEyMjVBX34BTYRG468Gn8b/3P8PgAX3xzWfv4f5758PJoXHqd3l5BdZt3gEHRwccPHIc5+NTMXHiePz9P++iqKQMy9dsg7unJzw8nLF1+14J/jd+zEh4uLvK8YyxsSE6+Hiie9dOuHX6ZFpzAab0/aVFuejftxcc7O3l9+oU9HNVjjqFQqEPNFnktOcs5IqbAyMjIzx07zysWb8Fazduw9FjQQgIDJYl8ESIBAvcuHkLXnj1PyRo7PDis0+iv78/4hJSER55DiWlZXIeQyND9OreDX379MaBwwEwMzVCaOhp+Hp6ID8vH726dUTf3t3Rxa8TLCzM5BhzC4vfFQAsuIyNjCX/1dtvvY45s2bAkoSRzkGPuBqWVigU+kCTRY5C0R545IG7cfttM2ToaO+Bo9hz4Igsu/YdFpGTlpaO2tpqZGbnYDdtX7R0LX5csgpLVm5AcmqGnIOlCosXzjTu6+0Ja2trDB8+GLNmTpV0DRamJjAyNJJ9Gc5WXlBYcJkA4Pe19H0snA4dDUR5VR18fLwlUrCFhblkMFcoFApF26CGqxQ6CUchnjdnJl594Um89uqzeO2Vi4u5uTnmzJ6FoUMHiaNwBy8XvPzMw3j/rb/jrX+9gJ7dO8s5DEjc8HCSoYEB7lkwD0kp6Vi1ZgOyMjJhaWkBFxdnsdqYktixs7PFyOFDsGvvESSnpMHNzVXEkROJoY1bduDr7xch/EwEnnj0XhJLVnJ+nUUNVykUCj2hybmrKioq8fwr/1K5qxTtlmmzFuCRhx/C3FlTEHr6DFas2YSioiJMHDcKw0j4FBUWob9/H8ldxVYfHv7iRp0diWtr60RAaT+zkNFabvg9567iV4aP4+O123U36/jl8N8dHXNenLRV7iqFQqGTNDd3lergKdo73bp0gpuzPYkOYwwnUfPum//Ew/ffhbiEJLzx9sdITLk4hdzY2PhXqwWLFvanufQzv2dRoxU2LGR4PS8MH8/r9EXgNKKi5CgUCv2gGSJHVX+K9s0br/8NI4YN1HxC46yosSPxj1eexf/940X4eHlqtiiuijzi6jlXKBS6T5NFjppdpWjvODk6wsyscTaUFhbn1lZW8PPrAAtzc81axVW5oNI6KBQK/UANVykUiitQaR0UCoV+oIarFAqFQqFQ6CVNFjn19X8uuaFCoe9oZ1tpX3UPNVylUCj0gyaLHO0sE4VCAURFn8PhI8doCcDRo4GIj09CbHyiTDU/euyEZCzXPdRwlUKh0A+UYlHctLAAqaisQlV1jVhdOElnYVHxr8KEY+DwZ7ZecjLPq7Fm7QZkZedIRvLqGjoP/TM2MpJYM7t27Wk8L23LzSuQdQqFQqFoPZoscnSzZ6pQ/JbS0jK8+o838NFn3yAjMxuPP/13/PvND/DJVwtRSeLn0y8X4o3/fYgX//a6RDW+Wtln4TJ61HBMmTwRkyeNR01tHfbsPyLbeP+EpBQ89+Lf8dEX3+Ozr39AWXm5bGvfqOEqhUKhHzRZ5BgZKeOPQj9gC42DkwOe/esjWLNhC8aMGoan//IAAo4FkThJlgGb//7n73jg3vnIyMprPOgKKmsaEBRySoamjgScQG5eoUQFZ3ccFjkHDx7B9GmTcfe8WaitqUN2dq7myPaMGq5SKBT6QZMVi+46UyoUl2NgaAAPN1eYmZsjPTMbFeWlSEpOwT3z54jvmam5qSYKsjmMDK9e7g0u1Ms+nNHcyNiY9cGvNA5VVSMvLx9pGRno3s0PDvZ2mq0KhUKhuNE0Q+Ro3igUOg7rkYaGRj+ZWyaPR3ZeEfz8OiEtLQ2uzk4oLCjCydAz2LR1p6RvuBrmZiYYMtAfo0cMxajhg2FrY0PnvCBWHD4/n6+wuIQETjeYmZJoMr6Y1bz9ooarFAqFftBkkaOykCv0Bc40PnniOJiQ8JgwbhRmTp+A8IhozL9jLhwdHXDXnbcjMzuHBMwQWNG+7Ihce8nCw13z58+TDOVaOnf0xqyZkyRz+T333o1pJJ5GDR+KwBPB6NG9C2xIBLV7DNRwlUKh0A+anIW8srISz72sspArdJPKqipERcWgd6/ukoX8ekhJTcf+g0fRico7OyRr8fXxQu+eXTWf9AcWb2djzsFLZSFXKBS6SnOzkKvhKsXNhrubK2ZOn4we3Tqjb+/uvy5eHm6aPfQNNVilUCj0AzVcpVBcAx56cnV1JrHjAm8vj18Xe/uLw1R6BQ9XqfQtCoVCD2iyyFFZyBUKPYcecTWLUqFQ6ANNFjkKhUKhUCgUuoAarlIoFJdDj7garlIoFPqAGq5SKIjSsjKUV1RoPjUNTu3A08u11NbW6fZwjxquUigUekKTRY7q4Cn0keCTp3AmPFLzqWmcCgvHmvVbJAAgs3vfQdTU1Mp7hUKhULQdzRA5SuUo9AM2ViQmpeDQ0UB5LS0tR1lZOQ4dOYb1m7cjJ7cxX1VRUTGOHQ9GekamfA48ESKvnAIiOSUNxcWl2HfwCE6dDpf1cfGJqG+ol3MdOXZCAgGWl1cgL78AsXGJOHg4ABFRZxF19hz2Hjgi+3FwwdDTYVi7YRvS0jPa1pLCw1UqGKBCodAD1HCV4qalqLgEPy1egeqqahw9FiyWmKUr1+J8bBzMTExp20oJBPjWux/LcNb6TdslGOBnXy+W40NCwxAZHQNjYyM88sDd+Gn5GhJGBRqRALEMZWdl0/kSsGjxKqSTePlm4U+S62rJirVyfElJCdas24Rdew5gx+5D8PH2wOLl60QQtRkksFSkHIVCoQ+o4SrFTUt+QSGsrSwxdfJ4jBg2GGXlbMmpwG23zsDoUUNhZ2uDMBIq3h4emDZ5Ah5/5D6Ym5v96nxvaGBIi7yVyMD3zb8dG7fsENHEmJiaooJEER+TmpqCuvp69OzeTb5ryMD+GD50EEYMH4aSsnJERsXA3sEB0TEJqKLjOZN526HsOAqFQj9Qw1WKmxZTE2PUVFfJ0FBmVh5MjI1FwFy40IC62jpUVVZK1vC09FSx8pwIPo2amhoSLSbic5OQ0jh8pWXQgH4y7BQeGSN2kL17D6BrFz908PFGYUmZOPS6ujjRFoPG7xGrKAfe46MN0LtHV0yeOAp33zkbLs68Xxuh+T0KhUKh66jhKsVNCwuJgpJKvPzaW6ioKJWknP369sZrb36Etz/8Cg4OdhhIwsXczAJ/+/fbOBUWASMjY/Tq2RVvvPsxiovyYGpqCjMzUxFIZmZmGD96uCTzZInQtWsXbN2+D8eDTsLRwR5xiSmwsDAXUcP7GhkZitixt7XDnFnTsXjZGny38Bfs3X9IZmy1GWq4SqFQ6AnNSNBZhedefq1dJuisrq5BcXGJ5pNCCzeqtna2MDUxuektcVcm6OQhKh4esrWlck/tuomJMfLzC1BX30AiyFH8Z3h6eGFRMezpGprQNayprUV5WQUsrTjBZ6Mlhq8rCx1+nNjJ2MrKUoanSkvLZNirprYODfTZWMSQqZRVI2MjGNJx1dXV8lt4CjuXXxdnZ/kdbUVjgs7z8PJ0Vwk6FQqFbqJJ0Kk3Iic1LR0nT4dT42LFzY5mrYJpaKiXRtW/b0/4+njf1EKnOVnIbzaUyFEoFDpPc0UO91JfePXf7UrksL/Ejl37YGZpDRcXV81axaWUl5ehprIco0YMlYSTNyssctjJl0WOpRI5V4WHynjWmI+XpwzhNQUlchQKRbtAI3Ka7JNjaNjkQ244PBOFZ7LY2dlp1lxO43CC5kM74M/+lvq6OtTUVMvQSFVVpYi8a2FmakZfbIja2ps7SJ2JsQnKK6qQmZWjWaO4Eh42Y8drcwtzzRqFQqHQTfRiuIpjmLBzp4OTK0xMTDVrG4mNjcXZmBh6ZwA3Vxd069pVpuq29JAN+20UFRbAwcERRsZX96eoI4FxJOCoBJ2zt7eDj7c3/Pw60Zbf/haexVNaWkI9aaff/NaU5CSJ5cLTj9dt2IwZt0y9pgWLf19JUQGGDvKHtbWVZu3NSXpGFs6ei4UFTwc3an+ivU25wGWvFh18veHr49XkTo2y5CgUinZBc4erKqiX9/wr7Wu46o9Ezq5du3DufByJmy6IjD4PF2d73DF3jlhCrG1sqBI3FifP4qJCmdJrRwKorq4eZSQw2L+noLAQzs7OMquGL1VBfh6sSCSYm1uivIwuIukPnnGWnZWFQ4cDMGvmNBI5Jo3ixNAA+Xm59D22tL8Fqqsq8fmXX8PNzRWWllY4ERSCqZMnYsqUydKYFBbkyXoTUzOEnT6FqLPnMe/22bC0sqTfUyozeUzNzGXoiX+fvZ09XnntDbz64jPw9fWV38b78PddiRI5l8MNOZeBBrqniouwIzRbRZvrpK5EjkKhaBc0V+RUVVXh2Zd0x5KzY+dOVFVWYdrUKUhMTMTuvfsw85ap+PCTr9DR1wczZ05HYOAJZGXz8IUB+vbtiXFjR2Phj7/AytISJSWl6NDBB7fdOpPWNUarraYG8onHH0ZwyEkEHg+GjbW1TEeOITF128yp2Lp9Nx575EGZhPvNdz/gnf/+Bza2diJyvvrmO4wZMxpDhwxBRPgZbNm2E/PvmIelK9bQ95lJT/qOebdh05btyM0rxKMP34vw8CiciYiSoaZnn3wMefmFOHw0EPfdMx+vv/U+Xn7ur9h/6DDyc/NEIE2dMgl9+vSWv1+LEjmK1kCJHIVC0S5ork8OayJdgnujMefOY8OmzTh0JAC9e/WkRt4GxkbGuGX6FBIoViIgHn3kAdy9YB6OHw9BaUkJTI2NMWf2rXjiL48gLS0DQcEhklPI08sb5mZmiIyIkHO7u7ni8ccewvjxY+Dl5YnBgwdjAr0/dfoMzsWcE7Fh+zu+Qh4e7vJ6hs5VXFxIx3vjgoGh5EgaOMAfvei3dvbrLNe8X++eMs05IjKSvlcO+xWePVVeXgk7e3sJPsdRfBUKhUKhuNlphsjRvNERWCB4k/iYMG4M7r5rPiZOnABTM1MYGBqiS5fOYplhscIxTjgHUWOANkOZgcQxTVgMsaYwpvUsbgb174O77pyDAf37y1RbTy8vODk5y5AVfxdfnmFDBiMjIwPhkdG49Zbpv71mtKKhrhYBAYEyjdnGxhpmpqYYPNAf98yfg769e8t5cKEBBQUFOBoYDHcPV1ha8FBVhZziUoyNTXAPCbRRI4chKzsLp8PCNFsUCoVCobh5abLI0ebt0RVYADg5O8HTk8WIE4kXs0a/AzNzCcbm26EDunfrglVr1mPbjt0kXvrB1s5ewvNv2body1asQoeOvhg6dLA4Cx86fBSr1m1CZVWlzNQxMSbBRJeEh4DYb+ZcTAwcnZ3h6GgPM3MzuLhddAhmMcUzoQ4cOoKPP/sCIafOYOKEcRg7ehTta4H9Bw9h7catKKHzONNvTU9LR0pyskzpPXMmgoSWEcIiYpCXlyfOzQYGhiJ8ODXB+o1bEB8XL2LL1VVNo1coFAqFohmzqyrx3Mv/0hmfnMICzuZ8AfYOjiIyGHY4TUtNRYcOHUUscMTZ5KQkmWnTwbcDna8Uq1atwfhxY8Ti4+PtI07KPIyVmZkhw0Kurm4ym4otLo4OTqhvqEdOThZM6fs5Fsvevfvh19kPY8fQOTTfy5c6PS0VdXW1JBaN5Dx2JKgYPnd6ejr9zsZz19fXISszEzb0vdX0e9mviB2gs7NzYGtrLdF0eUYVCyE3d3fU1dYgPSOD/n4TeHl5iZi7FOWTo2gNlE+OQqFoFzR/dlUlnn9Fd0ROcyguLiaRsg/jx48TYdEUOLnjtm07SfTUYdLECSRSfjvTqS1QIkfRGiiRo1Ao2gXNDwaoW8NVzYGDCt5xx7wmCxyGh5BmzZqJObNntxuBo1AoFArFzUiTRY7KQq5QKBQKhUIXaLLIUSgUCoVCodAF9Ga4iqMUV1dWoqqyQi1XWTgQITs8N05yVygUCoVC/9GP4Sr6STyBydTEEGYmBmq5ymJqbKARqPrvU6VoOzjnmqmJMQwNlJFYoVC0PXozhZzzU/Xt3QtmZn9+dlVLwglNOR5PQ/0F+m3NywfUEtTW1uEsXSO/Dj5qdpXihpGQmIQ5dz2GXZuWwVMT0VuhUChanebOrmqrRjonNw+5tGjJyMyW6ew3khVrNuPlV17DBx99jlNh4RKU72rwev59V2P3voM4dy4Oew8cRklpGVauXo+CwiKsWb9Nzv3eB58i9NQZiaGjUOg6XI45Ynhb1RMKhUJxKTozXPXlF9/gl+VrNZ+A//z3QwSf/G36gurqGiSnpJEIyhLrRWxcgmTzLiwqlgo4Ny8f0THnqceZIpmo0zOykJ2dK59zcvKQmJSCtPRMES4HDhzCs88+hbvvno+gkNP4/OsfxJLF54qNT5R9WWgdPR6CH35ehrLyCjn/udgEOleunKNf3z6wsbFCER3Dn08cD5JM7keOBuDVV1/EPfcsQMCJk/j+xyWoqa3V/BUKhUKhUCj+LM2w5GjetDb0xWamxpoPgLGZOa0z0ny6SE5eHr78bhGios/h4OEAbNi0TVIivPv+58jKzsPKtZtlaGvLjj0ICAzCxi07sGjxChwPCsb3i5ZIMs81G7aKOEJDDRwc7ODj5YHHHroXYWERiIyOwZr1W0kUJeNIwHHsO3AY58/FSobwgsJC7NhzEBkZmVi/eTsSSAQtWrwK8QlJv71wDXVwsLeFr7cnnnzsARw8EiiJQBUKhUKhULQM7W64iq0defkFSE/PFGsMZ+Rma0t1bYNmj0Y46N7v/RZfby+MGTUcS5avwby5t2HBnbcjNz8fsfHxsDAzxfSpEzHrlsk4feq0WF+mTBqLAf36wMXJQRJ59ujSCcnJqTC4xEmXk3faWJqRUMpFSGg4tm/bgYMHDyP45Gl4e3vA090djvb2qK2pw/Yd+5BEAicvL1+sM5yv6o/gc9taW0pqCIVCoVAoFC1Dk0VO/TUa7D8D+6rc8+CTGD9tHmYteAS33vkwZs1/hJaHsf9IIH5evALdeg6SJTDwOJ546nl5P3LMVAQFh8o5OPmmlaWFZBO3tXNABYkYFhnlpSUwN2Wn5Asy5FZVVQUjE2Pw6JsDiRPWS1YWFjIDiXNYsdhijcPHckqEzKwcJKRkwsXFBf79euHNN/6Fr7/8CK/97XlYmJvLDK/jIWEizN5+6x/o2rUrqqrr/nDKNg+f8blZ0OXkF5PIctJsUSgUCoVC8Wdpssi5UVNDucF/4ZXX0KmjD5b/9BXWLf3usmX8yMGYOWMqVq/8RRb/fn3wj1dfkPcLv/scvXv1kPMYGxvDwYFFiwEevv8O7D8UIMNPw4YORrduXUjYmGHfgSM4ciwII4YPg6szZyY3hbm5hSTH5ONsrK1JINnCp0MnnD4ThT37j+DHxavx2j9egH+fnrC0MEXAsRO0BCE6JpZ+sy9y8wthbHABnTt507lPoKamCrW11XR+Z1jT+exsbWBkaAhPLy+YkLjy9fVBaFgk9u4/jCUr1uKfLz8lWc4VCoVCoVC0DM2YQl6F515+rcWnkLNlZcCIW/DTtx+Q+BiiWXuR1//vv3Bxd8dzTz0un5988d9YMPc2jB8z9Ncp5D26dcWyZatRXlEOG1tbVk5IT8+QrOCenh6wsrREaWkpMjOzYWNjDVc3V5SUlMDaqnFKNf8Ga1pfybO2SOxUlJejvLxSrDssVBwc7cViU15RgcyMLBJGZnCjc3Dmb/4enppdXl4hQ1TOTo50vmqxEFlYWIKzilvR9+QXFIjliJOAlpaWi8WJM5w7kMBxdXPBtCmT5LwtjZpCrmgN4hMSMe/eJ7Bz41J4uLtp1ioUCkUr09ws5NyIv/Dqv1tc5LBw6D1kGratXog+fXpq1l7k36+/BWs7R/zjlWfk82NPvoT77r4T48eO+FXk9OrRHQlJyWKNYTFy6VARW1GuHGq73v208LYGulwMXzaGz6F9/2fgc7NFydfXGybGFx2sWwolchStgRI5CoWiXdBckXOjLDnXEjll5eW40HBBLDAMT+Nm3xsWBu05GGB7QYkcRWugRI5CoWgXNDcYYFvBQ0pagcPw8A4LHIVCoVAoFIqr0WSR0xJDMwqFQqFQKBQ3mqbPrmqnWcgVCoVCoVAoLkVZchQKhUKhUOglzRA5mjeKy+DggdXV1fLKiThLy8olj9al8Oe2FIl1tXUoLilVQlWhUCjaMVxH19TUqOWKhYPnNpUmz67iWDLPvtT6s6v+iEtnV5mamtCFqKdC0gADQ0MJDlgvF8bg16E2TsxpZGQkQfn4onHW5Fp6NaZ1vJ6jHPNsJI58zNO5WbjwZeJIyZzck+PtdOzgLfFxGs9XI2kc1q7fjPvuvQvTZ8zDuLHD4O7hKTNM7r3nTpkZtn7zDkyZOAbOTk6tPguM/55d+w7i6+8WY+yoEbj3rjnw9GiM8aNQtBRqdpVC8efILyjC9l17JbYapy9SXISjvnhSvTJyxFBph/+Q5k4hr6isxPMv/6vdipyi4hJs3roTXl7uSE/PxqyZUyRbeTUJkUED+iIlNR1FhUWoISE0bPAAES011TUSG8fWxhrjxozAieDTEqyPjxk5fDAdk4b4+ER08PVFYHAIOvr6oIS+5/5750vAv2279mHIQH+s27AZ9969AP/937tY+N0XcvzadZuQlVOAsaOH4eelKzFy2GDcdut0CQjYmrDIORN5FhXlZTgScAKxCSnw79sLk8aPRI9uXUh0tXwAQsXNhxI5CkXzqa9vwDcLf8bgIUNgaalCfVzJBWqnMzLS4exgi6FDBmrW/g7NnkLezkc6SkrLcfJUOHr26I66ulrs3r0fQSdPw8nRAbU1tYiIiMbAAf1gZ2eHA4cCEH32PDKzsqTBDwoKkdxTW3fshrOzo0RHXrFmK2JJQBUUFKJ79y7wcHNDxw6+IqxOhUUihL6LrUSXwlYbhnNaLbhzLk6dOgVbW1s8cM98dOrYAXYcjbkNYCvXwP798PLzf8WLzzwmAu31tz7CB59+jajomF8DHSoUCoWi9eHOvo2NjUTJZ/tDu1/439XW36CFTTnOLi5Ip3b6etG72VVm0pD3gY+XB/r36y1pFDgnlH/f3jIsxTmp3KmH2adHV+TlZKGmtg6jRw0X4WJkZICSklISLpEkdPbiXGwibCxNZMirb5+eIpTMzcyoAJrj9tm3Yv+ho9RzTcCo4YM13/5bWAyZm1uiR7fOGDViKMaOHiG/oy2oqqxCUMhJhJ46gzIScGNHDsYjDyzA0WMn8ORzf8c/X/8fvv9peYsuS1asw5nwyGaNpSoUCsXNBLtGWFpaaD7dONgikpaaiqioCOr8X+47eqGhHnt270bA0cMyPPR7ZGVmYNvWraitrtasaR04fya7pFwvTW5t2S+lXWNwAYnJqYg8ex7HgkLh4eWt8cm5IJaVvLxCsd4EnAiBp7cPiRYTbNm+TxJx1tVfgJOTE4mjXphz2y2YPmU8bp05XY7l/ySFA33KysqFr4+XZDYvLi4hEaWxzMiluYDikhJERceKeHjngy9w14Lb20zYXEplVTVWr92E7xf+LMt7H31Jyxck7Mrh5OyEWio4WVmZly2ZVJAb32ddXJehXXfFfpmXr+MlKioa/33vU2zcsqNRiSsUCoWiTSmjzveGTVvw3cJfkJSUqFkLZGdnIz09Hefj4pGekSX5GwsLCmR9bm4OSqltSyVxVFVZCTMzc7i5usHA0AB5ubkooP1SUpJlBOSG0kQ7S9N9cioq8fwr7dcnJy+/AMtXr0fXzn6SXPPWWyYhMjpGhmnY0Tgk9AxS6Sayvhs/ZjgWL18LDzdXGBubwMfHEyOGDsSp0xEklFLE6XjUyKHIycmViMsdO/ri7Lk4uuG5GDNqKNZv2ibK+647b0d+QSFiYs6jd++eWLt+Ezw8vVFVQeKBRNM4+h52aG5LJK0D/fZOGofpXfsO48DBI1SQMzFpwlhMGDsS3br6tbgYYyfuXXsPYunKdfjh609gY30NZzGFTqN8chSK5sPpivYeOIJu3ZvWBjaVs2fPIiDgGIkUFxTQd95/3z0kdpKxfuNmeHm443xsPHr17Iq+fXrj4KEAOFMnODU1XRJSc4e3d59e6N2zB/YfOIQFd87DmnXrwU7SnPbJwdEBs2+bBQuLG2ORYjeUxPg43Dl3lmbN79Bcn5x2HwyQfp63pztmTp+EexbMkaGqkcOHigmQG/cRwwZh7uyZuPP2mXKDq2vqZN2dc2fKsBOLkcGD/GmfGZg9azpcXZzRu1cPdOjgI6fnYScWOJu3bEfo6XBMHD9GLDw8lMUe3/Z2tnj0ofswY+p4zLt9Fm0f1eYCRws7V/NvfuSvL2HhoiXw79sTP3//Gf7yyH3o2aOr/E7+W1py4XN26+KH6qoquta1ml+iUCgUiraA7RqJiUlwcXHB0CGDkJGRhZLiYkRFRaG0pAxzb58NS+rUM9w5Zl/NWbNmoqy8DB4kgPqQ8OEOfVlZqUzQ4ZnM2Tl56N6jp0y8CQuPRklJsRx/Q2jigIDeDVc5OdiTaBksgkZrlbhUmHHDyxYa7ba775gFV1dn8bvhbQy/8mftPvz50m28vm/fPvj7S8+IULp0Pb9yw85LuxKE9FPS0tLx5feLMXSwPxZ+9QGJsXtha2tDf+uNFWHaa6dQKBSKtoUtIafPRODkqTB8vfAX1NRUIzYuHjXV1TA1M5H62kTTJrAl3tnRXqwytjY2YqVxd3OR9ZfW65YW5tSWWMPW3h4VFdXtyjWhGVnIK/FcO55CrrKQXx1W5OFRMXCwsxYna62Aaw3i4hPx6mtv4odvP6cHxk6ztvXgIl5WVi5DivxwKi7CQtyeKiY7ErstIUbVcFXz4JmOuXn59Jwqa+elcJnk2UZO1NDeDJ2l1hiuSktNwep1m7Dgjjmws7NHcEgwSkvL0NmvE1av3YDBA/vjXFwCenTtjE7UxseRALp97u345pvvMHz4MJgYGeJo4AlMGj8Wh48ew3333IWly1di/ITx6NG9O15/4208+9RjcHW9Mc9/U4er9C4YoBI5V0d8cuga+XXwgbV168ZfaGuRk5mVjcATJ2Uav5GRsZhXefyYX+lN4070GGjXXXw1oNfGHon2PQeY5JkJ17WNTm1A/2TbFeemN3Qk7cO7Nefcl2676rmJq2y78nj2KcvOycag/v3Qs0c3Wf9nUCKn6bCw4UChjVOHLZpXBnSw7F3z3LStgconO7R27NgBQwf5y3Z9pjVETmlJsUxCcXZ2ls5uBbW9HD/Njjo7PKmEMTU1lZnEpubmMivX0clJZlNZUxnlclVaWiICqaSkCC4kZnJzcmBrZydT39PT0uDqxoFmb0xbXEfPS2LCDRQ57d3xWImcq3Mzi5zjQaGoqq2Hg4OjZo3iSqIiz2D+3NtkmPfPoERO0zlw+BjVf9Xw8aX6V3FVgo4fw93z58mQiD7TWo7HukxTRU6Txyy0Ql2h0BVycvOuHQK8ifBzoF30AWtrG5SVV2g+KVqTwKAwePt4az61DH+2XHLsFJ4+zK/FRYVi8bteOCZWUROPuRZOzs4kBMs1nxQ3M41l+/oLeNMdM/SlVlfcNGiM4PL/liAvLw9Lli7HF199i6X0ejIkRPKXtTRsZM3OyqJGpkiz5sbBzucy3KBodYyMDWFo2HLO/xHhYdi5a/efEhmJiQlyjqSkJPz402KUlZZotlybvLxcfP3tDy1ebrXDWYqbm8ZicP1lockip6Fe9ytCzhD+3gef4c0338GKlevEz+iP4IdryfI1iEtI0qxR6BI8htyS8JAtx5TgfGWWVtbYtGU7YmPPI58qdw6KVVxcJGWmqLAQ8XGxEl2aHZ4LCvIlsBaPbWdnZ8k6XnKyMpGSnCy+GbW1NbKde8+ZGenYtXsvwsLCkJqaLI0HU5CfS8dnynuF4krycvOQwHXVJaKAyxmXzYz0NBE/tTXViI+PE/+MbCp/PATAZZanBKckJ4kjKltAeaJJalo66urrxOEzNSUZybSdZ+IwiYmJKCwskDLOFhz2x2AfmuTkVEl6rFC0NUZvEKgrA+orARM7kj1/nKiRH5Cde/ZjzKhhcHBouSSTXMF/88My3HMnT+lunJZ9vXAvOj+/QKZz8+9LSk5Bdk4ucvMK4OzkiELqUUgQv5w8cYbiLOTbdu3F7NkzUUcPP6c0ePC+BSgqKkZ8YhI1JvkwZacrExMJCpienonwyGh09usII0NDOn8qMjIy5dytOUvpzyCVHF0jB3s7cSprTQoKi7B3/2HcdustMtWwtWF/LRsbW+oxG2vW/DlKSkpwJiISY8eOgaenO9KoYnd3d5ccZZu27hRHPs4g/MOiJZJReCOJIG8PV4SGnsaOXXuoIUjHoSMBErogKioSGzdvl6ijPKWzU0dffPv9IkRSeeNpnJFRZ+l3G4lz5rYdezDAvy8++vQbGBkZomvXLppf9Ofhxo5TofzZAF6FdK/XbNiG++6aCxtr/fafaCkCjp9E1y6dNZ/+PEmJCfSsF2LwoIFSP7F4OX06DFu37cTZmPOSisbZyR7/+s+7dN+LsO/AYYlo60Fl9IdFvyA5JUOEDIfa8PH2wukz4RgyqD82bd4m9WBsbDxOnT6DPr174omnXkI6iXFObsyCnKO85+TkNAYZnTge1i1UBriD4OPtSc+xfpep6qpqRNAzb8YOv1WVarnaQsK7mOqrftfy3W2oIWFR3IzhqnYON+SLl61GZnYuFi1eicSkFKxZvxXnYxMQF5+APXsPoJp6Ifzwc6JMnm3Tq3cPET6btu2RaMZxick4cDiQhFEsfqZzsGCKPntOhMIeaqx5tk4UfU5OSdN8q+JmgjvIbP3bsn0nduzYJWKXnfA5pwo3CrfOuAWHDgegV4+uEhjSz9dbGgUDXICbmxsefOgBmcbP4ojXGxoZUaVmJRny2QeC86/NIQE+YuQISR8yaNAADBkyhNYb43RYGEpKizF86O/nS1MoLoVFjpGhAVxdHOHi7CAR3LljaGFugjFjRmHSpAkSqr+Q6k4L6tzdc9c8+Pfrc1nCXp7ezsO0d91xO+bdfpv43HBYBmNTc+nw9ujelerIGCr7UzBt6kSJE6ZoHrbWVvD1clXL7yzeHi6wakJ+r6YPV1FD357hB9rTwx2jhg/ByGEDsX79RuQVFGLKpLGSHJOdK8vKyyXn1JkI6pXExUtGcs4+HhsbSz2Vs4iOPo+o6LMICj4FH083TBg3Cm6uruCpjZzf6njwafSnHrUPNUAKXaBlh6vYLc3SwgLz5tyKBx+8H/Pnz4ejE0/H5IbEGea0zUjjY9HQUI+aWupR8EEkgkpLKuRtHa3jNCMNFwzQs1sXLJg3Cy89+ziJHQuJzs0zwViI19PxnNWe13t5euLAoaPoR6Kcv0+h+CMaGupQX1eD8rISHD8RLNFqe3CYgAsNYhnkJIfOTk4wNTFtFDRULqtJ/HDAV7YoXApbsOup7qupraV9G6d8c/nk2Xie7h4wMTaV99yB5Jmc9CWNByqaBF81jp7fmTpNarn64tepQ5OsxE0WOWwmb89wA2JKPWFucKytLGFtayc+GTyMxWPGLNL4AfXydMcdt9+Kp/7yEAmcfJw7Hwtzc3OMHzsCt982HQvumC3HV1XXyFAaP7zMlImjMfvWqWLh2bf/iKxT/DHcaKfSNWY/gLbgQgtXuDzsxUO1lpbWVGZI0FCvlcudpaUlrDS5uWbPugUZWdlYvGQ5lZ0aTBw/VspdSUkhVq1ag1IS2l26dMWtt0xBSmoalq1cixPBofJ8OdjbyytbGR0dnXDkaABqqqvQs2d3FBYWYuyYkfIdLYlqkvQHKysrFFA5WfjTEnz/42Ls2XcAHp4eiKAOXFxcggzFc/JFXx9PVFZVSaJFRwcHCd7m5OiIDRs2Ij4hSVLimJiaSqPr4e4u6W02b9mGzZu30fueEi3d282RzmcKc3rGhw8dJGIqKChYYrDc6EjqipaBDQN1Gid1HrVgn0N22eBE1jw0ya4gvI+uoncRjznOAEdhnEu97GOBQdK7SE5JJ7FSBUNqZLgBGTK4P7785gdMnDCG9i/D2XPn8cQj92HfoePU86mW1BAeHh60rw2+/PZnDB8yAEEnT+NJEkRpaRnyfalpWejdsyuJopZvcG4EbRknh83j0+c9hK1rfoKXR+vHTtm8bQ9V8l5SubcE7IDJ2Xg5eNals2JkBgqVMZ6OzbDzMGfk5YjCHCRr67ZtJHwKSFzPFD8bttaw8GFn5Fo6pyNbb0gwsX+MjWYotbKyQgJvcU/5wMGDyM3NwyMPP9Rif4uW9LRkSU7Ljd2fQcXJaTrvfvItZkyf2mINSWVFudRRpLsFthiaU/krKiqS+q+Kh+up3LHAcaD7zR3ACjrG3t5RHIj5PQcm5IaPO37sjMyJhnnSSU5ujpzXydmFxJEZPdvZUr5NTc1IzFdRg5hHnUNr6RSyQG8pP7i42HMYOWyQWOn1GW6/wsMjMW7sKPnM1jZuG9nnieuKxnWNDt2ceojhup23Nc6QvIAKaqO5KHEnnY/njj13/Hk/tr7xUCXvy9ssLMxlKDIlJQ29e/fAtwuXYvyYYTh5MhRVNfXw8nRDGX2/na09Zs2YLMe3NWx0OBJwApOo/f5D9DUYIFtwOEQ6N+QsyPimXKDHkh9w/lP5IeeHnpUq98A5aSVnGOf9uXCw4yQ7HPNDzoEFc3Ly6LgGGMs6aylgpSWlMKDGzdnJQc6hC9zMImfTtt3w9PRucWHQFDhya1BwMAryCzHz1hmatdcPh2I/cOgYiepREjROU9+1GErktB0tLXL0kZtR5LC1bduOXdSO1VCnxwYP3nsnTp4Kx4aNm9Gla2fMvW2mWF62bN8tVuSH7luAqOgYbNu5ByVl1Zg9c5LEF+Lkm+PGjMSx48HyTPLEAAtq2/Koc8WpGQyNDLBx807qxD+I5au3YcbU0Qg4GoApUyaJxY5F7kv//C9eevYx+PftrfmlbUdTRU6TZVm7Sjp5Fdhyw2KElS3feO6JWJibyc3lB4SVKytgd/rs4uIMdzfXXxt99rPw8vSQ9eZ0DJ/Dzc1F9mXnUjNTUwkqx5/dXJ11RuDc7LT0FPLmwBaaESNGNEvgMN4+vnjg/rvh26HlBQ6jmleFon3Bs4j8+/bB/DvY0bsIsfGJ+OSzr/C/N/+NAf7+yM0vwMIfl+HhB+7BxPGjERUTi+PBpzBvzm344H+vYdfeQ0hLz0QxdcqZEnrlCROp6Tno17cXnnvyMSxbupw6nu6YMHYkOnfqIPtpYT8stvg4Uds3duRgnAkL12zRLZosclRvQ6FrtLRPjj7SvrsuCsXNBbez2bn5OHT0BA4fDUROTr7ELXJwdJKhp4H9+8iUehgaSCe+V49utK4veCjdzs5aRiGMDS6I1UN7Ph4t4ZELCzMT+Ph4ikGARyauVT/yOcIiY9Cjp26mmmiGyNG8USh0hPZgyWnvqMdaoWhfsKjh2Gy+Pt4SjJF9oNjv7zAJn3UbtoofDftGsfVm2cqNElOLXS/CzkSRODoOU3MLcU8IjzqP1LQMHD4cQMeXAXXVqKm+GKGd4yHl5OWjSGPx0VJQVIyYc3H45rtF4hPk31c3RY7KQn6TcDP75KzbuE2chI2N/1zySX2GoylPGj9K+eS0AW+9/yXGjhqqOpB/AAcnnDpp3E3jk8MzKNPSM7Bj9364u7pIuBL2h/X28sCmrbvg19EXY0YNF+fxjZt3iNvF1MnjUFRcgq3bd6O+4QJmzZgis0BPBIUi+lwsevfshq6d/SS+Wwc6H2cNDzwRLHGOQk+dEYHEwXG96LnlobCwMxHi2tGR2ozBA/uLLysHkm1r5+Ob3vFYiZyrczOKHJ5VEHIyDKkZGejft7eYeRVXhzPF9/fvo0ROG/DOR1/j/rvmKFeAP4DLJwccvFlEzoD+/fDLkuUkKIwarayassHxjdi/j8sKvzcwMIQBT67hvHOaffgzw9t5jexjwJvpGFrYrt24nt7RcqG+XibSNB7fOHil3cbI99ArhwyYNnWS+KS2JUrkKJFzVW5GkcPxaabddh/mz70Fjzx4jziTK67OSerJcY+NHez/DErkNB2eXfXPl57UfFJcjcjoGBLg9jeNyBkzegQqK/84p2Jrw8KHh8zaOlbeTT+7SqHQwvo9N79InOtag6zsHJlueSWpqekyrp2QmIRnXvgH5t5xL/737seIjjmv2aPt4ZAKn3zxvUT5vpL8gkKcj42T66loOpxLj1N2tBVc/rft2I309AwEnzyNOXc+jAcf/is2bN6BArq3ivYHDwlZWVm2q4WDurb3YMBXo8m/mEN+t2c4PDk/1I3hyS+moOBePcfNkYYvrxD3P/osXn71Nbz19sdYtHiFbNPuxwsj2Xpr6+SVj+NzclhzLfw97KPE23jhfRuXi/so2g+ctDAgMJh6AcdxPOik5CtLSEyWSMOcnDWR3u8/FCBOe5yXh531TodF4OixYERExcj95gbr4OFjCDweIulBOJDWMXrP6UAWL12F3fsO42RomJQHDrrFFsaSsjJEx6ZK/CYOvrZ86SLcd898bN+5j/Y/pPl1bYuZuRksLczw6Vff4cVXX8cBug4sbhhOyvjNtz+2+2e/vbJsxVrs2LlH8+n34esbcz5ern3giZPiX7GHygeXJb4HKWnpUoY4GnHA8WApc8doP/bd4LouNi5RyjcLGbYCsPUjJPSMCKzsrGyp4zh7+Oxbp+DrLz+GvZ0d3vvoS4nHolDoK00WOZphunYLB/P7hRqbJcvX4f1PvpNK4eCRE1R5L8LCn1ciKOQUiZY6+Pp44N2338ArLz1FjV6wJNzk6Xo/LV6JH5esQcipcBkH/uLrhVi/eSedIxBLlq6hCms99cBjpQf0yVc/4uuFS7GNGituFFeu2YilVKF99f1inItN0PwiBYeGtzQ3l2i9bQknxPzw068kXsT6TdsRQQ0H31duKCqpnPz40xKJ1BpCImXjlh3UWJyi7ceoAakTB0AOi//Oh1+SeKlG6OkwsXrExSdj1bqtInaLyyqkB7Zhy06ZGcHRsflc9fUXxbaxQYPEauKhoTvmzsKPixa3C1Fsa2ODJx9/CP/7zz/Qt3cPLF+1Dv/530dYtWaDRG3m5KOK5sHxRsTH4RpwKoZvvv9FxDSLk2Cqq35esloSAu87cBQbqcxy3BMeWly+eiOJ7QCk0+dVazejpLRMyix3wk6fiZKs/zt3H8T+gwFyvl8rbnrhqcM8ZD1x/Ch079ZFBLxCoa80Q+S0b5VTXl6BxOQ0zJg2AQ0kZnbuPYSDRwMwZ9ZUTBw7QhqmcuqBV1VWU0+pFGciziKdKhGeeXMqLBzTp07AqGEDEB0VLT2k/UeCMXnCaOzccxj9+vXC5IljYG9vi8XL16BXt864Z/5sLPp5OfXoC0jYJGH4sEEYMrAvDh06cpkl6WZGKtQxw/DOB5+RANhFvdVYxMYn3PDlfFw8VegXyyv3iN3cPTFj+mT06NxBkrJyNtvxY0bINhZjUyaOxX0L5mIT/U4O/jhk8ACMHjkcnXy9RBTFnIulxmM/NSSR9HfEUbkxxGD/nhgyqD883d3g19EHwwb7SyOTkZ0r4fDNza/uJ8bBJ1Ff2+azFRj++3maKk9XvZv+/v+S2Bk1fDB+Xroa7370NUrKq0TcsXXqjxa2RhgbGYpF82rbb8aFk7Syhflq21jgGho0WsiSk1PRq2cXTJ08HmPHDEdMzHnMvGUSNm3bC05KyMlaC4qK4OLsiJrKKtw2czomUd2UQ3UP12l79h7Elq07cSY8XKw+FaXFuOuOWejUsQPfYPmOK+Fca0q/KvQZvXM8zsvPx2562O+/Zz4OkNA4xT1pA2M889eHSPTUy/Q7TiT37kefU+M1ggSLDTVKAyWy40effQsnRzs6o4FMyfP18cKxwJN46z9/k3gBq9ZulDwt06eMx/sffIq33vy3BGR68rm/4bGH78WJ40F48IF7kJmdJ4nq7rv7jnbRgDFt6XjMcMqMhYuWiZAsLi2XRvVGw3o8g3q6nCvq+af/gti4BLz78df49vN3sOinpejbt7f0gLt37QIvuo/vvPcJ/vm3FxBJPdttO/diBAlWYyMjTBg/GmvXbYaDgx31oDfj2y/ek96xhbk54khMcWN0z9134rsfl0jYcw7K9eDjL5CYmohJdGxlVSU+/3oxnnr8HqxavQ7/eu1VSQ2ycfN2GJma4ZH7F2h+cdvBlqqff1lODW2yfGaBXlFzATbWFjA1MUZVTR0M6i/G1vg9jEwtSSzVgmOBy/AWt6ANddSdMqbXWno14eka/IgRtO0CWxku3VbfeAwj+9GZft2m2Zfnf1y5TfsdvJ656vdqz01fLu/5ePqbDEmEXtf30noutk39m0jEsCtjQx19vgom5tY4dmCzDEMtXbkBr77wVwSeCJHEiFz2/vmfD/CXh+9C5Nlz8jWDBvTDkuWr8O9/vkpf2UB12Vd49fkn8NV3i/DsU49T2awnAW2Oz7/4Bk/85RER2kuWrZTQ/lkkvNlCfecds5Gbm49flq2memoeuvh10vya9snN5niszV31e7A45meUHYF/DxbRbJRgy92V8LHatonrYq6OdcXftqmOx00WOe09QSeLnF17DuCBe+dj/8EjtK2SevVJEgOEa6gz4VGYMmkcFlIj99//+7vEAWB4COPbH5eK1cbBzlbMvnyu/XsP/H97ZwEe9bG18Rfi7glxEhI0ENzdnRYKNW793spX11uX25a60BYp7u6U4p4EEoIEDYS4u7t8c052aUopkBRJNufHs8/u32aX7Ox/3pk5c168//5/OW7Dq7kHgo6G8vRDZlY2Tzt09m/H89rU8922bfsVkXM4MAiPPny/iJwaUFXLyy/gKaE7IXLoRz564uN46pH78J8nH0FCUhK+/HYmRg0fgJjYODx0/ySuN+5urvD0cMPaDdvUd1uGlLR0FidR0bFISkqGkxK8FONAP6r1m36HlaU53zh6du+sRH8xEhIS+KYUePQYNxw0GrRkxVr+MT7z70fZX+a3bbswYtggbFI97c6qkUpMSkFxSRkmKwFGAX13G4rjsLK0ADlY0+fdf5DilkLYoM/K0hJpKSl4+7+v3bA+x8Un4P9eeQdzZ3wLRwd7zd7Gzew5C2Cp/oYPqvp2LeYuWoGP3nmVfxfLV2+GpYUJcnLyOA+Kp4crZs5ZjDEjh/C9as2G3/D0k1Oxaet2TBg7SomcKqxUAvyRh+7Dlt/38CgaTa92Vx23gwcDMWrkUPbh2713Pzr4tWXhdCQkVHXg3FXdv6yEflv0V+9T3wNKReT8mbPnwpGdk4M+vbpr9vwVGs0zNDBUHXYHzZ5q6L60e89+Xg5Ov2eK2aIp6bZtWtX7mRritouc+p4MkD7fRdVjp940TVlQ8qLy8kqEnjhFrSy6dekER0d7HFENEv2RtP5T9GeIUGIo5PhJTXbHdhy7Q0PIlJgp/FKE6rFHcEeOelKWqqHbsy8AuapytGvbCu1at+SMk5RrJCc3H3Fx8dyY1ZdKUx9Ezp2G4rG69B2Hpx+fjCn33YP5i5bh2Ikz8GhmzyN31PBQw0KvyfGbRBH5vNDIBeWESFZip4nqkTdRvXyqEyRq6e9INxcDfQNYWVmw4KXAdOpR0ehOoarHlrb2CD2pbsqWRjzNRfWIPouxOievoADk5kzvSd5q1HANVzebnj26aj713SH0RBhsbW1wKDAEW3/bqYSdnWpER6CTf3uEnT6LLZu34euvPr1hYyhLyP/KtC+/57/t0/9+TLPnz9AS8qcfewBr121CrBLfVL+oPlmam6OJ6l0XFBTxlCflO6FpKXO1n0ZGKc6NRo9odJ3EKbmL5+Xlq3pmyOdQh5RGG6kMqn8kzKmuUvwg3ZboPahOW1vb4N9KjPP0aT2lMYocGpGLVe0Idcg6tKccVlb8XZ87H87J+irU/aZf396qw5TE37Wbqwt//7SgonUrH56Opzw7VGfIYJpWUPq1ba3aukr877Ov8Okn73P7R7/9pORkNuukUAIa5aHRbVpRRQszKCasVcsWqrNjhWTV2aHPYG9v94/TTdSV2y5yJE9Ow6Sxi5wnHnuIA4GPhJzCiKH9NWdcH6pTlAXU1dVZs+fG0A3iwMGA6nTsHu6avdeHvg+Lu/yd0HTVijUbVE8/F08/+TCGDel/pdE7eCgQ27fvwqf/e/+GIzkicv7K19/8CBvVIDz1+L80e/4MiZw3X/oPN3D0O73T0HdKcT71ZdT5WjRGkXPq1GkEHAnhUbktv+/CS889hXc+nIae3TrhUmQM/Nq0RJs2rfD1d79g4j2jsWjZOkwYMwzRsQnsWH7h4kXVyTfC7n0H4OnhgarKKtjZ2ahzhl8lck4r8ZKMQiWmL1+OhJ/q4NN9j8I15ixajqED+mL2/BX48n9vYe7CFdBrUoX/e/YpODn+eYToTlFbkVPrWt0QhrME4Wr09fQ5Y+qjD09Sja/jTT0G9OuFrl38r3ns7x6uLs3w0AOT0KN7l2sev9bjbgscgpz7H55yL5bOn84jODV79X1698CHH7xdrxvB+sxLLz6HRx6+ftwVNTbUM75W/bjdDydHe/lu6yEOSkR4eTVnDykDfT0WehR8/tgjD/KiAMrgTjGD3dU9asLYkcjNzsQDk+9BK5/muBRxGeTZx9+r6ng9NGUiBvbvhejIaC6bRvS0KSFINFSUV8DNzQXlVdUzGxSaQWkLDFT5eYVFaO7pxosurK0s8Pxz/75rAqcuSM0WdBaaWhnUpxMsrSw1e2on0huToCdRQz1G6i1fDTXAMkJad6gxomlzQbhZaIIl+NhJpKSkooWXJ3LzC3hqnNMBKJRuUeInj+9RZiaUhVhPNeYVPP3YVJ+mK//oONFUJgUVs1FxVQVfU66uz8mtTlxKgojKdnJywMP334PS0nLsPRAAczNTGBsZK9HkzT5YPi28YKr20Xs1JGotcmg4XhAaAhSD8POPX8K7nq8cqTfIIK0g1BtMVMcj+NgpvPvR1xzHR0kbKY5q4gNPYfmqdZxk9Jo00WNRTULpWu01leHq5obHn34V96qy9h4MwID+vThB6oefTMP2bb/DUokk8s8Kv3QJs2b+ii+mfaUEjjmLIVVsg6IOq6uK8eJr4kLe0GiMMTlaDgYGo3tnf/Guug4UfOjV3B1i0HnnEe+qG9MYY3KoaaaVjhbm5rxAoay8jBcvkE0MpQWgkWoDQwMe3aGRWEpA6mBvx5n5abSGl4mrZ1rFaWFuylNUFJxO5dHr5ORUlJSV8upSA80qYwpOplhGZ2cnHrGhQOas7Gz+u9PUF7X/PFp0F6c3b3tMjiAIgiAItxcSKpSvjVY5UeedgoFJ7Hh5efLqXtpvaGBwJX6OUjbQNSSEKJEprayjURtKeUGihEa2SeAQJGBoQYV3c88rAoegVVMUm6OdkqJYPUoQSu9LZdB73k2BUxdq/WlJXQqCIAi3H+qVJ6ket/ZBPX0JGRCEm6fWIqehuZBTzgDylqIkdNeD8qXQUJ6gu5RXVIBsP3JycvmZqFANBuXGoX00hEtDodpzKOcNDc+SHxodI4FPppzpGZmqvtw4+68g1BbK1UTGqDRNQGKGTDeffPoVzJ27AHPmLMChw0FcP2lKgc6j+xZfp+otmczStD/VU6qflA+HkpaSUKLyrtR5VZdpPz3otSDoMjo3kkN5fChtOTn0RkRG8TzmmfMXOakSWQrQD5+gBEdknkj+VMS6jduw/2AgN3KUAImOaV2YBd0gNTUNv8xegP2HArF4xZrqxFrnwrF3/yHs2nuAs1pTQsh5S1ZwXVi9bjPv37XvILuRx8TGY+GSVThyNBTbd+5RDU2xpmRB+OeQYFmxprrOrVq3BZcjYzTJIgfh/ffewgfvv4Wxo4cjSNXTjVu343DgUc5yTOKFTDopkzFl5KZ7HN2/Vqh95Lg/e95SrvPL12zg5KVHQ05wVvgDB4OwfVe1y7kg6Cp1EDmaF/UUslT46LNvlaiJw6df/szO0YUF+TgUcEQ1chnYpn7cCYkp+Ojz6UhMTMYPv8yv7u2UFPNcY/ily+qmsAxxCUn49sdZV5bsCQ2fIiVKoqJj0L9vT6SkZuL02XOcI4TMD22srbBxyw4WtjFRcejTuzvyCorhYG+Pjh38cOr0WXajJ/8qZ2dHHDsuIli4tZDD+DnVIRs5bDDcXZupOnaCBQjVvQWLV2L+4hUIOnIMUaoT1szRgbO3R8fEcx6VLp3ac/zG+fPh3IFLSUuDmakxBg/oi8CAIPh3aIcE1dGLjo5VHcCzsLayhJt6j4PqGN3/BEFX0bnpqir1z8PNBcMGD8RjD09UP/AjKK+oxD3jRsGvbUtkZWTgxKkwtPR2xYRxI9GujQ/WrP8NzT09OMHRoqVrMXniaEwcPwoZ6Zk8Dy7oDi4uzuzFZGZmwkP15FK/cvV6FrUJ6kGrEWwtTVUjYMUNjaODHQfrkdilqarTZy9h6/ZDsLCwAllBCMKtgqabWvp4sgBxVIIlLZVsRajONlOiuxv69uoOHx8vWFtbstcaeZ5RgChNqZKJ5+69AUhLz+CVlJTjxM3Vme1JvL2bs0M+BaGS0I+LT8SBgFBs2xUAL3d3VUatmwFBaDDo3HSVkYE+7DSeGhSPQ54d5FFEw74ENWLUYOnrG/D/pUkTPeihHJVVlTwHbmKkz/vptYG6KTS0SHLh+mgluolR9eoDGurv2qULrCzMUdXUgHNPNCF3aQX5vtBqBX6tGhO/Nq3gYG+DIQO6oXtXf26MBOFW0dzTHRfCI7D/UBACAoPRtl1rtbcJ7G3tlPhpgZa+LXgFTU52Nk+rU80kgUJ1WF/dpvz92ylB5IKjwaE84q6tu1oRQ/c6G2trtGrpA3+/lhgxpA98fL1Z9AsNCxqti42N12xdG8qrQ6L3aqhzd+RIMPs3kvM91SVdpg4iR/OiHkN5BJatXIcNW7ajX99evJyOfvDU6zEyNmLTwYuXYzBj9gKespg0cYI63pSdmO+9dxxWrdvMsRs21hbipKxDONrbY/yYESxchw7uz6N3Y0cNhb2dDdq1bY03Xv43e06NGz9aiZqmqp60g4P6/knMDOjXGyOHD0SPrp3YHLGZ6hkbKEEtCLcKMvF84tGHOPi4Y4e26Nmt2hpk5NABmjOqGTiwH486U7K44UP6KwHkhTdeeYaNOR+cMoFT8rdt3ZJFEXHvhLFc58eOGc7lDRsyQNVfR3Uvr+RsuloxJNQ/qMN9dcgEiZRkJXLOnDvPnXHa1q64o/O1AxFGRtW2D9pj2meqX7PmLGSBc+JkGH6aufBKrGrNsgh6fb3thoDOuZBTnERA4BF2dba0sODhWlpZQAnw6L9aWFQMM1MT/qJpKsre3panI2iIN1edR7EZFJxHQ8euLs4605BJMkBJBng9JBng3UOSAd6YxpgMkGKlKJQiOzsT3t4tcO+44QgJPYVNm7fC3NIa7Vr7oEP7dli5Zj3nwLG3tUUFmiA7KxdPPzUVZ8+e5xHoSCVmClW7fTkqBg/cdy98vD3w9nuf4IvPP4aJuicuXLoKbVq2QElZhWo7j4JMPR+Ycg/MTIyxfPV65Obmq05hP/W3d+bFGFDi2NXdA5PvGaX51HeW254MUGvqVV8hUWJuYc5fiJXqgVMvhYQO9WRoJIfMEOm1sbEx93i0yZHoOjtba3WsCffcaehYeuqCIAjC3SBbiRwfb3eMGD4UZ8+d50Ux3/88G6+9/H+qA+7EHdf8gkLk5BbjofvvU2JnA7qpzpy1lbk6/wKLJEqdEhQcgq5dOmL08MEIDAyqLluJqYjLkTh+8jQvwnB1deVYrZHqHDNzExZIFAiflZ2Pe8aPAvlZJaek8GrlMaOHw8PNqcEsytG5gBNS+wP69pZgOkEQBKFBQrMOaZlZiIyO5VQXVVUVSEpKhqO9LU+hOzvYobKygqejWni6qE69Eh2lxWjXphVMTUyRl5enKQmq824LL08PjsfKyszkfeQ6TuXSROXke8fAysqCVyQnqPcoLq7O1eTt7alEUwcEHQ1FdGwCT+V37NAOgUdCOPUG5RhrCNRaCdT31VU0WkOrDgRBEAShoZKYkAgPN1fY21kjLT2T2zXym4qNS0BMQjISU9L5POrP1wwyb6Jv8Jdgcm2cjhZanNPerx06+reHt5cHsrNzEaOEzMC+vTgJKo0QXbwUCTc3Zwwb1A/7Dx5CvHpP8sa6d/xohJ25gPy8vzEIrWfo3HSVIAiCIDRkSLR09PdDUnIygo6EYOqD96m9enjqiUexdMV62NpYoXvXjrC1tUaHDu35/CmTJ7KYadeqOYsRWljh7urMU1W0+IbO7dmzO680HjCgDwz0lSDSjFm4ujTD4AH9sWL1evTp2Q3WVhY8AnQs9CR+274L/3rwfh5FOnP2PFauXofRwwdxoHxDoA4u5EV48bV3xYW8gSGBxxJ4fD0k8PjuIYHHN6YxBh4T2hEYEjH0Wvus5er91ztOXH1uTWpeR9Qsq+b1xNXX3klue+Dx3fzPCYIgCEJjgdpbbZtb8/nv9mufr3WcuNY+LdprtI+a+7Rcvd0Q0PnpKlrTn56ewev/rwcp1KuVrKBbVKrvl/yrrv6ea373NY/RS6kTwp2mZn2kFS8///Irp7cgyBx28dJVyMjMvHLe1XW05rb29dXPWmj76n3C3YMzWIv573WhWYkbtec1qcNIjuZFPYV+sPQHoOVtJHDIgXfpqg0cWFVzyRudR8Ne2h84BXNRhkiCriNXXzpGrysqqqPIaZvK0CZM0l4rNAzIx+zL735mI04y2yRI9MTExuHEqdM4GnIcu/YeQmZWDtcN8gyiYdGTYef4+xaE2wndTy5GRGLH7v0ICDqK/Px85BcWIvDYKcSqOkpERsUiSNVTchmnKRwyHd6z/zBnwKV7ExkTBx0NUfX5LLvu00qYsDPn2NSTfKsCjwTj9NkLfA+Li0/AwUOBCAwKZmsI4e5jZmrK959odX8iCw66D8njjwdl9ybjbUrxcrPoXDLA7JxcbNi0lbOBJqdm4snHHsCcBcvg0swB+nr6aO/XFm1a+bDZYkpKCuxs7TD1wYn45PNv4Obmikn3VGc8Li4qVOf5opU695Rq5MaNHsYR7gcPHQal+6ccBIMG9Lmlf4PbicTk+OPs+XCsWrMRw4cOYFH7+CMPYu+BAFQpAbN09UZMuXeM6iFnq95yHsaO7I/ftu/B0EH9sGLtFjzz5ENwV/VDV5GYnLuHNiaHRmfIVPj+SWNYiPiQ55SLM6bPWIB7xg7lLN0LlqxBXl4OHph8D5avXA9ra2teHbN9xy688uJzCA49idYtfdihvE/Prvh59gJ07eKv7ln6LHJGjxyC4+q7pgzeX3z3E154+nGcPncRTg52nAm5vtJYYnIIaltilQDNVW2ZdKSvpgkcHe3UvcoTxkY3iLHUxOTUWuSQknr5jffqrciJiU/Cp1/8gGkfv4UNm3+DlYUZzoVHYvyY4fwjORxwBO3bt8XSZavx8Qdv4/vpM3DPBNW4ZWTC3t5ONYQXUaF6RGNGDsW7H36Kt998DSvXbsaz//4Xm3f6+nhg177DeOTByWz4qfXEqu+IyPFHQlISlq/agDdefg6vvPU/fP3522p7kxIyvfHeJ99g9k9fci6K6bOWYnD/rtj6+254qx/TJdVwP3z/JE6hr6uIyLl7aEXOybAzOBRwFC88+ySPLAYeCWVh89uO/XwfmzB2GJauWKs6Yy7o17sHVq3dhF49urEFxMTJD2PJorkIPX4Kx9QjIysHY0eNwLKVq/D26y/iYvhF9mW7Z/wYbNiwBSamJvhx5nwMGdiP/Y3IAuDzj9/VfKL6R2MSOcItoq6Bx/XdsNJQXw/t27bgJXTt27VBamo6zC0slDjxZjuHyooK7sW3a98eNjZWSlC1xYEDh9mws2mTpjgRegKdO3VgwWNqYYOiokLY21hwauzwixfhp8pspo61UL2nhiJwhGqo7hYXFanvTQ/DBvVUDcY6mJnQ0kpbno6injTFPhjoNeUs2X5tW+PxRx/gRqdHt46aUgTh9mBqYoLUtCxewZqWlgFLJWwImsKwsTbH+o1b0dLXF4aaTOxUZ83NqnOCUYf/xMkzCDsbjkem3g8HO2u1s9p40VCz4pRGt4km6ndgqsqsqKjClPvG49+PT8V/nniEjwmCrlG/FUsdoGSFqelZ6iaRzurfwdGJG7WauLk648L5C+qGko6zZy+ge9fOHIOTl1+oBI4/jgQfR3JKKnKzs7jn4OHhoXr1u9CtSwfVo7KAoaF+vRd7wl8hU0N9fUPu7Q4Z1B/btu/h6Uuy73B3a4bdew9im/qex48ZzAK5iapLv+/YjbDTFzjPhCDcTjzc3eDk5IR5C5fj5KnT6NrZX9U7Azg5WKvXHXEh/BJ69+zMVjR0TyPzYLKnodUu3t5esLO1UgK9CbZs2cZT7zS9bmtjCwPVGbO0soQ5Wdioc62srXjq9cHJ92DTlp04GBAkFjaC7kLTVVVFSVVVOWeqqspyefN65OcXVD317CtVlyOjNHtuDfkFBVWebftWnT59TrPn5snNy6sKCT1RVVxcUhWfmFT18WffVr30xgdVb3/wRVVubl7V6rWbqnJycqsyMjKrdu7ez++1YMmqqkeeerFq+i+/VqkeUdUp9b4fT5telZGZVfXZF99VPfafl6u279zL5UfHJlT978ufqjKzsqsKC4uqftu2Q71XMR9rKJSWllWdOnO+Ki8vX7On8XAg4GhVUVH191VWVl5VobqwkVHRVZMfeIxfU3145c33qrJVHaG/E9UHory8vEqJX37WdY4dP6XqfqZmq+5EXI6s8u85rCoxKVmzR7gRn387Q/Oqiusj1cEyVe+oHtKD9hG0j6BtqqLVz9V1VXs+PdODjlG91e6vqPijHO11tK/me9VnTp89X5Wg7u2CcNOQnlG6Ruemq6hX066NL7774kN8/vFbsLAwx+RJ43n6gTI0UnAdDf8+NnUKFs35ES8892++poNfG3zw3xd43vedt17BgtnfY8SwQVymp7sL3nvzeXYoNzExxuhRw2F0o6AnoV5CPeBzFyKwas0mTP/hC67Pek310LqVL4/WUI9WmweClnNSL5ieBeFOQPWR6iBNhVM9pIf2nqudHqdtqqLVz9V1VXs+PdOD67Wqt9r9NMKtLUd7He2r+V6CoIvUQbHU72hvSwsLnoKgKGxBuBYUMP7fN15EM6fqwFjKhPzkow9LRmRBEAQdo9Yip76vaDM3M0VL3xbcSxGEm0VGawRBEHSPWoscEQ+CIAiCIDQE6jCSI8mJBEEQBEGo/+jcdJUgCIIgCAIh01VCo4ES/ZG1Q12orKz2MSMoM62MaAp3goqKChQWFmm2BEGoLbUWOXSzF6rJyy/A9p17sW7dJqxbv4nN7sTorv6Slp6OdRu2slgpLi5hd3oyNdRCpoeUFJIgEUMWJiUlJbwdGRXN6fLL1PnxcdXmnqWlZcjMzOJnIp/PL1XPBSKChDpBdTMrO4eFDdWhixFRmDVvieZo9XGqY8WqXmqdyYkyVW9pW3t/pvsQPagcuoZsc7Qineow+SOR1Ysg6Dq1Fjn1Hfrhpmdk8o2CoKzG0bFxfBOgmwYJE3KgLtSIEfZ0Cr/I59FNIFtdl5WVwxmPyeyToAaRGjM6npCYhPj4RO5h0Y3iWOhJ9oEhzx/KyUMjXYWFxdwo5mluQuRiHp+QhAT10N5ohLsDpbSPiIzGNz/MwKat27Fg8QoWJfuVQP1p5jzMmb+Efcz2HTyC+YuXY9o3M9idnjzNfleCNou+85NnkJycii+++QVrNmzBvAVLuH7MnLOEzWCn//wrGyQKQm2gexHVoV/nL+f6eenSZVD6Gm1+GyInNw8r125kDys6j/yt0jMy8P7HX2CN2r9n3wG+z81X9XrF6vV4851P+NyfZ8xXdTqQxdHSFRuweesO/Pe9T9iFXxB0GZ2briJx8vIbH6gf+Rq2dXjznY+xYtU6fPPjLLZ6mP7zbBwKCMIrb32ARNV4vf/RZwg7fQ4//DwXR0OOY/2mbXhT/fjnL1qBr775mcsMOhqMHbv28qjNd9NnqYZsCRapmwjdgFxcm6F//z4YNKg/OnXswL2n+6Y+pxrEA/jvB59xD2rbjt3qhrQUP85aiAVLVkkv/26i/vYBgcHo27snHvvXAzAyMuTtDZt+w/PPPMHJIsvLK+DSzB5TJk1Azx6d2NLD2tIMnTu0Y0+0qJh47N53CJ07tcOTjz7E3mhRMbFIT09Fm1Yt2Tvox5kLNW8oCDdHXHy8qkdxePOVZ9Cndw92FL8631e5EkKJSekYN3oERg3tj2PHjqGstBxPP/Uohg8dhICgYzw6mZeXh/59e8HT1ZFHJMmD7eDBw4iLS0RuXg7Gjx2p3qMnNm75XVOyIOgmOjld1cGvNZ77z1QsVIJi1Iih/OM/FXYW2aoXZG1jC08Pd7z4zJM84qOnZwCfFt7wb99W9fBjlIgDunfrjFdefBolNCqUnoG4xFT2hlm+ZjOGDe6PQQP64bgqr7SkjA1A96gGb8eufQg9fhL7VW+pV7f26Nm9E+zt7Hm4+eDho+jWuQPuGTMUYeq63LwCzScV7jQ0kkYja2ZmJtxDpuzXOTk5KFINAWV/be7hwZmxf9uxF+s2bEFwcCi70jOa9oZ+AVVVlbAwN+My9JTwLyurUKK3KVr6Noe1tTUyU6qntAThZqFRmuae7px9mLKr/919wtXZHiYmRjAyNkRxcTFOqU7avEUrsXPPfqRlZHMnytTUDM2aOan7mz48PFxhaGCA/NxcFBYVqU7dWazfuAVJySlo3ry5plRB0E10brqKRprsVCOlr6eHouISnqaqVI3aE4/czwaNQwf1ZaG2btM2HvUpKytRjV45XFyc2BCvaVM9+Hh5wsTYWPWEemDNxu3Izc1XjZ+bEjUlfC2Z5t07YQzIIsBcNXS+Lbw4AaGriwsqVCNaoG4kVGb/Pj3g5GCnXlfwgz7bveNHqrLF7PFuQd+PnZ0NQkJPIfziJcTEJcDX1wc2SpDu2R+ANWs3cL04cfwUj8rYqLoUHRsPfdVIpCnBS9OcFeWVcHdzUb3mEJw+ex4JyelK2FiirLw6NoeQaUmhtri6OOP8hcs8BU4mwS3UfYjqUaqqd5HRMYiMikFefj6PINck9GSYqqst4KkEkqGBHnfeKO5GexpNt2u7pvb2dqruuqNrl06wNDflDqEg6DI6N11FP2ZtA/PQlIk4EhKGlLQ0nD5zAQUFBTgYcASGSqTExCXCVTVUdD41XhSTk6t6UjRVoa9x5B0yqB92793PPXVHJZAGDeyPs+fCEZeQiKzMbO5xGRoasnuwV3MP1XNyRK/uXXAhPEaVl4FTYWGwsrRA926dcDEiGunpmUhUvSfJrnt3sLe1xcTxozFi2EC0b9cKoSfCMHb0MPW6NV554WmUlBShZStfFsPvvfOqEkQVmDBmBMaOGgpv1eP1a9eGhe7//edf6N2zG0YMHYRLEZcxYkh/bpAeuO8e9j6jXvPbb7+heVdBuDloKvT1F59EbHwC/Nq2Qj/VSWrm5IgB6pniAOPUfvKZ6tm9K7uPO6ljY8eMxL8ffxg2SmTbqfr9xKMPICcnFyOHDeJ709ixo9GlUweYmpjgoYfuh7OTA6ZMGouoqGi0bdua31MQdJkmVTS2WZwMlGYAph6AvoXm0LWhaP2XXn8Xb7/xIry9bt1QJ8WutOs2AltX/Qo/vzaavTcH9W7CL0aoxoo8q6p42Jd+vPRfo94PBRC3ae0LE2MT1UtPUQ1TJFq1pMbMHvn5BUqMnIGjumGQUKHAYxqpsbS05LJjYuNgZWUFaytLFk/nwyPUW1TCp4UXixwq287OVgmhP/QiTXFduhyF5p5K+Khyy8pKcUF9PpKHLX19OA7kTsMB1uozeKveHo0+NSYOBgaje2d/8aa6DiT4vJq7cwD9P+FyZBQmPfw0ft+wBM7Nqr3BhOsz7buZePvVZzVbwrWg+ErqQLg4N9PsEYQbUJ6nBEts7Udyrh4qrW+QO7ijgz0LEIqXIDFC01AUe0GjUPQjGdCvtxIfDnwOrYjq26cnWvp4s+M0iSOtwCEofocEDkHltWvTEu1UD4jeh3pK9F41BQ5BQ8K9enRVN3lH/nvReR382rJx6N0QOIIgCILQGKmDyKnnKkcQBEEQBEFRa5HTEFZXCYIgCIIgyEiOIAiCIAg6Sa1FjiAIgiAIQkOgDtNVkv9D0B1oBR49BKE+czP1lO7NdA49a18LQmOn1iKnpo9KfYeSutHy8tqQkprGvleUO4eWl9NycHrNj7R0Xuou6AbUEFDepOiYOM2ea0PeVlQXBOFOQ0lEDx4Owq49B7Dpt504d+HSNTua5Kk2Z8FSzn781fczsHtfADvuX+tcQWhM6PR01d4DgbhAeW2uoriklLOKXqunQz4v1KAdDjjKOXbWrFmPOfMWY9acRZwNNzz8kuZMoaGRnpGF4GMn2IYj6Ogx3kfC9fSZc9iybacSsum874L6jtdu3MqeZnl5Bfhp5kJs2PI7i99jx09i7YatbMAqPWXhVpOYlMzGsZRNu6i4WG2nYOvvu+Hp4cY5tygfWEZmFk6GneXzY+MS2Cx28bJVCFH3tF179uPcuXCYGOnDyNAQgUdCOAMy2TlQ3RfRIzQ2dG66ij7fzj0H8ckXPyE+PoG9XSKjY/Hex1/gv+99xg7kJFY++3o69u47iKMhJ/B/z7+CuYtWccZjuqlQY1ZcUgwLCzM89ti/0K1bF/i1bY3HHn1YNYSZnM2YOBRwBKvWbsahw0fw2jvTsFo1fqWlZXwT+uCTr/D+J19y8kShfhAfH4/X3vqAhc2CpasRpsQNpcwPj4jk/Eg/zljIScc+/fJH9v3ZtG0XZzQmiw5Pd1dVV0Ix49el3Nj8Om+Z+p6zNSULwj+HEou++c7/OGP2nv2BCDoSyh5WSUlJ7Jzf2d8P40YPU8I7H5s3beFrjp84xfW3U0d/eHt6or1fG3Ro3wYmpiY4ceoMZ0j+6psfsWfvAWRlZTWokXhBuBXUusbr6dXvH0lUdBwOHArCxHFDcfjIMXYF/3X+MvTp1R1DB/fjXniXLp3g6uTE4uXYseN46603lDoqU737EHV9DFJTU7ksMlw0MTHmDMhkBWFiYsLDx2Gnz7Av1o6de1GpevNLVq7HE49MwqVLl3H8ZBje/+hzdO/amU0/X1WNqlA/oJGXVq3bYMp9E9Ddvw2ilfi1trTCoP590bN7FxTnZeL8hUvo37sb+vToio7q+yNBa2pqygkhQ5QgfvetF1Vd6gZ7WytVT9I0JQvCPydWdcDatm2DUSOGYPSIgZw92szMFB+99yai45Lx/MtvYsGSNezHR8KboPsP1WtKbmphZgR7O1u2kiHvvcrKCnTp5A8nZzfsO3QUXTp35GsEoTFRa8VS34fos7Oz4e5szz5DfXp0YZuGqqoK5Kj9mZlZcHVxYnsF/aaVqKqsZBFz5tw5lJaWqJ45nfv3/z9aPt/CuzlS0jIRrMSRn187mKqbUJ9eXdGmpQ/atm6JzOxcpGVkIr8g78rNR6gfGKgeckFBEcrLy1FcWs7+P0ZGBjDWZKGmb57OKSouVY1IJTcmBob6bMRKhofmFmbIyszk65vo6cPQSGwihFsH1Ue6OVH9ys8vhIGqd1ExsSy0n33yIfz47TRcjLjMtjUlqv5ShyszK1fdu0o1JfwVOlao7kWUmZ1GigShsVEHkaN5UU8xNTNDYVEJD+lejKjuCek11UOnjh0woH9vdOzgxzeTyiZN2SwzIiqBR3ma6huhgv9v1/8PkhlnUWEBlq/agKGD+7NgojnvEnUzyc0v4CkusnlorwQQmTiOHzuy+kLhrmNsYgIzU0P8OGMuLl2ORGfVyzUyMuYhfcLW1g5dO3VATEwMpqtzItQ5rZV47de7Ow4eDkavHt0wY94yfDd9Fpu2ioAVbiWeHq5oqu5L3/80GwcOB6Jbt86wtrLC1u27uT7OnrtQ1ccWqqPlBUsra8yetwTRqq6am5tzHba0tGLzXwtzM3bNp5HnZeo+1a1LR4wdOQRHgkMlJkdodNTaoJNiXF549Z16a9BJvaAZvy5SvfAS7r2QY29uXgH27D/AhoEUW9PR3w/zFy5nL6mz5y+hSRMa0THhuXASRS7OTjzqQ35T5PR78vQ55CvR1Fc1dsS6jVtVIxmLt159Fpt/342QkFCeziDxNPWBSRwMuHr9Fr75jBs1hL2u7jZi0OmPhMQkrN74u+oVP6y+a32ehiopKVENQ/VoDY3ymJoao7SsDFlZOdXD/iY07F+phHMxG3yWq78j9YjZbdzQQPMODR8x6Lx71DTorB6dyeHRRfLVI2g0hvZRfaN6R9B5FDvInTglbJo2acK/cRI7dA+kc+kcmla31JRD91hyI2+IcTli0CnUGo1BZ61FTlFREV58rf66kJMBJt0UyH7CQDVkNMVEP2pqpOhGQMdpHwUIk2EnUVJSqho3E56eoDgcdZihmwedSzcL7XZUdCz3rKhn5NXcUwmebTAy1MfgQf25oSShRBQVlaCJKl87FXK3EZHjr8RJDgKPnsDE8SM0RwQtInLuHuJCfmNE5Ai1pq4u5PV9uoog12/qdXMPR9NrMVU9ctpHooWgng71euhBvSHaT9eRMNLu155L5dCDoBGfEUMH8rQV0a2LP/w7+HH5WoFDmJgY1RuBI1RDI3tjRw7SbAmCIAi6Tq1Fjnb0oz5Bn+hOiS+Kw2jp431F9Hi4u8LdzYVfNwjq39d3xyDBS0JWEARBaBzUWuTURxdyfX0DnqKiqTTh2pSUFKOivIxHqARBEAShMVDrmBxKbvfS6/UrJof+CxcvXcaFixHwcHOFnb2t5ohA5OfnczC0d/Pm8PHx4tikxoQ2JoemK4VrIzE5dw+JybkxEpMj1Jq6Bh7Xx9VVBP03KEA4RjXm+XnqPycwtDLIzNxCiT9nGBn9EZPUmBCRc2NE5Nw9ROTcGBE5Qq2pq8ipjyM5gnA9riVyaJWcjY0V5yERROTcTa4ncqhTSckAXV2acRwgrZIk02B7e1tOXFmTzKxsXjVaM3/TpctRcHSw46SoLi7OMGig09UicoRaU9fVVY1wIEDQIUjTU8qAbTv3Ij4+kfdRIkfKJ6KF8oyQOWLNxGk0Slgf49EE3YLqZ2FhMedqIuLik/Ddj7OQorEQiY2Lx8w5C9kfj/unJSVKCFXXXbKVCQs7w+kySOwQJG4o59eu3ftQpDqoXL46Xl5enRZDEHSdOogcUTlCw4QahLmLVuDr737CyZNh6oZfqXqI4Zg1ZzF+mTkP+w8GIk31kr/7aS5WrN7AOZAomH3vvkP4aeZc7Ni1F+WanEmCcKshIb1c1bvPv/oe33w/k+PoyJsqOy//iiCPjonnUW+6C1+4eAmff/EdPvxkGgKPHFMiHAg9eQazlQj66rsZ7Gi+71AgW0SUK9FUXlGO1es3Y9avCzFr7qIr+b8EQZfRidVVgnAznD17HuEXI/HKS89BT89Q3eQrcST4OHxaeGP82FHYsGUHTp46g4KCfAwd1B/t/VojOSUN6zduwWNTH0BJWTlnPBaE20FCQpKqj6fw3zde4mzsgUdCeL+DgxMSklJ4qur0mTPo0L4tdzZXr9uCMWNG4Y3XXsTn38xAXmEBp4h4+qlH0b5dK5xQQv5yRCSvPCUSk1Kxdet2jBk1DGXllZy5XRB0HZmuEhoNeQUFsLMwhpmpCTw9XXg66lLEZZy7cAkHA0PQQTUM7du1RquWvti++wBOhp1Falo6rG1tYW1txVmuKWO2INwOKKbGt4U7zM1M4ershKysLN7v6e6K7OwshF+6DFMzc1haWLDDXkJSGpp7uMFG1U17W3Pk5ebDw9WFrUiojMKCQr6eIFGUnp6O/MISHAoK5bQbFmYmmqOCoLvIdJXQaLBXYoUairDTZ3HixClODujl5Qkfb0/cM3YorG2seHWeu5szxowYjPjEVE4eGBmdyJYYv8xeyIGggnA7IJ+8sLBzHBQfeuo03DVZ1akOenh44OsfZqBvr+7Q06u+bbf28URQ0FEEh4ahrKSEva6Oq+spBidSlWFpbYMKzcg7xeI0a+bI5sFDB/VGczcndO3ahY8Jgi4j01VCo6Ftm1YYOnwY1m/egYceuA/2dra4d9xIbhC+/Wku/NTxNq19ERMTi48+/gxd/NvwyM6Lzz3OMTp+6jWZsArC7cBZiZDnn30CP81cyDE3A/r2go21JTr7t0a/3j0wZGA/+Pp4sWcejdY8MvV+nLsYiZ279+G7rz+FT4vmGD9mKKZ9OxMODnYY0K8nRgwbCAdHB/h18EdzJZTefO15zJqzEJnZObCz/Wcr6QShIVAHg85ivPha/cuTIwh/h+TJuTGyhPzuIXlybowsIRdqTV2XkAuCIAiCIDQE6jBd9UfuEEEQBEEQhPpKrUUOBWsKgiAIgiDUd0SxCIIgCIKgk9Ra5FCcsiAIgiAIQn2nDtNVkidHEK6GxH/NDoB0BoRbhbZuXV3HbhYyVSYvK1oZKwiNDRnJEYRbwJ59BzhNvrYh2vzbDmRlZ2uOCkLdSE5JxfSfZ2PBwqX82LxlGwqLijRHb47wixGIjonF9l37NHsEofFQB5GjeSEIDQzq0ZKLc2JSChtvRsfEIfT4KeTm5fHxvPx89q6KUvtpFSE5PaelZeD0mXPs5kw5YBKTU/jcgoJChKn9UdExbHR44PAxHA44yi7QlBU84OhJVW4+O0SfOHka586Hs/u5IFwPMtMMCT3BWY+pXmVl5yI9Mwf9+/fhR+dO/lw34+ISVF1ORFx8IjKzcnDi1GkUq/pFAjstPROnTp9FTk4ub5ubm6GsrAwxsXGadxGExoNMVwmNhqSUFLz29ifYoXq0q9ZswIef/YDjStT8PGsBioqL8d2PsxGiRM9nX/6M37bvZlfyn2bOY2+rl19/F0dDjuPJZ17HhfBLmLtwOTcwh0jYnD6H0qJc/OepR/D77oOc2FJPX59FzS9zFisBdARbtu3EgsUrUV4uBp/CtSFR/Iqqn6EnTuOXWfMREBTMgtnQ2AjmZub8MDMzQ3ZWNl596wPs3rcfX/0wC9/+OBPh4RFYuHQlkpJT8fa7H+Hy5Sj8NGMO8gsKsGTxMqSkpoklj9AokekqoVHh5GCPR6dOwamws/jkvVcw9cH7YGxogOiYeHYff/ThKfjva89g49ZdMFL7hw0dgHGjh6OFtxdGjRiKKRPH4OjREDRzckR2djZ7CpHHEDUf1laWcHdzQdDRUN6m0R8TI0M88eiD6j3vR2VVJTdkgnAtaJTR29MdzyixPHnSeFyMiOT7LbmT0+hOcOhx9l4rr6iEs6p/jzx0P1r5eGHCuJEYMWwQmioRQyM2I0cOh6mpmRLbRSiV0UOhkSPTVUKjwsnRnp8NlfjgqqwqdFl5OQz09VmYEKVlpTBUAsfAQB/GxtVOzQb6TdW2AZ9TWVGBgf17oWMHP3YpDzx6jAVMkyZN2W9o/6GjKC4p5JxS1EjRgzzfqtSDGiJBuBZUB2mKiigrK+f6Q6MvLVv6YPTIoRgzchi6d+3M9dLEUJ+NOukcuo6g1wcOBfJ0rKOq56VK8EinVGjsyHSV0Ghoov4VFJXw65FDB+Hl1z/EL7MXwMDQEM093WBrZ4cvv/sF7378NR6aMgHl5RVXGgltrW+i6n9JaSnmL16FU6fPITExEcZGRtDXq25o3FyboUe3zjhwIAjW1pbq3ArMUO8x/ZfZMDbUg6Xl9b3hhMaLp4cbomOS8N30WVi+YjXat22FCiXAT544idXrNmHlmg3Y/Nt2JawzqgW6okwJchLd1a/L2HT2csQlJXYCcCkyDsHHTvLUKYklyVYvNEZqbdBJwZsvvf6uGHQKDQatQSf1dCm4mNyXqdqnpqUhIzMbXp4e7OpMQcK0CsXGxgpOjo4cXKynpwcjI0Nk5eTA2tKSr9drqgd91Zu+HBkNG2srNqKkIGWartJXDQo1JolJyVwGERkdzb1tTw93Lq8+Igadd4+aBp0UPBwdHQMrVZecHB14ZCc5NY2PEfqq/pibm6O0tETVY1vk5uax8SzVq7z8AliYm3FcDo32mJuZoai4iOuroRLyNLJD9bUhIgadQq0Rg06hsUFTUCRwCOrZkghp27olCxyCGovWrXyviBMzM1PeR+faWluzSLJSQodWq9DoTbs2rfimS8epB00Ch6Dz3FxduKGhRytfH+4Q1FeBI9QfjJWgpjpIApGnogwM4K7qkvZB+0nIkMAhaGSQBAzVLRLZ9Ozm6swCieqvvZ2dEu3W/LqhChxB+CfIdJUgCIIgCDpJrUUOBVAKQkOCZHm5Jm5BuDZ5efkwNDTSbAmCIOgGtRY5TWQgR2hgONrbctbXrOwcTm0vjz8eFNNx9nw4B1SbmVavJBMEQdAVah14XFxcjBdefUcCj4UGA606oWBMynD8RzI+Uuu02oR0/tWjkzWPXX3O9Y5puR1l3573pTglJydHzu9DcUb/FAk8rj01A4+FayOBx0Kt0QQey+oqQRBuGSJyao+InBsjIkeoNXVdXSXTVYIgCA0HWoZOSStpCTlBiQZpZFMQGgN1EDmicgRBEBoKNEq+c/d+ZGVVu+KTIe2mzdv4tSDoOrUWORUVNJ8vCIIg3EooieSO3fvwwmsfYNo3PyEmJg6vv/k+KtT+lavXI/TEKeTk5mH33oP44qsfsGHz73j7g88RdCSEr921Zz/e/2gavvr+VzbmXLZiDebPX4Jduw8gTwkbyuDN76Pu4VlZWfx66cr1+Oizb7Bo2Vpegbj/0BH8b9r3+OSzr3j0Z92m37FeCaJNW36XjMlCg6TWIocSVAmCIAi3FnK137xtL9565Rl4urvimBI1JWVlOHf+IhKS0rF3fwCSkpKRn1+A2MRU5OTk4P5J47F73yEepdmxaz/GjB4BCzMDrFi9AfEJydAzMkK3Lh1hZGQMff3qZJRVmqB0CscMPBKMSRNGw8nBFlFRsQgMCsawIf3h6+uLhYtXIzYuERERkejbp6fc+4UGidRaQRCEegAJlTatvOHm5sJZj8mjavy40Ur47EG7Nr7Qa9qE91nbWLG7+LAhg+Dh4Ybc/EK2g0jLyEF6ejpcXJzRwssLRYUFGDKwH2xsrTkeh84hyK6kvKKKQw/unzQBx0+dwbkLF9mTrai4GGmqDHMzU3Ts0IaNZ3v37HYlU7ggNDRqLXJkyFIQBOHWQ87hp89EIDsnD5cuR8NViZWe3TrjzJmzsLezgY+PF4KOBqO5EjaOTvYwMjam4RgelzHSmMz26NYFLX284e7mjCbqiL5eU5io89QTjoWeQFZ2Lg4GHEWzZo48IkQebFMmjUdkdDxycnJhZ2eHrp07onv3LnBVZdDoj9EtSC0gCHeLWoscsvcXBEEQbi3NnBwxcfxwLF+5BoWFheilhIaxEijjx45QosYBfXr1gKU5GXc6olvXzkrY6MNQCZAeXTvB1tYaA/v34viZA4eD4WBvhx49usHUzJQ91caOHon4+AQsWrqCR3KoTPKzSlT71m7Ygr69u6JbF3/16IAt23bgwMEAJaJM4de2NRwc7DSfUBAaHrXOk1NUVIQXX5M8OYIg/BXJk1N7aubJodsxJaykqSSt4SuNnmtXtdJxio3R7qMHvaZ91ddWcEdUe07NOBpaNFJRUa6O61/prNI5FHBMLvlUFpVRpt5fT11HZp813+duInlyhFpT1zw56jcgCIIg3AZITJDzuFbgECRUtEJDK1q0+7Sviepr9f90Tk1I2FQ7lv+xn84xVO+nLYueaVvrmF/zfQShIfLnX8FNIC7kgiAIgiA0BGotcmg4UxAEQRAEob5TB5GjeSEIgiAIglCPkekqQRAEQRB0klqLnMpKGcoRBEEQBKH+U2uRIwiCIDQcysrK8PvO/fjy6x/w3fTZOBRwFMXFxZqjgqDbyHSVIAhCPYHy0pDnFBlxVlRUIC09g/fn5eez5QIdz8nNZesFsmHIys7h84jSsnIkJqWgVO2nBSKU3ZjOyVVlpaQks0XEow9PwanT53D02Em+hvKeURnaBSXFxSVISk5lYURQ2YlJySgoLOJtQWhoyHSVIAhCPYCcw99873OsXLMeX3zzM4KVEPnPc6+ySPll9kKsXb8FCYkp2L7rAD749BtMU+f8On8p5i1awclUf5k1H79t34X3//cNjh0/hQWLl+Pt96cpUXOWk/uZmJjA3MIM9vb2qsx8FjefffkDlq1aj+kz5iIjMwuz5y3Gjt378c2PMxFxOQofqvc5HBiMVWvI8DNJ80kFoeFQa5EjeaEEQRBuPdExcbC3tcJrLz2LCWNH4MzZcxg4sD927j0EL093JXCSkJqeDksLc1SUVWDcqKF4bOoUREbHITcnT4mi46DbM5URdCQEBXn5mPrgvejVoysLmg1bdmLh0nUoyM9D+3ateBSHsgjbWFkg8MgxXjqrb2CAkpJidPH3g6mpKUyMTZQgyoW7hwesLK+fDV8Q6iN1EDmicgRBEG41dG/VZhim2yxlHh4/Zjj27A+Em6sL+1jFxsbD2spKHdODhxIeZMdAtgxk0+nm7IRhQwbi4QcmKXFzHyoryuCisdawVAJl+OC+mHLvaHV8Ijw93LBt+x40aaqPnt27orysHObmZpiqrh1CwmrfIfVesfi/px/F0MEDEXb6LM6cC+eyBKEhIdNVQqOB4hnk8deHUD8gd/GM9Ezs3nsQR4JPoG3b1nB2coC+uktbKAEybFB/JXiC0NLXC15ezXkKqol6mJuZwcrSEq7uHoiIiuHrKY7G0sqS7RlINFmYm1eP2thYsViifVbquKW5MY6GnIC7uzNOnDqDvfsPc/yNh7sbCotKsXHzb+q5mB3RjYwMNZ9UEBoOYtAp6DwURBkVHctD9nRzr1INOzUO9MxdZkL9DLT7rjzTudVHeRqAfio3fUxtU9l/OXb19XRMc/4/fl/NM70vc733VWivJz+jtm1bwUg9/1PEoLP21DTopDoafukybKys4O3tqYSMHuITk2BvZwN9PX3Exifw1FVyciocHR34msTkZBYlGRmZiIiIUvvt4OmhzklJg6ODPXtV0TESPTW/Y7qXX4yIZPFDYqisrFzVBQNcUmV4uLtwmSkpqeqcKLi5NuMya3pq3UnEoFOoNXU16KSbpCA0JCjW4fzFSFRUNVUPPVQ20b/yXAn1TI8a+648a4+pRwXUuX869se11zymnquPafb9Xdk1zq/9+2r2XVW29vi1jl1dNj0ysnOx/2AACx7h7mJjbYWe3TqjVcsWPBVFq1k93FxgamLCAsTHuzkLEldXZzbjpIenEiN0V7a3s0XPHl2488nnuDS7YtjpoMTO1SKWApH927eDu5sriweawiJh2r9vTzT39ODrnNX+Af16oYW3110TOILwT5DpKkHniYqJVb1bR5iamcOEgilNzWo813zU5ljNc653TPu4Vcf+6fV/PmZqZgZ7BydkK6FDPXtBqI+IABfqiozkCDpPYVGJ6tn+uRealpaGpMREfmRlZqo9N76JJiYmICYmRrN1e8jIyODPlJmZgfLy6lwl10R93Kqqa8fT5OfnIzo6SnVIKhAZGcmrY26EuYU5iktKNFvCncTM2BCFkofmutDydgN9A82WINw8tRY5gqALrFi9EQsXLcXK1WswZ94CbN++U6mG6wfhhh4/jr37D2m2bj3Uf9i27XcsXroc8xYsxqzZc5VYiVZH/irA0pUYCgw6grLSUs2ePygpLkZ2VhYqK8qxc9cexMTGaY4I9ZHRI4Zg6/a9VxLwCX+Ggqhp+TwFTQtCbal14HFBQSFefuM9CTwWGgybtu6Es4srDI2MNHuAdz6Yhj7d/TBu/DgEB4dg+cq1+OzjD5CYkoJtv+9EEyX/77t3AuztHbBp82/Iykzj3raBsSlGDR+M0GOhSEpKw6RJ45CQlIKAgCCOcbhn/Fg4ODri0OEAHAs9zrEQ94wbiywlOk6eOoV89fspKi5BJ/8OCDl2HH16dYdf+/b8mUjk/Dj9J7Rt0wbDhw/FdvU5joSE4tmnn0Jebi62KSFmaWmJ+6dMxuIlS3Dp0mVMvm88PD29sHnLNs5xct/ECcjIyMapkycwcuQwzJg1DwMG9OMA1PUbtqKyqgKT7h0PNzc3fk8tCfEx6NW9M2xtbDR76oYEHteNsNPnsP9QEMxMjTkWRqimVAk/I/Wbe+TBSRyfJAg3jSbwuA6rq4rx4mvviMgRGgybtu5QIsftLyLHytwA7dq2wkUlFhzs7TFeCZRFi5dxQ1+lFEdJURFa+npj49btmKyEQeCRYJiaW6B3r574ZcavGD9mGHxaePEy2yGDB/KoS6ISPl26dMSSpWvw1BMP41TYaejr6ykx0wMLF6/A8GGDseW37XwdLf0lUfD2W2/wZ9OKnNatlcgZNpSn0RYsWqLKHoAFC5ehW9cuSFYizFdda+9gh5DQk3jk4QcQFhaGpOQUJbpSYGFlhb69e2DfvgPq/R/hLLgDBvRFSMgxlKsGw9e3hfr/2aJL166av0Q1InIEQdAp6rq6ShB0BScHe/i2bKlEQS9EREYjRokU8gwyMTWBnWrsvb2bIzElDS5OjujcuSPc3Fw1V4KTsw0ePAhVaAIDQ0O0atkKXTp3QiEty70YoUSTFbp26YwWLVogLTWdAmhga2uL9u3bo5kqz6u5J3p0r85EW1J67ViY4uIi9g6igGD+XCZG8PXxgrWNFSwsrXjpt5GxMaf9NzQw5Hi5zIx09Xz1z7oJevXsDjMzU4RfvMz2ASSoBEEQdJ1ai5y/C3YUhPrLtVt0QyMDJWasQbMDiYnJMDAwgIWFBextbeDq7KBEhTFcmjlynhIK4E1ISLiyysNcCYamSkzQaAzFxcTFx+L06bMwMzVFS18fFh4XL4YjKTEBTk4OvLLLwLA6cJKW99JyXD19Pd6uCRVPQcdnwk5iydIVPLJCy3ktyHPIzgbW1lawtbaGvvrQ+Xl5yM7IwMmwMzxaRIKIDBavdpiuKC9HfHwi+vbphZY+3jhz5qzmiCAIgm5Ta5Ej88VCQ4NS3l9Njy5tlRgow5oNW3HyTDheeO4ptGzZCmNHj8Cly5E4fuos7Ozs0L1bN/Ts3gXHQk/C28sLLVu0UMLIEn5tfVmsOLu4YED/vjh0KIhHZe6ZMJans0aPHom9+w5yoM3YMaN5dKiljw+PvrRu1RIuzs6wVIKqc6eOnA+FIIHTpnVL5OUXIjD4ODp08MPk+yaimYsr/vPkYzh74RKiY+Lh0dwTzdT1NF1MieD69u2NlLRMjuOhhG3FRUVo1coXTfUNeHqKDBkpB0pAUAg7TA8fPozfSxAEQdeRjMeCznOtwOOKinJWFdTWk3Bv2vSPURVauk25ivU04qOSvIHUuZw+QT3omewQSOQQlEm4vLycswrXTJhWXlaq9unxeXQ9nUfvRddqy6LPoV9jaSyNutCnouNXL3uvoM9V47PSyA2NUdE++oxN6X0qK2iPelSpbX3eT8epPCqb9utdYymuxOQIgqBT1DUmR3qAQkPjWiM5JCCosSeBUVPgELRPK3AIEg+0Tc8kUqoFyB/XkIiguJyrM8LqGxheOY+uoetJ2NCzVnjUFDgEvQ+//1UCh6DPW/OzUtlcFn0edV31e2g+p+Z67XGCzrmWwBEEQdBV6jBdVX3DFISGQrWDlCAIgtDYqMNIjgzlCA2La43kCH9G/kKCIOgiMl0l6Dw0XdNERiCvi/x1BEHQRWodeEzLU194VZIBCg2HJSvXQU+14uKi/PdQJvMJ40ZK4LEgCLpBXTMeU2r7l16X1VVCw+FQYDC6d+kIIyNDzR7hakJPhMGrubuIHEEQdAPJeCw0FmiGlbR8dk4OQkJP3HRcWUxsPNLSMtR1uarxjkZcfCL7TtWFqOg49YjBnv2HeLl5RkYmJ+5LV89Udmx8wl+S+AmCIAj/DFldJTQaMjOzsX3nvpsSOXTOufPhiI5LwMHDgfj406/x65z5eOOdj7Fj17XLoCmfVWs2aLb+jL29Dftjzfp1MY+Gbti8DdExsVi/aRs+//IHzJu/DC++/uFtdTm/WTIzs/DD9F8Rn5DE2zTK88usuZzfRxAEoSFRa5FTWSmRx0LDhFZZxcbFY/bcxfhp1nzk5xewl9OsuUswY/YCHA0ORW5eHtZv2IKfZs7H+fBLV+r7448+iP99/B6+++Jj7N4XwFYKZJBJ1/06fykuRkTi9517sXbDNlxSr9dv3Io5C5Zh+ar1yFPvc/FSpCovAuVVlOem6opgKC+vwPPPPoGP3n8DP3z1IScuPH7yNB+7W5SUluNidDyKS6pHrfLz83FZff6bGQCrqKAkiTJALAhC/aDWdyNNXjFBaHCUlJQiOzsHQwf1Q1ZGJk9dbd+5B8bGRmjT2hcr1mzCgUNBOHX6LKZMGq8a+zIUXTWFZGhogE7+bZWoicb3P81BC+/msLQwV6JmG3p064RWvl7wau7Bozp+bVvh3PlLPM2VmpqG5KTqkZFrQSvATE1N0bFDWySnpGr23iXUb7wuP3OahjscdAzOTvZsBioIgnC3qYPIEZUjNEzKlGixc3BGixZecG3mgJycXMQlpCI/Pw9JySno06srMrOy4e/fHo4O9vDycIP+NaZn09PTYWxkhLy8HPU6g20gWvl6swDS12uCgsIiLF+1ERGXo9gGhWJvbpbM7Fw2/bzTpKWlYdasefjmmx8w59cFiImJw5Ily3l78+ZtiIiJx7uffIW3P/rimo//fjgNDz/+f1i8dBVeeeEZWJiba0oWBEG4e8h0ldBoIAf96NhYjjVJy8qBk5Mj/Nu3QpvWrTBs8AB4Nfdkl+4TYRfUOYmIT0pFlfqJ6DVtqoRQIRKTknHocBCiYhPQo1tHeHt7o71fWyWOeqBTx/Zs+UCxOhRr4+npisED+sJAiaGsnGzuHNBxA43zOL2mYVF6puksKnv33oOIUtd28vfjc+4kNM2UkZOHjNwCZOXlq+0SZKrXtJ1TUAhDA3042lmrh801H83sbTFuzDDM/vkrDBnYVzpDgiDUC8SgU9B5DgYGo4sSIQlKuAQcCYWBgR6aqkZ42JCBSE1LQ+iJ0zx6Yq8aax8fL2zYvANmpkYsbrp26chTXJFRMZxnJyU5CUOHDoGLsxOvijpx8jRPM7X3a81LpvcdCEDbNi1xWIkhWzs7WFiYc912d3Xh8sJOn8WY0cNx5uwFdgaPjolDekYGKtXPMD0tEyOGD0IzRweYmZvx+XeKmkvIk1LS8L8vf8Krzz8BH+/mOHAoEJs2bcXXX34q8TaCIDQM6ponR5IBCg0NEjktW3hh1eq1yM7K5tGWJk2aXsmCXFFOzt1kYFk9ykJu4doAWhqRoPNJhNDZ2hEYLXQtbbL5puKKwzhdU1nFZfA+jWBhJ3J1Lj3/Xdkkmh575CHY29vxNXeCq0XOp0rkvFJT5GxUIucrETmCIDQQ6ipySIy8/Pp7InKEBgOJnO6d/TnAWLg2NUUOrTD7fftuDBrYj2OTLoRfwrlzF3DvPWOrBZwgCEJ9p67JAJuqHrAgCLqLpYUF7p98LwsconUrX0y8d5wIHEEQGhyiWARBEARB0ElqLXIk66kgCIIgCA2B2k9X3cEVH4IgCIIgCHVFFIsg3CbKyspRUVG9cksQBEG489Ra5NBiLEGoL9D0aXJqmhIUZZo91VA9JXuE2fMWIzUlRbMXyMrO0by6NZCvE9kZnDx9HsdPhmn2VnM46CjOX7jEuaWOHjuh2SsIgiDcKeowXVW9wkKkjlAfKCwqwegJDyMpudrvqbS0lL2iFixZiedffRfnlMgoLa0WQFHRcfjhp9nsRp6VlY3wS5GIia02oqRl03QdJfjTlpWTm4eIyBg+p1SJqBQlpsj+gcpJTknjtAez5y3hayjLcXxcIgseKofOyczIRExcPA4eDsKevQd4mTbl3xEEQRDuDHWbrmrSBIUFRZoNQbh70KpmfWMLFt3nLlzE3AXL8N8PpuFSRDReeOYJfPHJu3B3d+NzY+PjkZaewcJj3uLViI2LQ2BQMEJDT+LipcuYt3AFwi9G4JNp36OoqBihx08pAROF3fsOIyDwKA4FHMGsOYtw/kI4Vq7dhIyMLHYXLywsUu9P/4DjJ89g/ebtSuTEIOT4ac47k5KWDgMDQzbylGR6giAId45aJwOk09985xPOyjrxntFo5uSoOfLPIBPDYeOnYu7P09CqpY9mryBcn8LCYjz53Bvo7N8aiYnJaNGiBaZMGseWCRbmZpzb5VBgMLp19kdCUhKWr1zPdg4/z1oAp2bOSElORfeu7dGtiz8CDh/BKy8/h8effQXTPnqbhcqOPQHQb1oBe3sHuDo7sagaOXwIpv8yG/96aApmzJqHl154FgFHj6GyvBz5hYVwtLfD0MEDMGvuIlV2J7i5NIOJiQlnVL4b5ps3Q81kgIIgCA2eumY8JsJVr/eTz75FfGISOy/fCqgxysrKgbm5KXsECcLN0ET9o6kmfSUgKD6HxISxkaGqT9V2CsTY0cPwxCMPITE5GYuXrsbIoQOwa+8hPPv04yzaDQwMcPFiBI4eCcYLLzyD/7z4Fp576lEsWbERzzz5IFJSUxF49CR8vd3h5eWBdm1b44cfZ2CqEjmzfl2A/3vu3zgScoJFTlZOPmxtrTFmxCB8O302hg7siy5KYNV3ROQIgqBT/BORQ9BlSUkpyMvP1+z5Z1BcxJRHnse3n70NXx9vzV5BuD5F5KX2+scYO7I/wi9eRqKqk23btIa/f3s4OzmweC4tKcaQgf04XueLb37EpHvG4kBAMFydm8FAifSWPl68Cios7Cz+9fAUfPz5d3jmqX9h05btcHR04PidktIyODdzhKmJMQYN6IvFy1Zi3JiR2LlrL9zcXFFaVs6GmlZWltix+wDatPZl804aVfJToqi+IyJHEASd4p+KnFuNeFcJdaGgsAiDxkzF2iXTeVQn+NhxjokxMjTE+DHDMWLoQBxTDThNV5F3VUJikhIjejAxNUFsXIISLSZwd3NBeXmZKqsYDva2Siglw0mJm/SMTA5Sbu7pzquyKJ7G2NiYY2vSM7JgY23J06wUoGymymuqjpuo4/EJSUp8lcBRlWVqZsrvUd8RkSMIgk4hIkfQBUjk9B88HhvWLISHuyvvo1GZDZu2Ye6i5TC3sMCE0cMweeJ4Mei8DiJyBEHQKepq0CkI9QkTJVx+27QMzZr9EQCvp6eHSfeOxaJfp2PKvWNgaXl3hLsgCIJwdxGRIzRoyGaEVvgZGvw5AJ5icZycHHgEx8bWVrNXEARBaEyIyBF0GhI7giAIQuNERI4gCIIgCDqJiBxBEARBEHQSETmCTlNQUIjKylvvBE4ruCjvDhmD0gLF2kLXRERGIV99vsioGBQXF3NZlMCQ/K+uVTa91iY4FARBEG6MiByhQVNcUoqP//clMjKzNHuqBUhCYjJ+nb8Mk6f+GxERl3l/ZWWVEg7lLCJIMJCIoDw3WuFAz5SUUutoTuXQo0S9Bxlrkkmn9toPPvwUDz78OF5+/R18N30mzodf5GvoGJVBpqD0mvLyHDt+ksuuoPLV+1GZdKyEXqvy9uw7hPT0TIwedx/n3Pl02neY/MCjePX1d/H99F/ZZJQ+9/6DQdi2Y686J5ffSxAEQbg+9UbkUCI3VJajskp6qsLNQ4Lht73BbKhJQuDCxcuYv3gl3v/kK0RFR+OtV/8Pnh4efG56egaWrVqHw4HBOH3mHBYvX4etv+/kbRIhhwKPYuu2XVi6ciM7j586fQ47d+/H3gOHsXHLdhw8FIj5S1YjNy8fdvZ2+O7bafjp+y8xZNAAzFGCirJ/Hz9xCrvUNVRO2JkLCDhyjEVMalo6AtVrciRfte43tqJIVZ+HMiVr0Vqk2NpY4psvP8WP33+BIUP6Y9nKdSx+zl0IZ6ETqz6bIAiCcGPqjcihG7y3pwtOn7vADZcg3Cx6TZsgPiERM+csxIeffo3I6Fg8/eRU/Pf1FzGgX28YGRvzeXkF+di55wC8mnsocbML9na28G/vh6AjwUhKScWWLb+jk78frK3NldBZp4ROLPILCtC6pQ+OhoTC1cUZqalpCAw6yuXRaAwtYW/v1wZV5aVISkrFnv2H1fVWcHCwx47deznbMWVMNjc3g5mpKdzdXHH2wgWcOXsBF8IvchLMv4PKbtvKB+UlhUr8V8GvXWt06uiHFt5emjMEQRCE61FvMh4T5Pnz6Rc/oFePzmjTyhcGBvrckNAyYHquiXbflWO0UlhzCq0a5l2q8auqpHOqt/907Orra1CbY+pJPWuP/f37aj9fbcqW/9M1rq8B7SspKcGy1RtRVlrCuXIeemAS2isxcAV1SXpmFgYP6Msu5EuXr8X7b7+K/zzzEr795nMYGRlhzvwl6Nu7B7b+tgPvvPUyMjKz8fSL7+KZJ6bA1s4e7Vr7YvrPs/D8/z2Ntes2qx9NBTKysjDx3nFKwHhy/MzLr3+A/77xIj7+7GtOTKivb6BEUTMWNZUV5ejdsxtm/roAVU2aIiMjE0MH9UNsXDxGjhjKIz+jhg/G08+9iKWL52HJ0hUYNWIYfH1bsAj69Msf8LYSbGQncbuQjMeCIOgU9c3WgaCPciT4OI4dD0NOTtZfGjVBuJry8grs3h8AZyc7JCWnslhybOYCaysrPl5ZXoZBA3viwckTWeQsXrYWH77zKmbMng9HJye08vXGtu178ORjD+P76TPxwJSJOBl2loVIm1Y+sLdXIqdNy7+InJS0NPTp3Qt2drY4fvIM4hKS8PzTj+HHGXPRvWtn2NvZcDbmzKwchJ0+h65d/LF9516MHjEYK9dtQ9tWXjxlRSafO3bR/iF4+pkXsWzpfCxctBSdO3WEUzMnHFfiIysnD888OZUzOd8uROQIgqBT1EeRo4U+kqwiEW4GMtUcee9j+OLj1xAVHYutv++GgxIYQwb1x6ABfWBpYYGAo8fQo0tHFBYV4cSpMxis9icnp+BQYDD09fV4OqljBz8+Fh0Ti7LySgzu35sDfMlg09HejqerunftwgHGNBiVk5PLgchVaqtcPXfq2AGODnY4ffYCLkVEwdTUVImkFuxKfiggGG1b+yAyKlaJsHIWL1mZ2TAwMkT7tq1x6XIUfFt4Yeu27Zh473icUIKjsLhIldwU5RUVPIXm6GBf/R++TYjIEQRBp6jPIkcQbhatC/n6pT/DxdkJhWp76coNWLV2A6ytbfDWa89xcG/3zv4wMjZiAd2U5sIUJKR5u2nTK9NhtI9e0z7aJv5uyqzmcXpooZgybRmEtkzt+bSfVnrRJdr99Eznad/378q+XYjIEQRBpxCDTkEX0NfTw4jBfWBibMwCgQJ8n3lqKlYunoWhA3vju+mzEK5Z3k1SQStwCDqfpoC0IoKeaVsrTmoKjJrP2gedRw/tMS01yyC052jPr97317K1x65XtiAIgnDzyEiOoLNQXpqUlFReVt67R1cYGxtpjghXIyM5giDoFDKSI+g6ek2bwsW5GfSvcigXBEEQGgcicgRBEARB0ElE5AiCIAiCoJOIyBEEQRAEQScRkSMIGrSmmoIgCIJuICJHaDRQMsDwS5G4EB6B/PwCnDx1pjq7cWYWcnPz8PX3v3BiPjp2LPQkG3TmF/y9t5QgCIJQvxGRIzQaUlPT8cU3vyAuPoHtQ06cOo3YuAR2Ia+orGDncfK6+uXXRUrsRCJCCZ69+w9prhYEQRAaGiJyhEYDCRkrS1MMHtgXPXt0haeHGwue3fuDYGxsAitzY1hZWeDQ4SCUlZYhOSUFm7fs0FwtCIIgNDRE5AiNCjLUpCzCP82ci3PhEexYTm73BIXjsN1C0yZo79cGfXp1x0vPP8XHBEEQhIaHiByh0aCvpw8zM1MWOU72drCxskBaeoZ6NkN6ejpa+LRAQmIixo0ejpDjYYiJiWPhIwiCIDRMxNZB0HkOBgazQaeeXlMOJLaxtkJxcTGysnJgambCK6qMDA3Z8ZticgyNDJGWlsEO5TbW1jBS27qO2DoIgqBTiK2D0NgwMDBggUMYGxvD2dkJVpaWsLaygomJCSzMzWFhYc6Cx83VGc2cHBuFwBEEQdBVROQIgiAIgqCTiMgRBEEQBEEnEZEjCIIgCIJOIiJHEARBEASdRESOIAiCIAg6iYgcQRAEQRB0EhE5QqOioqICJaWlnBunuLgER0NOoLComI+VlZWjvLyCX2dmZSPszDm1XY5SdT5BrysrK/laciwvU9uCIAhC/UVEjtBoyC8owKKlq7B67Wbs2XcIx46fxPJV6xAVHYsjwaFYuWYjFqjjWdk52HsgECtWb0RcfKI6ZwNfH3gkBEMl4IwAAALGSURBVPEJiQi/GIHlqzeoslbjUkQkHxMEQRDqHyJyhEYDiZlQJWzGjxkOe3tbtGvTCr4+XnBu5oioyCiMGjEYZqamOH7iFPza+MLO2hwmxsYIORrM119UgiY7Jxc7d++Fo4MdJowdgbKyMj4mCIIg1D9E5AiNhtYtfdC2TRt8Mu17HqEhY059fX32ssrIycfsuYsQEBiE9PQMznRMtg5N9ZryFBVB5p3E6FEjeFRn5pylUBfzPkEQBKH+ISJHaDSkpqbB398Pj06djD37A9C0qR4KCoqQovbv3X8YkydNgK9PCyQmp7AxZ3FpBSoqKlGmRA6NAsUqYUT7C/Lz8ehDk9HZvw1+27FfU7ogCIJQ3xCRIzQaLC0teJQm5NgJTJk4DsbGRujc0Y8Di5996l8IDjmOXj26wtHBHqYmJvBr1waVFRWY+vD9OBISil7dO8PB3o79rQKPHENBYRHuu2eUpnRBEAShviEu5ILOo3UhJ1EjXBtxIRcEQacQF3JBEARBEHQZETmCIKC8ohxNmsjtQBAE3ULuaoLOo4cqFBVXJ/wT/grNWGekZ8LSwlyzRxAEQTeQmBxB54lLSMT58+Hw9HSHoYGB2lO97Juq/h8rwJtotmkHLRW/0TZdr/bW2K6musBrl63ZrFHW1c9/V/Yf27yleSb+vuzq866/TavH4hOSlMAxQ6eOHWq8hyAIQgNGE5MjIkfQeSi/TUpKCnJy86Cnr6ea+eqG/I/GvhrtdpX6R+dc2b7q+a9igVBX1RAifz5Wc/vP1179fO2y/1xe9Wt6VXP7r9f+5Vn9q/n/IsjmwsDQCF6eblf2CYIgNHhE5AiCIAiCoJPI6ipBEARBEHQZETmCIAiCIOgkInIEQRAEQdBJROQIgiAIgqCTiMgRBEEQBEEn+fPqKuNmmt2CIAiCIAgNGKVt/ixyBEEQBEEQdALg/wE+YOSr4fH4HgAAAABJRU5ErkJggg==;" parent="1" vertex="1">
                    <mxGeometry x="-1886.58" y="-1340" width="1046.58" height="870" as="geometry"/>
                </mxCell>
                <mxCell id="15" value="" style="shape=image;verticalLabelPosition=bottom;labelBackgroundColor=default;verticalAlign=top;aspect=fixed;imageAspect=0;image=data:image/png,iVBORw0KGgoAAAANSUhEUgAAAYkAAAD9CAYAAABJGYveAAAAAXNSR0IArs4c6QAAAARnQU1BAACxjwv8YQUAAAAJcEhZcwAAEnQAABJ0Ad5mH3gAAHWFSURBVHhe7Z0JoA3VH8d/PNuzZl9aKCpCin+L9gWlRSUhkT2yJYSSJUn2UFkSimTXoiKtSoRKlqhsiZB9CVnf/3x+7801rjv3zn3vPsT56PbeuzNz5pwzM+d3zu+c+X3THD16NMEgfI4dO6Y/zXdy5MgR/cTHx0umTJkkTZo0YrFYLJazE9r7RYsWybBhw2Tfvn3a5uvHbFAjgYHAOPD7oUOH9Gf27NklLi4uKQmLxWKxnO1s375dBg8eLL/++qukTZtW0hw+fDgBA+EYCfO3/p4jRw5rICwWi+UchJFEnz59Eg1FsIH4999/7QjCYrFYzmGyZMkirVq1ksyZM0saYxQS3AYia9asuoPFYrFYzm0WLFggafbv369G4uDBg2okChUqZCepLRaLxaKT2WndowhGENZAWCwWiwXSpUuXaCSwFqxoYrmrxWKxWCwOOnHNSOLAgQOSIUOGpK8tFovFYjFGwv3ynHU1WSwWi8WNjiQcQ2GxWCwWixsdSTgfi8VisVjcqJFwXqizWCwWi8VNYCRhsVgsFkswaTZv3pxAnI4dO3bI//73v6SvLRaLxXKq2bRpk6xfv17++usv/X337t2yZ88e3Ua4JGLqFSxYUM4//3y58MIL9ffUxhoJi8ViOc2sXLlSli5dKitWrFDD4AcMRokSJaR06dJy6aWXJn0be9RI/PPPP7Jz585TYiRYReWsqGLJrfM7H8LSEliQ722AQYvFcrazZcsW+eGHH+THH3+UvXv3Jn0bHdmyZZNy5cpp+50vX76kb2NH2qSfpwwa//Tp0+uLe/zkRb7ly5fry3xs4zVwx0DYuRKLxXK2wujhww8/lK+//jrZBgI4ljRIizRjzSkzEs7qKX5iFKpUqSIlS5aU/Pnzyw033CAXXXSRXHXVVdKpUyc1Dow47Mt9FovlbATX0scffyy///570jcph7RIk7RjSaq7mxzjgCuJ0cKkSZOkW7dusm7dOh01EK+ckQNvfPOTGFJTpkyRChUqJKoiJRmKWBkMJoTw+V1++eWBEQsG6bffftPRTbFixfS7Mxmu1Zw5c2TDhg1ywQUXyE033SQ5c+ZM2nrq4dr98ssvOmwG7iM6AFzfYMz9JrNnz9Y5MK7Btddeq+HpwbkOzJFdccUVJ4Ssp+PAQ0DZL7vsMsmVK5feK5yXCMZumOAjbdJjO/cYxzj3EOmTFt/ZsPiWUw29fRrzjRs3Jn0TW4jkfe+998ZsniLVRhLueQY+RJl9++23pUGDBvLHH38Evueza9cufXAZNmFIKleurI0BDzUNUCxZuHChjBs3Tt1cDvzOd5988knSN2cu1F3jxo3llVdekXnz5qkebf369WXVqlVJe5xatm3bJk899ZTUrVtXPv/8c/3we/v27dUQOHAdp06dKnfffbeMGTNGvvvuO+ncubM88sgj8tNPP+k+znWoV6+e/Pzzz/qdAys8BgwYIDVr1pQ1a9bod9wz1APfuT/O9XW2t27dWlavXq3HwN9//63f89NiOZUwB0EnKbUMBJA25+BcsSDV3U2OsWA5V/PmzcwXxyR9xgySMS6dpDUNR7zpbF6QP5dkNb34I0eOyjF69yZXn874VOj3xaVLkDQJp8ftRMMW3EtNKSlNc+7cuTp6+OCDD7SxnThxohQtWlRmzZqVtMdxOI+XkeWaYJD56QXHeh0P9OSHDx+uP2fOnCnjx4/XD70kDP/QoUN1G2AIXn/9denRo4dMnz5d3nnnHc0zE26k4V7RQeOOEWEk4LBs2TIdPYWCkSfG0/m89NJLkilTpqStiZq91JOTF4vldMFoO5YuJi84hzOyTympYiSCGx5GBLh2smTNrn8Xz3+e1L69rHSvdY+8WPVW6f7QLdLz0YrSvcZdUvWKiyRL+jjTCH4oRxPSSNo06eSYMSynkv3798vAgQPVbYLbonr16rJo0aKkraIi4cydtG3bVkc99FLffPNNadeunR4LNHD0fF944QVtnILTfOyxx7Tho644tk2bNto4gvOdOz039KpxEQKuGrRomzUzBjgJGsomTZroecqUKaPuPRptIG0aZ/LN8jlcVe+++27AGLz//vsqW9irVy89lvzSoIcyFvToabhbtGghBQoUSPpWdA03o4vvv/9e80Kv/tNPP5Vbb71VKlWqpKNHwNVTu3Ztueaaa05owB9++GFd7eH0tqjL+fPny/XXX695jhZGEuSFNCyW0wVuJu5rv/Cs0pFTT8v+fQHXvV84VywmslN1JEGhMBD8ZGK67TNtJIc5Y7WrSssthfPK+dmPSfbc2SRH3lySK1e8FMiWTu646jKpUeEO2bNrh+bu0KEjkjYutiOJrVu3qtuJhoMPv/OdAz1dfNm4n5hkp3EbMWLECSsQWE1w5513yqhRo/SFFho6jvnzzz91O71Xes833nijruKiJ7tkyRJthNkPnyENMeflWNwrjssII0Ce+B5/uhsaWQxutWrVpF+/frJ48eITjDI98r59+2pjygTWF198oQaFfNLYctMMGTJEnn/+ef2dPLz11lu6PtuBYwoXLqxD1g4dOmjenXK5Ib+5c+fWl3qC4XozT8JxGLq1a9eq0QkOR1+8eHFp1KiR5M2bN+kb0fmM8847T+sJcGlRP7iqQsH1YtTifNwGHZh7qFWrlo68uC4Wy+mA5zGaVUx0nLj3cYvSTmAwooFzxWISO1WNBI2Z04DRQF1YIL9UuaW85MnEUtc0ki1nbsmePrNkSxsnWY0hyJYljWSOT5DLjcG4vHB+STD/MqTPYEYU3i6R5EDjg4uDxpIPvzsNEtSoUUO/52UVer00TjTcbkPCdxUrVlQDQUPOJBGNG24SYAIWrrzySj3222+/1YadNLn49ND5yUQ6x5YtW1YbZ+qJEQY3B6u+gsmTJ4+8+uqr2rjTANP4MWqgxw707snnPffco73/jBkzyh133KFpYixoMHHPYICYJ8Ldw7ndPnuM4n333afnuuWWW7Rhd88vOJA+9RNuUQHnpJMQaiTiBZPS5Jk6I480+ghi4VYLBcaX+RnnQ90Fc9ddd2leWSZosUTDt8sTR+0pAXe7uyPmB9oCDAPPz8F/D54wj+oXzsm5U0KqGomEY6ZxN+1HGvPvmDEERS8oJAXzZJfthw/JXtP4Z8yUTzJlySNx2XNJxpz5jVHJKf/sTy/pEw5LadPDNOMQdTWlSRPbbN52223qzqFnyYff+c6BBrdp06ba6NPTxd0U/BYkjT0jBAcMBa4bhMOZMPryyy81TXrI9F65UIxGcMPwwTeP39xZ4cVqLkYerP7hWEYgrFIIBcfdfPPN6vaiIeUFmrFjx+pNxKox/JFdu3YNnGvChAmBl2zo1Q8aNEgNA29qYiw+++wz3ebACMApG3nzWgHEKAIXWSiXGN+xjTJgZDA4ofbjQeATzNVXX60jHT64iTBcjC5CgevPuZZ8MN7BYHhwbU2bNi1gwC2WSDQdul4qd18t78w+uZMUDYTa8PsmtUO69OkkS9Ys2tmOzxyvHb5o4ZycOyXErPUN5S87ZkYACTT1CWnk6P4DkuXwPsmcLYP8un23TJu3WKZ/v1j+zWgqIXsh+WDeL/LOghXy+dqNsn3fLsmVJYdkMEcfSWvS9RhIhDpnSqGhpcGl10pji8HAVeNH2pVeOf5DRhO4qa677jrtZdO40aAy7+A0ZKNHj9YPDTXQaAPuKHr9uLKcJboONLI9e/ZU95AzQqPx4zy4c9hOo4xhY/7DORf5f/nll9WwMfFNo8u8BGUjr/j6kwN1hJHDMLpdXvzOd9RZkSJF1NCwpPWrr746yd2DkcMIM6Jyw3EYaVYqMcpj5JVSqCfK+tprr0U17Lecm2AgMA6F82bQT0oIvr/9gBeFTiYLVfLny3/CYoxoSM653aSqkTCDBwOuiGOybOZHsvjzjyVPtoySI+MxKVLoIsmeLYts2bpatq/9VQpkyyr5C+aWy3LnkMLnF5TdG36THyePF1bapzmFRiIYGl4aVD+NCg00DRENMn56xz1C44wRoMFmMhY3Ey4flgM7rhFuBkYezCdwbKg1zjS6F198sY5IZsyYoS4gjBEulFKlSukkNo0rDTfp46phH5aaMnoIri/+ZgUE8x/JAVcb7i5GNJMnT9ay8OF3vmN5K+XCUOKeY1kzE/m4xPidOY/evXvrPIt74hsYfVCXjIKoC+Y4vPj1118D80t8qJNQoxPSfPTRR7Xc1I3F4oXbQAx78kK5+YrEd3mSS3JdPhgKOlmMIsK5dcNxxribQjbYuJvMf4eMschkjEN8xjQSd3C/3FqiuFQyvcSbLjU90Z3bJOHfnVLqkoJyV4nLpESebJL2aIJklMOScPiAHDuKuykpvSBSw0jgZuFtcHq4+O/xzfMdI4FI0POnYcPNgvuIi+t8j0GgIWSegXRZUcSqG9wwwA2Auwoj4D7WDfs89NBDujLqueeeU8PD3ANp8G4B58Gt1LFjR+21M6JgHxrMxx9/XH3yjHYwQrizGMUwksDllBzIDxPwjJAYrdDb58PvTHjff//9gRub3hAGgWW5zDfgTsIVxlxBnTp1Tho1AXmnTnCthetFMQkf6j2JUFC/1IXF4kWsDQRE62oC2redu3bq3OPWbVujmtdzk5xzu4nZG9c8/I7PLOB6MA1EGlxG5v97/lotk1581jSUuaVwrvPlaLoE+Wc3L8/tl/1HD0tu07jlzpFXdu3cKhvWrZU9h4/KnU80l6JlbjLpGWsWwlC4zxlraGSoF3rn7rmHlIIB4WLj5w9+I5kGm0l0Vi1FCtTl5I/ecag5A24wRj8YBsrg7oU42zh/rN44dtIEAo5xXi+oA0ZTsa5biyUSGIBnq+X3dB+lhoGAZ599NuToNhxMWuMqor1wOoB4JaKFY/FuJJfYzggHwUDiiPmkMa18rlz5Jf15heRf0/k/kCFB4rLEy++soU8fr6OF3Vs2ypG0CZI1e05JY3rRhw8fk4uKl5GjxsgwLXGqofFyT+DGChplLrTbQODy4U1lDMTtt9+uLppIOPnzauRppDkPDbbbQICzLVYGApw0+YQzEMB5U6NuLZZw0PjzKdlyhazbevKLlallIJILnW06X+6fp4NUNRJxaiD4zfwvYwZ5oEkT2XngoOzds122/r1ZcsXnkKP/HJFsmbJJhoxZZMeeXbL7nx3yz/7D8mDLVpLGjBLMgEOOxp0GK3EKYaKat5EZybH8NrhRt1gsKaf2rbnkOTOKgGBDkdoGgnhi0ZIxU0Z1c+MtYPELI+/kkJxzu0lVI8EQIE7MJ01aOZiQRnIULCxpjpre48FDsnLDGvntrw2ybcMWWbX8D5m/4GfZvnWj7NnztxlJ5JY8pa/RJbByJI0c8VredJbAfMJ7772nbzqHmouwWCyx4blqBU4yFKdiBMEIO1ri0sapkWABDNGyg93TfknOud3EzEiE6v0ydZiQNo0kHDsqGdMY4xCXUUrddqfsPHREcubIKXlz55RCF+aXIpdeIqVKXiFpDx2Sg/8mSJWGTSS9MSZmHCHGUkhGDxthe9wWiyVagg3FqXAxJVdmlHkM5u+SO2kNKZU4jZmRCOWHTn8sbeLqJAyF+Zc+Lk5uuut+2b7/sBw9nCBZ8mSRf+P+lYT0RyWN+RwyI4/98cZ4XHypGYEclcNHjRGIS5CjHkYiku/bYrFYQuE2FKdiDoJ4ZtGCYdiydYu+IMtLtv8eTN6y7eSc202qjCSYYNFPGkKFs7TRnMZsTjA//jmwXw7s2S6bdvwjWTJmlH/kiBxId0yOxKWRnTv2yGFjPI4xfCBKrDEUko4gf8eXRzqTOJBcI8EaeVZzeS2TBC4QS8eC3xLm/Lv37NaVPKdrIik1oE4ob0p6LBbLfwkMBcYhtQ0EsOw8WrcPI4i9e/bqM8mKwH8PRG8kOGeo2GrRENeuXbtuZIZGwisMhB9osJ1GE4PB327DwbDpb2MN1/+5WtZ+94XkzhwvGzdvMDWRIHtMg31g3y7JlClOtu/7VwpcVloyxWeSDBlOXt6KgWBJFz+TYyTmL1ggnbt2kWW/LJPxEyfIlaVK60obN1u3bZOuL3TTmEBTpk3Vl1GuKlNG66hPv74ye/Y38ulnszTK4rXXXBvwFWJ4nm7XVqa+N01fcBs3frwcPHRQrihxhTbAzVu11DRKlSyp+wMhPFo81UrrrkTx4knfJkJ60R4TLaQx/eOPpE/ffvLrb7/K+x98qBPoWezciOUc4Moi8TqSSG1YZciLpgiF+YU2jmeftpPJa9LgZzTwPhLCXikhZiOJYCjYsQTi8hyWXbt2mMr50xiJTRKfLV4KFC4s2eNF8uTPLTmzZ5E8uc+TCwvllzw5ssmRfXtNw3pAfv11hfz115/6HkVCwvHlXykxELxX8dXXX8sLXbpKzx4vSbOmT8rMEDoMs4wBqFihgnTu9Lz07vmy/JE03PvBGAVej+/Rvbv0ebmXGsHgULwlipeQoa+9LqPeHCnvvD1GG3QnsBcrFDBO7tHJylUrJWOYC5+cY6KBdy3+XPenDB40ULqZeqlc+W755ptvkrZaLJZYwcurNPR+YYk4L8oyec0n2kUtnMsJ+5MSYmokaDTTpEmK12R+bt++RX75Zals37HVbDwmGeMzSlrT685c5HLJkD2rZDNGIWuOTJI7Xy6JyxCnBiBr5qzmZ1r9HDl6RDZuWi9//LFW/j14QNPE6CTTy6SGJdgSZ8qYUQ3QwMGD5K2339bvajxSXSreWUF/52W9rFmzyGEz5Lv5ppvk8cfraDlJh6Vl5NEL9uENX4wMXHD++XrhnLDbuLvmff+9lC9fXv8OhZ9jMCA9e70sj9evJ7VN/ka8+aYaxAEDB8pCl/DIxEmTZManM5P+SoS0WzRvLjmyHx8KR9tbsVgskSG8DBEP/EJ7xTtFGArammg7xpwrVHifaIn5SAJ1uY1//SWrVq9WF0uWrFnVHXPo0GHJmCmTZEibUcreUlmOxGWQTGnSS474eJOJYxJvrOTRjBnkf6ZxZhRCKPGDBxlqMfGdoGkS82f7jh1mJJF0sijBMj9YpYoMfu1V06j2kilTp0iVKomhI6o++JCGmADy67iQCLtNfvIlxSDKmOQCo2w7duyU8wt5TwoRBx731uWXXaZ/x8Wlk+uvu17mfPedGiZGJxjGS4t5X0g/x6xZu0bKlS0nb48aLW+Zz14zOiDg3x233y5z583T/OPTXGuMbbmrEwMJBkOwv06dO+uLfRxnsVhiD65cwvKkNpwjJRE03MTcSKRLlz4xGJVp+NOmSRwRHDWGAyOY1owmDh9LkLhMGaXYbQ9LukJFJV3hSyXrxSUl79UV5NKKj0uOS8uafdNJXNr0ejyTNoQc5/hjCUfkmGnwkuNqAtL68quvpFLFStKwfn0pVbKUfPfdXG18CSCXNymOkgM99LfGjJEKxnC5h3qkw3xGmSuvPOnt6BW/rpAnWzSXBo0aysu9exmj9MAJ1hyDsWPnDtWY+OGnHzW+UqSee6RjSl5RUoeVRHf9efFiddH9Y4zCpcWKGePwj2zbvl1WrlpleiM5PN/mZgVEs6ZN1Th+8dWXSd9aLJZYQmgNwt6nZP43EqTNOSKF9vFLzI0E5M2bXxskVjQp5qfphKvhyJhe5MDhw5I+dyE5v+xtkq/0bVKozK2SucDFki4+s2SJz6CGJQ2GQN1XostnmZHIljW7FCiQ/MqlZ79t+za5/bbb9OWUe++5RxYvWax++WBw14wYOVJKlyol17kmfjAQU6dN09/vMyMPRhdu3HMSAwe8YkYBieHCHXS1wQUXqssIXYOyHj17N5GO4fs3R74pR80QC8PmRH1kqFr0kqLykzEsPy1aJDeUL39SfoGyYhwwFLjali37RSfMLBZL7KHTiBRAahgK0iTtWLiZHFLFSED+/IWMoUgSiTEtPJPNzD2nz5DRjDQySLbsWSUXbxFmipeDZnSQJn0Gic+WXdJnymS2Z5L06dOx9EYPP2ZGEjnPy6VppgRcWgTNcowCritGPrihcCuxmgj4vXuPHtqDf6BKlUDDynEDBw3SpWmNGjQMuKSipVzZsvLh9A91PiCPj+iyEO6Y5SuWy2233iY33nCD/K9cOfVfOmAYPv/iSw0UdlmIG4fvO3ftGghZvtkYUoyLjatksaQejPxxb8fS9URapBmLyWo3qWYkIE/ufOaTX+JMY8r7EmnM59jRNBqmI+3Rw6ZbflAypkuQ+AxpJFPGOElrRhAJuJri4oTlryyDjc+U2QybCkiuXCe6gpJDzvPOk/LXl5en2jwt9Rs1NIbgRal8913a2I9++y2ZOHmS7vfuhAmyYOEC6f/KAKlU+W6pVr26zod89sXnuvR1zDtjpfJ990pFcywrnqIF1xZiQSyfpax+CHfMHbfdLmNNnl56uacu3d2RZOyAnkX+/Pnkf/8rF3J1BNuZg6BO6tavb9J5Rx64/37f+bJYLMmD3j6yBOjI0PlLLhxLGqQVyxGEQ8xChYeDUcTOXdtk7549unSTOYAESSNpTON8+OC/ppFOfMeCEB6HDh6U9HHpTSNFGOtskj1b5Kii0cIKIdwy9JiTOxo40/AqE6Oe14cOkWpVHw77Uo0ef2C/qe/sIV1SFosl9WAp/dKlS3W5PIti/IAbukSJEjpySA3j4HBKjISbvXv3qL/74MEDcviIRneSdMYgHDl6VNKnxxWVUTIzN5Eldd+APBdg9PPtd3PUANSvmyhKZLFYzlyYT0STGjcwv2MwWLACuJExDMRiYv6QTl9K4zL54ZQbCcupgxtt+47tUvzyyCuoLBaLJRSpOidhOb3Q27iy9JXWQFgslmRjjYTFYrFYPLFGwmKxWCyeWCNhsVgsFk+skbBYLBaLJ9ZIWCwWi8UTayQsFovF4ok1EhaLxWLxxBoJi8VisXhijYTFYrFYPLFGwmKxWCyeWCNhsVgsFk9OqZEgHDiiP/wMRaTtpwvU6AiCeKbly5I8UOLjmgIRiU+3Ch9Revfu3XvK7i9CylvlwUSoez5wJtwLZyJx7dq164bmAJUTCzk90vr1t9/kvBw5NDQ12sroE8THx8vyFSukxVOtpGSJK1Q+NJhI208Xf/zxh4wcPVquveaaU6o/QRTX5cuXy4YNG/Sze88eFU46m0J+I5C0ePHiQBlRC8yeLVuqKeNh7Ds+95xs2rxJZWCnf/yRrFq9SkoUL560x6ln0c8/y5sjR6qyYPD9FXwPxKJ+hgwbJlu3bT2tZQ4FbceSpUtk3R/rtKwbN23S4JSIZaWGxgkdhb79+8u3c+aoguMnM2ec9nvhTCTmIwmkP6e9N02tMz029KB3JSmlFStaVF7o2i0g2Tfrs1mqCOcQvP1cZ8EPC2XSlMnyk2lE+IwcPUoaPtFYdSLOJIKvYzRQFspF+X746Ud5c9RIqVWntkyZOjXQ249ENOdHlKl5s2byQJUHkr45swm+Bz7+5GOp17BBshQRz3T27dsnI0eNknnzv9eyfmQMeLOWLVRtcdeuXUl7hefPP/+UF1/qYTpUkYV7MMi1a9WSunXqWLneMMTcSDBsRt0sU6ZMOjrZt+8fOc/0fgFBodKlSulP2GeGvXv27NXfIXi7GwyO13CcxoTtfmF/rwYo3LZgwuWJ78PlKdyxbm6++WZp1rSpfvr36SsPPfCgvP/hB3L06NGkPUITqU40f4e8t0dTD8HXMVpKlSqt5WvRrLm8OnCQDB8yVL786kuZv2B+0h7HCVVvXucPdQ3okaJdnjePtxyuX5dnqPTdhKvDSMe6cd8Dz3V8Vp40P6mf4HsgVN04RHM9Hdg/UvnCbUeRko+DnzzkyHGe1Hu8rpa1e7cXZNyYsepVGPXWaF/lJf3t27fLsaPHz+sQan9kgfl44XZHnavETHSI43v16W0s+Xo58O8ByZUzp7mox1T0Jneu3NK4USMpecUV0m/AAGnXpo18/c1sGTJ0qB6bI3sO6dOrl+Q0xzjb+X3Qq69K/nz55Muvv5K1a9eqMtMTjRpLpYoV9WHHtzp8xBumJ/mZ3hwXX3yxPNehoxQpUkTTdUOPdey4caoH++msT1USteqDD0n9evW0R8GwvlffPrJu3Trdv+zVV0vrVk+pgePYCZMmSZvWrdWAffPttzL4tVd1P26gx01P5EHTMyUd8pwnT275ZMYM2bJli5xfqJB0eb6zXHLJJbr/op8XSX9Txr/NNuqo6kNVZbVJn7QxrG7e++B9/YlhcKAH+d7770vnTp1kxqcztb5//fVXbfAxIuTPq064Rn3795MrzHWgp07P7dJixaR9u2cCdUadDh0+TGZ/843+XbhwYen4THvVpqAe3hrztg7/v/r6a3npxR6yfsP6E65j75df1mF7vrz5pEb16vo9ddSnX1+57dZb5cYbbtTvHCjPd3PnylMtWyZ9k8h3c7+Tr2fP1rzRy6PeevXurQqG7jrHXRR8H/HQY0jHjB0b6CG2atFSbjGNLfcN1wjXzv/KlTuhjpf9skz69e8v+42RwPVR7eGHpWb1Gie5gKhXr/Tp8VLHxYpdKpPNCIBG8uabbjLX92mtNxqpnxb9JH369lVXG9cHjfKly5bpNfVzD8xfsMBcn9nS9uk26nr0qhvyTTnGT5wgEyZO1Lzw7GAES5YsqWmSfjT3EIR77px7jPJP/2i6nr9h/Qaybfs2mTFzpv7d5Ikn5P577zvJhcSx7uffgeeItoXych96lZdRRPuOHQOjiGZPPqnfh3te3fXr/p3rOHDwIFm8ZIl+hwuqXZu2qjN/rhGzkQQXtffLvfTB4uKMenOkXuy7KlWSt8wQ8qYbT2wcKt91tzSoV19v2pEjRnhac4zJi6ZH8dnMT6Vnj5dk4qSJqgfLw8aND1MnT5FZM2ZqD2Tgq4Nlx44d+n0wPAjMK8z8+BMZbfK3ZNlSWbVqld7oY94ZK3fefod8MO09mTJxkt4Mn86alXTkcTZt3qwPP43h1EmT5Y2hw2TOnDknuIB44OkNk6f7zMMwZdpU7QVxsw8dPtzUTzPdNnLEm9ow0Vj7gTL/+tuvUqBA/sBoa97386T1U0/JyDdGqLRhpDrZ/PffKok4afwE3V6xQkU1Cjz4Tp3SUFEH1AUNGNudCT3mmy6/7HKZ8dHHUq5s2ZOuI0bl5ptuNg/XYk0TTEdEtm7bZgySfx3eggUKquuSDsz6DRtkxMiR0v2F7lrnI4YNl9nGgPz4008h76Pffv9dvvnmW61f9seYcQ1Izwt6mdPee0+eaPyE1g3n+P33laa+NiftcZxI6VPHzBt8Mv0j3f6Pub6Oe4jOzrA33tCycE9zb3OPh4M5se+//14/5JFrhGY5BiJc3cDHMz7Re3zyhIl635e/vrx8P//EEVo095Cf527Llq3aAZpmtvfr00fGjX9XOw38PXDAK2YU9JXs9Ok+AjqH8fGZ9dkLV16ufefnn1e95xHD39B7w8/zGgrmKXLnzq31xoe0f1q0KGnruUVM3U3cQEw4OUN5bgQa21CTTjREmeIzSYYMGfXGDO6tOTxQpUpgEhs3wZ133ikLf/xBdV9pMHlYMsfH6zmuMSMhRi1MloeicOGLpMyVV+q+efPmlQsvuEAfYM7dsX0HPRfbmCy7ofwN+rAHU6hgQXl10GApeklR/btAgQKmJ3WJ7Nl73N1xx+23S9asWTWtUqbHRgNED2atediZd7nu2mt1G/tgRMLx7vjx0qBRQ/3Uql1b5psHvGaNmno8VDD1Qb3wN66+SHXCgoIq992vZWQ7jSvlpxdGnf6yfLnp8d+mhoveVJkyZdSoOHVxiek1ck5GYhwf6jpeliTKvnr1av3JXAOLEajz5PDzzz9rTy6fOZ7eJnm/9pprTcP7Q8jzM2J9xYwInPuwiDFcGB0MjheUh1EBxo3yktfu3brJBedfkLTHcSKln/O8nKYxvl7rh2uMC5URNSxeukSvP9cMuLerPvSQ/u4FmsfOnASN5L79+wK95XB1g2Fne/VqjwTuR+6H6669To91iOYe8vPc5c6dS8qXL6/bCuQvoM/ZlaVL6995TMNrGorAPGW0hCsv1z6bKWcGcx1zGMPCveHneQ0Fo77fTWeU9gxj3PSJJlpP5yIxMxK4a76d8638sW6dfuj1/GgaB3rPDA8ZZiaHvHlObFi4eNu2bVe/I2ly8zvwkNPr2LhpY9I3J5I9e46Ae4ALnzHj8aE9K6uat2whjz72mNR8rJa6R0LBqAMXR41aj8rj9etJ9Udryldff5W0NZFcOY8PSbmJ4+ISDSD54pzu1Uk8NJkzxyf9dTK4xPr37aefYUOGmMZpwAn+dHo7Dn7qhB6Ze3tiXtKoseT4DRvWqyuk7TPt9NPjpR448iWt+YC7Dr3gGl1jRmz0WDE2ixb9LLfecos2En6hw0HDz4O/xvS+cRk4eeJDnXOeUGCU3x4zRh6u/oheIz6/LP8laWtoKNOTTZpKwrEEadqsmTz4cFUZ9dZbmlYwkdKncXLnzf07rh33NQP3/RIK95wEbrl2T7fRzgMNeri6wa2EwWOy3sG5H9xEcw/5ucfSpUuvDXWs4F5ImzaNZDTPUrT3gp/nNRTcr/dUriw9e/eS+x98QJ57vpMp36akrecWMR1JHDp0WHsv2bJmk6PHjsrGjRvVh5gSduw80XWECwOfP3MF9P4clwbg0jl48F/t1UQDD9uo0aOlaZMmMn7cOJkw7l1p2bxF0tYTWWGMybfmJh0xfLiMGf2W7ot/2w/0OPeYHqDbYP5l6mj//gNJf50MvWRceXzCjbjAT51wfYK3m8dQspqGhOO5Xj179FB3ofNhMtnLHejF/8qWk19WLJfv5s3FxkR1PI3CgoUL5cILL9DG6AKTJ9yW7jzxqV+3XtIRJzL722/UTTT+nXF6jUaNeFPnXiJB+XGVcg/gevnN9JjpoQaT3PSBstDQunFfDz/kMZ0ErvO/xliFqxuMFXNwbnemcz94EekeiuVz55c/1v0hu4yxO9+MSKK9F5L7vPKc4a7CPYWbrFTJUjJh4oSk5+XcImZGgsYFV8SFF16o8w+sQadhYyh49VVXa486mHSmh73fDJ2x9jQMocAHiz8b8G3PmzdPh+80mEWLFpUPpk/X4+HnxYvVf1v88sv1b78woXfo8CGJS5vYw+cB+Ozzz/T3YI4cPWIM4DHTs06sujVr1wT8v5Fg8nrHjp3y4UfTtbEmr+9OGK+NaCzwUyc7d+0MbKfOWaOPkSpYqGDg+HlmFOhcj7mmvllS6MxJhCLUdeSdm4suvEhGmwfz+uuv1wbLDxjs9z/4QCfl77v3Xh19XH3VVfquANcfuD5dunWVhT8kNuDB5z/470E9jsYMlv3yi6cL0gFX0TMd2gf89dQFDSIrp4JJTvoO3LvLli0LlIXzMtHvF8rIogGMJy6VcHXDu0k0bl/N/jrQMSGfCxYs1N9DEekeiuVzFwlctKTdf8ArUrFCBZ3niHQvpDUj40PmOEZ7NOjJfV7fevttfZ+EMtJ28Xzs27f/hNVa5woxMxKAnzSLGfYxqUqjQqVyI3tRrlw5nUCqWauWTuiFAp9+m3ZtpV6D+tK0eTOpZHoRpUuVVjfJY4/WMjfLJnm09mNS+/E6uqqCVVT58uVLOtofDJW5CTt16Sz1GzWUVq1bywWm1xIKJm3x6zdo3Ejq1q8v75heJ/MMfmD1zTPt2ulDiqvijTdHSK2aj5qh8nF3QErwUye4t7g2tes+LnXMZ9jwYWbU1FzzxvGP1qhpHriFOizn+CFDh2ia4Rr5UNeRtHRuJltWKWc6DOFgPXzFu+/SD/mm0e3V82W5uMjFup3VM5UqVpLmrVpqnT9m8nV+ofO1wYDg82OUGMXWqVtXXQyskro4xIo3NzS6tR59VFfBcA7yQSN1U9BqLEhO+g5Mqt5teqhOWVqYn/SOw8HqLad+7q1yv7px8ZHTeEWqm/vvu0/LgbuF7WPGjpFil3qPeiLdQ7F87kLBS47ce5T1vgeqyPA33pBGDRvqaiiIVF7mIC6/9DKpU6+udsaS+7xWuf9+WWdGMFxjyjhy5EhT7kcjulrPRmK2BDa50PPD4odyozhLFa8qU0aHzBifUI0VvQkeBHyv4dwxkaDxpAcSKR3y7ExS0rhE42vHT0wZnGPoAfEymLPUM1aEqhP3EkN6mV5ldcp3LOGYvvPip3yhriO+499++00f8mjqyAvKQ77Ie/B9EHx+/t6zd4+kT5fe018dCnqO3Gtci3DHJTd9B8rCNUrpPesQrm6Ac1E/0dyvkZ6rWD13ySFSebmOGDTK6tzPEE35neOieQ7ORmI6kkgOVHykG4ztDHND3QzAQ8r2lN6opO8nHfKMr5dPNDcOIy1GK7wXwA3I36wlZ3VIrHsokeokXFmd8jG68Fs+93VkBQyLF97/4P2oJ6zDQR3hwgx1H7jPD/xN/qNtwEmDeol0XHLTd6AssbhnHcLVDZDPaO/XSPdQpO2pSaTykienrPxMzvPqHBfNc3A2ctqNRDiyZ8+mKxrOFrjZWjVvIe+Of1cqVb5bHqtTRwhBcsftdyTtkbqkjUsruXLl1J+pCfMcL73cU+6qdJe6VywWy3+X0+5uslgsFsuZyxk9krBYLBbL6cUaCYvFYrF4Yo2ExWKxWDyxRsJisVgsnpyzRoJ11MRrIqAd68f/6zhr1k8nvGey7s8/dXlvJNiXz5kI+fdbDovlbOeUyZfyduiKX3+VNatXa2RF9wcpReK+sP+pgDwSwO/rr7+WuHRxGlUypWu9aVAo37T339O3fnnzkxd93DiND3UR/F4EK8w++/xz+fyLL/RaFCxQIFAfGLHgunPWcDvrtwkhQLqxuIbJhfASCxcu1BDiTsgKL84E2VAveJlu4KCB+g4AeiCpwamWbbVYkkvMRxJe8qXEPCGuPeGOkSccYB5CYsrw9y+/LA/EgTkVkEeCrCGVWrvWYwFthpRAozfglVeMcSikIRt4ac6JOQUYCPZ5qedLgWiZDoTpfrptG62fYsWKqihSj549dXQA1OWkyZMC9TXfNMSdOj+vMZWcfVIK8p+8+Z1cCGH9+edfqCzoqXi5KiWSqZHgrdyaNWpoDCmv+uVFSOqfa5ccCCPiyLbymTJ1isqSzl+wIGmPM4No5EAtZycxNxIEaAslX0oPCb0Gwh0jUkJPu8Yj1fXv2o89FvbNVRpYDI4XGBgvI0MDG+yGIS2MVqi3KFHnitbNwCjgl19+kY4d2musnBbNm2vEV0KkO/DwE+On50s9pVjR47FzGCUgWHNP5XukVcuWUqlCRenWpav2Kqd/9FHSXki7ZgrUF+Gih7z2uinHoRPO4UD5vMrAtlB1hfxnqGB27Buu7h3mzp2rwetCxSGKVKfhtnudP5xkKaFPUkrxy4ubezJeNQVCgTwmHY1Qdem3zhzZVj4vvtBdlRA/+NDbMDn4KWO4e4DvqXM/UBbKGUoO1HJuEDMjwct4HZ7tKC+8+KL2eBs3eUID5fH27dNt28qc775L2jM09KyI5ohM4V33VFYlL25QGtAHqj6k4vgExUNWk5uc8xHjnZj/xHsn8FkP00t3HjAEc7p1f0GDhfFhX5SzSLdJsyd1LoLviQ8FRLF84smmGiSO9F4fOiTwoCNryH5PmsafQGGc2w09z2c7dAw0/uSPxj9Tkl7F33//rfH/CaQXrK28zTyAG/76S2644YaA0aInXqFCBVWt82oMMKoEVNviUltjJEIZCIxWs9ajJxgQytesRXPdRl31f2VAoK4oG0H2CCTnlI9tr5jRHnXBMaRLGqGgM7B8xXK5/rrrAmWgzpC45J64z3QOSOedd8ed0KiiNeJsf6jawzLz008DDVu485M2eSXP1apX13uHdEmf/as89KDUMNfWKT/xsegNu0O0o5Y2cdKkwH1EepXvuzcgYYnrDplXZFSD4Zi27Z/Re4h7ybmHoqmzUBTIn1/T4L7zeh68ygjkA9U45x6oVqO6qis6dcrxY995R4/nPidoJvcYhKoH8oAcqPOs8B11yTVz7h2Y9flnMmDgK2fF3J7lZGJmJIijEo18aSiCpTFTIhPpJT+IMl3f3n0CEoeNGzbUofTg11/TEQ6x44k5Tyhidwhnt8QjI6NQ0AhxfiKJ8kCioQyMIMqUuVKWL1+hcwfoXzsGaGeSL5qPG86x14xQvCZ3iY+EK8CtnOZIvSIp2dT0TmkweJid8j1c9WHdNv39D3SkR4PBg00doFCHDCiKa/jiI0lUusGQ/fPPvpP0fwlp3aB+A5XppN4YbcxfcFw60729R/fu8uH0D/Xa0qiFO38oydIvv/pStQPeHjVa00PecrjZtvaPtaqUt3fvP+r7B0a7S5cu1ZhZwH2UYP4h14pqnwOjwU2bNp10Dbg23Tp30XuIe4n6i5TnSHD8uvV/aofDmcsKfh7CldHBS+4XOH7lqpV6f3OfI9VKlFX0pyG4HqjXYDlQ6vLIkaOBuuSeRy0Rtb1TNadoObXE1N3Ejc7N40e+NBTB0pgpkYmkpx1KfhC3Fw2yI3HIfvSYCHFOCGFGILinkPBcZIyK05i7JR69yoNhQEf7z/XrdfKTxoXjUS1jUhowHMSz79nrZd2OYTt8+MhJaZJH5CEd0EugZ+lImdY1vUAeWCdEMiCDiRwmaRW+8CI9t9MrzWkaNgT52UYvGSH4337/TZXLqANU4BA4Ir4UjWg00rBOrzLYZXjn7XcEpEzJF7KrBDd0epxOnQLhnskX1zaSRCYGzi1ZSnroQDxS7ZGAyhrpUtc//bRIQ8EjCoR0KNC7Z9LfCQfPfUR9cH53Q5cYwO/kMO7kh+O5h/Q6mXL7kfUMBoU053oStp1w1Bg/J2id+3mgMQ5XRgcvuV/ug3nfz9d4Wtzf3OeEN+dcyKNCcD0wog2WA6W+0Yn/Zs63egzPFwYY3QrL2UnMjEQs5EuDpTG5sZMrExmN/CD5XbpsmXR87tmAJOI4M6zngXAIlpwMBednfuWVfv3NiKWMrnTCcB49ekyaPPGE3HvPPfqAtWrRQhtiGiuEVI4ePXLSvAkPMUbEWSVE77Jd23YBKVNUtp5o3PiESWIvGUzKR93y8DuQV+ZlOE8wfiQq3ZC3jBlPDsSYJ28ebSwdOOfu3XsCZfWq02jPj5Gitx48GiN9XHnkAVcY+sjU6fyFC1Re1amP4PvIgWuXkODPFx9tnoEw+M71RId59MhRKkzl4H4eIpXRwUvul+MxBkOHDQ3c4yx+IN+INoFXPQSD8fv995XawcD9xCjH/axYzi5iOpKItXxpSmQiaTz9yg+yIqlc2XIy3OzrlkRs+3QbXyufeAAxis4Ih0aJh33Llq16vri4tFonDjRONKwH/j2ggvvsg1vDzW8rf5ecptF3Hto0adJqA4Fbj080YY8pHz1dtyFCvQsVryyuRs0BdwrGyRkhAHn0kqikIcMFEexWoQFyQ3o5cmQPNHxeRHt+Gjfqg9GbG45H6ha4HqbNV/86OtMY8UgwX3TsWIIvN0q0eQZGQs715BOuXvyUEbzkfjm+YMEC0uGZ9ifc43xKly6dtLc/GIFly5ZV5xnpADpuO8vZScyMRHLkSyOREpnIaOQHixa9RHvUq9es0b855rUhr6uP3C9M6vGOA71PepSzv5ktRU3DhCBLyStKysxPZ+rIiO1M5tNoU1c8+Exajx33TsDIMNE9Y8ZMufuuuyI2qH6gfFu2/B2QbaR8n8z4RFcioVQH6dLFyT97/9GGjd5vNBKVGLICBfLL6rWJ9edAffAuBFA26gABqUiNLr3SSOd3S5bSAJY1vdnJU6cEGmneR2Eu6JpyiQ1Y4nW4QiZPmay9b6fcXnCdlixZIqVKlQx5DbgnkcVkPoY685PnlECnIlIZwUvu1zk+WMoUyVbe2fAiWA4UeJ5QHUTljvvXS8XRcnYQ05EEE6TRyJdGIiUykdHID+bJnUdqP1ZLV0OxL7KM9Ior3FkhaY/w0Eg+2aSpTnTXql1bpSJpCFkOC/zkIX2kZg1N+40Rb6j7ifPCvZXvkWJmhFS77uNazmYtW6irzJn4Timch/O99vprgfIxd8LEqtNgM3/wwYcfSuOmTdQVFo1EJWkwcckEptMAAQYBfWJkI5GTLHxRYV/aGaQX6fzBkqX33F1ZR2XIWXI+JG8ffqjqCXoW9HjXmH1vKF8+oqFiAv2XFcvlf2aEGQoM6Y3lb5A2z7QzHYohvvKcUvyU0UvuF+6qWElHk46UKe7Vag9XU5enF8FyoA6MzMnLbbfemqwOoOW/wxmvJ0GPLrkykRxL2fzKD9IDZDiPIYn2XBApr/QADx857JkXDCs9U/zasRhBBOPkD1F4zhGcB7bTW3TPc2ieTcMSSaKSvL/cu5dOjNIIO0tJmQhNicxnuPOHym8s6pB0WanEaA/p1XAGhXuG7e669FtnycWrjCyBTS253+By/r1li7xujGPbp5+28xFnOTEdSaQG3JTJlYnkWIbDfuUHeWC44ZNzLoiUV74Plxce6Ei+6ZTg5I86CZUHvgtuNDTPpk4iNSbkvY4ZRbECB9eEQ6Q6iUS484fKbyzqkMUWrPyqWrVqxBEH5w+uS791llwilZHzcv5QBgKSkz+nnFxblszitsN9RzqWs5sz3khY/jvwMmGb1q21B4vbkc9/EZaQ8tZ78IuPZzqnQu6XGFMv9XzZjOCOBdyplrMbK19qsVgsFk/sSMJisVgsnlgjYbFYLBZPrJGwWCwWiyfWSFgsFovFE2skUhHW2/NiGj9PB6yF52M5M3BfD947YMHI6bo3LBa/xHx1E2/c8ro/MZZ4E5PfCYOQGMjuqIY/3rtnT9Leom+jXnzxxSetNT8boE77DRigIdNZ134qoRHq06+f1nnH9u2jem+Aa0ggRcKiAKEZeNM9T54TA/b9lznVZQy+HgTbmzBpki4Z9nqfwWI5E4j5SMJLvhT4LliGs3uPF2Mqw3k2kRLpSF5+ql2rltStUyfqF8t4W3fkqFEqM8t1+ubbb1RA6o0RI7SxO1OgXpIrIRpcRgSMCIfS9YVuISPjhiKa65OS62GxnE5ibiRwrxB2gt5RYvymRPlSB78ynJEkL91uFPZzv+UbDCEMkjOsJ02/x2kewkhCRtoeKo80yERSDSUdSd4iNdiIxvAJxk+5cuQ4T2M7cZ3atWkrgwcOlBW/rtB4SZGIVN/hrm2kenITTkLUD+4ydu/2gowbM1ZfpBv11mjt8bsJledw14dtwfnyuh4O7B/uPrZYTgcxMxK4VpIjX0qIALcMJ1EzkV/0khElsmvrNk+r3GXLp1qpYlzDJxqr5gR/OxEwAcNDoDWkHu+5/z5VYuNBDCdnCRyHNCSSqUinooYX/MADZUanAklJ8oMMJxKhlMEBPYKPZ3wS2E4duUNqe+WRxjhYOhJI20uGNBiOcY5z6o46cqQtF5iRnF8I5ZElS1bZYzoBTrmDJT+9ygLsE07OlJ/RSGvyXbCEKHXWsvVTGlbDAQU6jvUzUsU9+sjD1VRIhwiq4HU/el0fdFXIQ9VHqumHoJHOyIR9nP3ckB7pck2454LvIYvldBIzI4HPPTnypTTqq1ev1rDajswmvTsvGdElS5dIp+c6yftTp2lU0bfHjtXz8vdll11mjNEc3W+9edBHjDR5aNtOpSSRMEW6kbTCyVk6xyENiSTqiGHDZfbs2YEw28Eg+Yj4yqTxE/Q8FStUlKHDhwUaJff2jz+crvMzjkpduDyGko506sdLhjQSNOKdnn1Oj336qdYy1Rg/3C5+oMe8e/euQMTQYKnLcGVxCCdnGq20ZigJUUJW58ubV9MBev7EkkI7wm/sKKK7xsdnlk3mvgt3P4a6Phi6Me+MTYyoa/I5ZeIkVWZEZzoc6INv3LhJ3h37jh5TqWIl1XK3WM4EYupu4qGMJF/qluEkXHFT0wskLDbhjOmdRZIRRYKT9PHxFi1WVEoULxH4m0YCQRlAhezqMleppjXnJ2ImvcSFpveMT9hLzpLjShQvro0NvVV6l2hi/PDjD7pvMOflyKGNFvtxHnSXyYvjJ3dLQvKhUaHBg3B5pOzB0pHUTzgZ0kgQzrtAgQJ6rBNe2j2acrNl6xYzYmuj16m++TRv1VLDTrPIAIKlLsOVBfcT0HiGkjPFoEYrrck5uGZuCVG2oXNASHnS4f5joQRRaZNDuPsRoxx8fbjuHdt3UAlR5/rcUP6GwPX2AvEh9D6Q2yXdBx94QOo+/njSVovl9BIzI+FXvhRdBXqbvXv1lmKmkUfuE3EdHio/MqJ+e4ToBgTLZxIamVEDBsdLzpLjvvn228D5+aBF7HVeep00iA6JUUPTqHY10Hh4HRsuj+QrmGhlSINhFONA45YunfcEKvu+0K2bSmsOMB96uRhDJ6/B5fJTFi85U0Jyx0pas0SJK2THjp3a419heuiIYRUqVChpa2To6KRNm0YD5fm5H4NZvmKFNG/ZQh4193XNx2pJn359k7Z4c0WJEtKwQUMZOXqUuqhwCeLGsljOBGI6kvAjX+rIcNL7x0DgesFVASmVEXWD6hqNjBsMFQ0XjayXnCXH4SJzn59P/br1dHswlNft7050+yRIVnOeSETKYzDRypCmhLi0cdpDxo3IJ1ID7acswdupN+RMMbKxktZkpIUSHPNijCgYdUUK9+3mj3V/yC4zKjvfjCqjvR8xiKNGj5amTZrI+HHj1D3VsnmLpK3eYDjptLw6cFCiO+3+KmqM/MyjWCypTcyMRHLkS4sULiIV76wgEydOVH9uLGREHa6+6iqZv2BBQD6T0QMT0FeWvlIbLj6h5Cw5brkxHM7EJQ8q7jEmu0Oxc9fOgGQlvVAm6vfvP6ByqZGIlMdg6Ug/MqSni0hlAS85U4xEsqQ1gyREgQb31ltu0XMx3+W4tyKB4UVuFCW9ihUq6NxLpPsx+Powojt0+JAaWODe+ezzz/T3cHz51Vd6j7E/+UcNjhV/TpksltNJTEcSTPRFI1/KA8EDiXj7Dz/+mGIZUTf4zpGT7PDsszr3wdAfV5c7Bn4oOUuOY+IQHzzHIRV5fqHztREMBY0zZa1d93GpYz7Dhg8zvcfmKrQTiUh5DJaO9CNDerrwU9/h5EyTI60ZLCHqUKRIESl6SVEpf931YV1DmzZv0pVJFe++S1d8MVGOEt399ybmOdL9GHx9yA/3c6cunXUeh9V9fvSfGUWQz3oNG2jZu7zQTao/8ojOuVgsp5szUk+CHhurbphg9uOHDkdy06LBol5o6PCHh4I6c96oZj96lPSamcCMhkh5ZLszWQuMWMLJkJ5OvMriLP2MJGdKb5q6j6Yeg+uH83NdGtSrpyPblBLt9aHTkJx7ITllt1hSm5iOJGIFDwg9q2gadS+SmxYNAu4yLwMRDPtxnuQ83JHyyHa3IeD3cDKkp5NIZXHy7rWd76OtR6d+aKyZ95jx6Uytm2gmrMMR7fVJ7r2QnLJbLKnNGWkk/iukjUsruXLl1J+W8JwKOVN68LxUt2TJUqn3+OOn3QVnsZwNWPlSi8VisXhiu8AWi8Vi8cQaCYvFYrF4Yo2ExWKxWDz5TxgJlgYyKelFpO2nCpYv8tYtS1RZacNcD7/HijOlnMGw3JPyWiyWs4+YGwnemCXUhfvN2VBvzfI2rDumUziILsqyRi/CbSemFJ9TweIlS6RXnz7aaBLgb/Brr+nvscKrnLyZS50TL8v5rFmzJqYGygsM4TMdOshbY95O+sZisZxNxNxIhFOmc6BRG/vOWOneo0eqx81f8MNC/ZzNUNenS/GPF7+aN2smD1R5IOmbM5fRb78lsz4LH7bbYrGcSMyNBO6WcMp0wAtPRIcl+NpCjxDcuC/CuTAibY+GlJyL3no0o4VoXTOR8uYQC8U/v+dyw0tkl192WSA8fDgipc82d97C5TXcNqCeg7fv2bNX9oUwmhhZPhaL5WRi9p4Ex/fq01sjqh7494DG3DmKvOSO7ZI7V25p3KhRQHiIUNzoMxAjBxdKp2ef1TdNAffT+IkTZMLEiRowDX0GAriVLFlSHnrgwYjbg3HCQYTaRvC2gYMHyU+LEhvSwoULS8dn2muwQsrTt38/KVbsUg0CyLkwam1aP61vxtIA/bToJ+nTt6+604hddMdtt2to6c6dOmkEXLfQPSMmwkbjfiMwHfl+sklTTYs8Um/EYaLx69+nr/bQ/ZYTYzxg4ECpWb26Rrd14MWyiy66UPfn/D1799KRHg1i5bvvlkYNGmqcrUh16k4HcGUNfu1V6dq5i76VzvYbb7hB/leuXMiycA6EmBwhHXc9k9bYceP0DWlCzVOvrVq0lLnz5mogQ/5+tkNH1cKAcOXg3Js2JYYIR0eCWEpElr32mms0j+hYA6E6yBcGjuuPmxDQEUGqFQ0Ui8WSSMxGEjQWfpTpeLBpDHjoeVjj4zPJWpfLCanPVaYhRdls5sefSPnry6u6mEOk7dHw/gcfSL58+VV1jBDNt958i0ycPCkQfROxGMKafzL9I1WpQyOCQISwdu1aGfbGG6pgh9Lai91ekK+/ma3bgvGjKIcMa+unnlLFNkZeKS1nNIp/saxTcJcF44/xobyorlHPGFOMhjMJ//vK3zXI4ntTpqpRHTR4sAbR4+/27Z7RSLfsG6kc4KW+h3Idxq9BvfrySv/+WsffzpmjEYApNx/U5pwOg8ViSSSm7iZ6fZGU6XioEYVBHIaG4/rrrw/0IGkIEAKqXu2RQOA6IrVed+11emyk7dGC+teTTZoEYu+Uvfpqc46DAdcDamjlTf7YxvlKlyqlIyNA1Q5Dh6sFUFqr+tBD+nsw9JYjKcpVuPNOTYvtuEqiLWdyFf84fyzrFNxlwf3IpDrno7Hm/GXKlNHzOoptRGylbuGC8y8wo7IigXotYOqVfRnZhCuH4/LzUt9jxIYCXCbTKSF2FNv5DjU47llCeDR9oonm3WKxHCdmRsKvMt2y5b/Izp07ZMKECSrM/9NPP8nixUvUfUBDQIOAq8WBQHu4DSDS9mhBx5jQ1oSLJiR4x07PaWPrgBGjIXFw/45Lxa30BrlyhnZT+FGUc6eVnHIShTY5in/aQ49hnYK7LMw/bdiwXt1yzrl7vNSDyQxJaz5APfuJs+RHKc597kjqe+hOYEhxX93/4APy3POdZOOmTUlbLRYLxHQkEUmZjpU23377rdx9993aay971VXaE8yeI7v6kGks8E3T43TAHXPwYKJbItL2aKAXOnLUKHWHTXx3vIwbM1Ze6NpVz+GHUEpsXiuJolWUS045k6v4hzGIVZ2GArcO90DPHj1OODcqbLh3oiGWyoXACLLyXXfLGyY93FelSpaSCRMnBFyAFoslhkbCjzIdw3pW3CAwg5uJDxOe9HiZ1OSh5UENVihbsCBxCSu95XDbo4Fe/OHDhzSCK71tVtZ89fVs04v31zjiHllmerW4z4DJf7dv3E20inIpLWc0in9+zsV1Xb1qdWD1EX77PXv3Jm0ND738okWLyjwzsuRYmDtvni7PpUMRDSlVLkyXLk7+2fuPGgHy8tbbb+tolnS4PwsWKmiM5X69NywWSyIxHUmEU6bjoZy/YIHqDwe7MtCX3rJ1iza4KJnR43YUysaMHSPFLi2WtKdE3B6KIUOHqvqY86lWvbq6x+6951557fXXNZ2GjRtLXNq0kjlzfNJR4cHffbfphToKdi3MTxr9UCRHUS455XTA6EWj+BfpXBjzdX+u0+NQ38NAMFfgB8r3aI2asvCHherW4/xDhg5RFTu/ozaHlCoX3nn7HfLBhx9K46ZN1NhUuf9+WbfuD1OmupreyJEjTb4eVXebxWJJ5IwNFY7rhh6fM5kaTKTtfqFxpPykk5zGgePJCz79SGIxGMpoFeViVU6gx4xbiXK651cc3OfibXH3slcn7xmZ/I2ycQeOp56PJRzT92hSUpZI5QgH+aCMzrWKZb4slrORmI4kYgkPP75yr4c20na/0NDgFktu75HjcKlEMhBAXqNVlItVOYE8klevhjXcuZy8J8dAAMeTtrOyKCVEKkc4OLf7WsUyXxbL2cgZayQsp5fs2bOlupKcxWI587HKdBaLxWLxxI4kLBaLxeKJNRIWi8Vi8cQaCYvFYrF4Yo2ExWKxWDz5TxgJ1u+Hezs30vZTBe9MnCnype68BMM2PhZveJeCKLpO/fFzzZo1gThkXteXvwlH47y9brH814m5keDhsPKlqS9fSp1St1648+KGxq1v//66LVpDwbXimjkSqQsWLtTAjKEM0X8dQo+MeWesBlukfKPfekt6vNxTQ6ijl+J1fTEu704YLzNnfZr0jcXy3ybmRsLKl54a6NV+MiN0rKhw8CJZ7Vq1pG6dOlG/QMhbzgRFnDf/e5VJ/ebbb6RV69byxogRanzOFAgPQ2woGvLkwPGIMD1ctaq+sMeIgQCUnTo+q0JRvHjnBfVbo3oN+Xr2bI2AbLH814m5kbDypeFh32jyHSlvbvzmheiroSKwcmykUUGOHOdpzClkUlFxGzxwoKz4dYUarUg4vXIvwkmSatnMdj8cQxHR3GPR1LMbAjei/1H88uL6N+kcMuf2+0Y2MbxKmGN/XJQY0NFi+S8TMyPBy3gdnu0oL7z4okYUbdzkCe1lLjI9zqfbtpU5332XtKdoryxfvnwqX4qWBHoGDrg03h47RuP731vlfun/ygBjePYkbY28PRoI8kawuKqPVNNPy9ZPBVxTlAd9gVFvvRU4V4+eL+m8ANBooZdRs9ajct8DVeSJJ5uqupsXjJiatWiu+zr5dtJCdhN5zSebN5cGjRvpuaMpZ7R54Xx8nN+JhNryqVZ6bLUa1dWN5BdCWmTJklWD/jl1RkDFyvfdGzgHLioC6FV56EG55/77VJHPacDZZ/iIN/Teua9KFS3vO++OC2znJ/vzfU0zAqrXoL4s+2WZbgPqbfTbb0mNR2tKp86dNUhk2/bPqMuzSbMndTsGjGvr7tkvXbpU8+pcAwfqElfTddddp5FhObZxkyaB9DhH8LwQx6By2KVbN00PY3LVVVepSy6aDoTFciYSMyNh5UtPn3xpNHkJBY14KMlPP9Bj3717l2qaA3WWYP5Rn1Xuu181LZhLQRCJ9CnPylUrTwir/tXXX0uD+g0075R/7ty5Mn9BYlm//OpL3R+pUq7TE42fkOGmrNu2b9PtQHThwQMHSY/u3bXz0a1zF43S27d3H5UtveCCCyRf3ryaDtCoU5dEHw6O/0Sjvm3bNimYv4D+zYirf79+gfQ6tm9/gnbFMZMW8w/UIdKrTnp5zfl279lzkhGyWP5rxNTdxMNn5UtPht5oasqXRpOXUHhJfoaCkO6tjfFHJrW++RAqvZLpCFx88cW6nTqjbJSRMOGU4+oyV5kG+cpAPT7ycDVZaEYruJ+AEN6XJZ2XvNesUVO+M4aCBnbe9/NNR+MuvSaM/C4uUkTvm/Xr1+v+QFk5jvTTpk2roxtU6TDwNNrk5Y7bb9d5AtLhvmQ0i652MM5cmqPUx71BOk567gCICQnHZN68ufLll1/KUy1bneBWJUR+lszH1f4slv8qMTMSVr709MmXRpOXUEQj+cm+L3TrJv379pMB5vPu2Hd0xOA0nMF1tsaMcvLkzRPYDpSLuSvHbRO8neN3796jan4Yg6HDhgbkSjt1fl5HL+nijkdy9VNWOiV0TuikrFixXEWyChUqlLT1OBgFDJkfkFJl1RPXcF8ItxVGxGL5rxPTkYSVLw3tWkht+dJo8pJS4tLGaS8Z9yIft0EIRai80WHAUDhGM1Tec5h7gsa6YMEC0uGZ9ifIlfIpXbp00t7+SJyIvlznyxhRMKoLJfiEkTDtuy7RjkShggWlf7/+ck/lewIqgA7Mzxw5cly3wmL5rxIzI2HlS0+ffGk0eTnVXG06AswZrFqdOJGOK2fKtKlyZekrAyOlz7/4IrCdvM/8dKZcVaaMGomyZcueVA/PdGgf8t0bB1xOR831ZUTmzPlwjW+95RY9FwbAcW8Fw4iNbUuXLU36xps8efKqwbzjjttl4+ZNukjD4fdVK82zcIHvUYnFcqYS05GElS89PfKl0eTlVMNcBVKluPXIW83HaqkRpHwOGIT+A17R7XXq1ZXCFxWWO26/Q7fRoXDXQ8fnnpVqD1cLTJSHgvvrxvI3SJtn2slrQ4YkfStSpEgRKXpJUSl/3fUqWuQFhm3Fil8D80WR4L0JJFp5t4JnwBkx33zTzWqcLJb/Mla+1DRAlJ90on25DDievNArjuRawFCmpnxpNHk51TB6wn1GHbtdVM4yWSa7qZv06bylVSlfNGXjnBhhp944f78BA6RBvXo64vWC+h72xnB1Ez74wANR31+8ZPjlV19Jx/YdfLsvLZYzlZiOJGIJDYV7JUkwkbb7hUbrbJEvjSYvpxryFE5y1Kkbr+18H23Z2Jd0MRbMexDShLoMNWHtBsNS/ZHquvrMWVjgFzocs7/5Vmo/9pg1EJazAqtMZzmtzPpslv6sVLGS/kwNuL/79Ounv7du1UqXZVssFn9YI2GxWCwWT85Yd5PFYrFYTj/WSFgsFovFE2skLBaLxeKJNRIWi8Vi8eSMNBLOmnhL7OFdDeImpUb9OmnzM9YE5zvW9wjLZP3mPTXr0GI504i5kSB8QiT5UrYRABAdASQi2cf9cBJaGvlNS/TwIhhxsFixFgrCYiBdmhr1yzsFpB3tuwV+CM53rO8RVOw6d+2ieT+ddWixnGnE3EhEki/dsWOHRlsdN/5dDb+QNUtWebl3L+k3oL/2Di0pg3qf9t57yZbO5L0FRHzOZVJahxbL2UTMjQTDcC/5Uob0o0aP1oB0r/QfoIH90AJ4bdBg04PbLfPM6CIYDI2XCyDcNkitY4NhX8qWUsKdk/RTcg6/xxPyes+evUl/HYd8OfoP0ZKSuo6m3OxHWtEQKW9uosmLxXK2EDMjwct4keRL//77b9m4aaPcW/meE8IrEHKh2sNVJbfrTVhU2ZDhRFITWU40KYAHmoixD1d/RGrVqS0PVH1Io4o6D28kOU5HStNJd+KkSdKzV6+AtgHbkcIMlXYwXpKkfHBdEMQPcLc1euIJ+ebbb/VvzoVQP9sj5Ze0SDeUxCpiRl26dZVefXrLXfdUDqjmucFl0q9/f80fEqBvjxljesqJrsBgNC9Dh8pHH3+kQRBJn7IjJ8qxyI9SN861CEdKr1M0+aaOXhk0UPcjLe4brg1wX4aSVF29evUJ99fCH0JrrUM0ebFYzjZiZiT8yJci8hMfnzmkeA7hxNEFdkB+ExlOJC+bNm0qEyZO1MaANCZPmWzO9bJKir4xdJjMmTNHGzQHGrFQcpy4D4YOH27y10y3jRzxpuolO7oNjtQmMqCkPWLYcJk9e3YgxLebcJKkRMEtXry4rPgt0Uj8ZdLdf2C/Odcv2ngSR4gerKO14ZVf9qXcpDtl4iSVBL3jtttNGYYFjBq+88svu1xmfPSxlCtbVr9zwLeOTnZ85njNHzKsyHt6+dIr33W3NKhXXypVrGjqZoRKdyIfumLFCnl71GiVF6Vuhptta/9Ym3RUaFJynaLJt1NHMHXyFE2L6LoDXx2srk0IllRF+nTg4EG6n/s+QKc7mGjr0GI524ipu4kHNpJ8qV/ckpSFL7xIG1U+CL28OmiwhnwGZDcvvviSEx5wLzlOtLSLFS2q29lGZNX77j0eshqpzRKmcUcPmR4oGhjoYfzw48m9TBq7cJKkV5YqrSMF/NtLli1VyU6MA+JDq82xlI3zg1d+2ZdFAAgz0XgyqVqmTBlNn4YP0PBA+hQNBY53g8byunXrAnKibGffS4uFDjmOMcoUn8nsm1GD6dFAogX9SLVHAup1SKT+r1w5+emn8KOJlFynaPJNHf1qjHE1Y6wzx8frvki95s6VWxdEQLCk6tq1f+h52Y/9uQ5IxaLKF0y0dWixnG3EzEj4kS/NaB6yI0cOa+MTCS9JStwV0z/+SPUFHq9fT6VHv/r6q6StiXjJceLqypgx0wkaDoj+OBoSSG3iEmqbJJXJh7RDRSaljOEkSc+/4AJtYDZu2qRutuuuu06yZMmsq2gQtEFDgwYHvPKLUdmwYb306ds3kJ8eL/UgZKqkTTqWPHhFsGXBAPXuzn9ipNjjWszhYORGbxxtZzfkd0OSy8uLlFynaPJNHbGvY3CBfRmtcr0B4+dOa8NfG8z+2U6oN0KQs18wKa1Di+W/TkxHEpHkS+k9M7H95/o/k745DnMDrHiKBK4PBF1GDB8uY0a/JRPGvavqdn4oUriw6Xnu1ofe4S+Tx/37EydkEerBPRYslVm/bj3d7iaSJCliS4xIftR5gjQ6uipVqpTMmfudNrxFL7kk8aAwMOFP/fXs0eOE/Lw6cJC6giLB8YwwaOwdMNAH/vU3AU2jSWhtxx3nQHp58pysqOcmJdcpmnx77YvUK6OJUIS8duae4PoFk9I6tFj+68TMSPiRL8WXi771K4MGyTrTowZcVD8vXqyT3TeUL6/fhePI0SMqTYlwD6xZuybknEEoLjENM2L4H340XY0Zk5vvThhPx1xBkWz58uUBGVAaBiaGQ01qRpIkZbSCUUCt7OKLi2jvs9glRc1oa442Tu5etBe4fIoWLaqrvqgnmDtvnk56O3MS4eD4C8yIxjmeDwsJfvvtt6Q9TiZdXDpT7n1aHowE8qGTp04JNJJcNzSirykXPmJwSq5TNPl26uiD6dM1z8D9xLVFBTEUFxcpokqIuP0AAzHr889C1mly6tBiOZuI6UginHypwz13V9bVTU893VoefewxdUP0699PmjRubB7ei5P28oZJ2vPMg9ugcSOVs3xn3DidZ/ADojbPtGunWtGsunnjzRFSq+ajkjlzotYyUpvoGjgyoI89XkfOL3S+Go9g/EiSlri8uLpB+AmMpPCFX3311SFdG8GQDrKYC39YqPXEeYYMHaJyoH6PJz/O8XUb1FeXD8bci3Llyul8S81atWTt2rV6vfKaERF1QZ20addWHn6oamAOwYuUXKdo8s2+1MfmzZv0GlBHfc391LhRI+2UhILvUafr1v0F3b9xkybqJnQ0t90kpw4tlrOJ06YnQa8PNwZDeRpSxz/vB3pzztuw0R7LWn8aWOcYRgm8QNa+3TMBHzU9fdJHizlSY0xeopUkjRanvMcSjuk7KNGewzmeBs/tW/eC/XGpuJcpY/SpO8ro9uWHIyXXCaLNN6Mdrp1fiVPnHiTtSGWKNi8Wy9nCOSU6xEiH9ziqPviQ+sdp3PsPGKDusdRURrNYLJb/KuecMh2+6j79+urySNxiNWvUkJrVa/jqeVosFsu5hpUvtVgsFosnMZ24tlgsFsvZhTUSFovFYvHEGgmLxWKxeGKNhMVisVg8+U8ZCdbq+3nTOBawLj65+gnAen132IdYkVrpxhreWThV1+pMgiCUzpvfXjj3Fj8tljOdmBsJQhyEky/lwVi6dKm8OWqkfoKlS8Mx49OZ+jkVfPX119LwicYB7YZooJHo27+/SlzGskFPrXRTA0Kup+a14v4KJ4F7OmCV4DMdOshbY95O+iY0y1es0DfYly1blvSNxXLmEteuXbtuPHD0+goVKpT0dfIh7hHxkAgDzUM76q23NJgdcZxo5NAimPb+e2b7dfr26utDh+j7CoRxiAQhoYFw3qlNnjx5NFJr4cKF9a3wcPCSXt9+/TQmELF+2L/wRRfJVWXKaKj0WBHLdJEo3bp1i8Y9Sg3mL1igdRHqWvGG+zdzvg0Z7sQPBEjs8kI3+Xnxz3LN/67RN7lHvTVaVq5cqWn6fSM81nBe6pNYZYSn8YJQNVeWvlIuu+wy+36O5Ywn5iOJcPKlhJdevvwXefmlnnJP5coqUNS1c2eZP39+IHyDXw4e8padDDeUx1DhEogE0U9LXnHFSQ8xx/Nxc+zoMQ1Z7f6eKK2hIrVGcjOQt3DbvdINlS8grVDnRKIUqdJg2I+69SJc/rzyEIyXRCpEqh/Sj0YCN5L7h23u84W7r4jvxMchuLwYK/Q2HD0VIK3gMtEpIv/8dOMnr+G2WyypQcxepuN4ZDT//HO9hlHOZUYOR2k8d2zXkM0EXKOnTQTTtm3ahhRtQX7zvfffl86dOgWMzIsvvSQPPfigCt0gPYk+BQHoflq0SB+yenXrqiAMjTnqYshM7jcPJaMjjJDzNjU+clwTsz77TB80zk+8piImT6RLvgnQRyPRv09fLc+ESZOkTevWGvJ87LhxUiB/fnn/ww+0oUAFrp0pBw1D2/bPyPr167UMiBg91bJlQCbzoQce1J9oahAC5G+Tf/JDYMFHa9bU39l306bNsmLFclWaQwuhwzPt5dprrtFj3bjTpR7IFwbt01mf6kiDkCP169XTURraGK8NeV3zSCPVqEFDVZ0b/NprKlEKRO2lvKQxfsIEmTh5kvaI6e22a9tWSpUspceS1uDXXtVjcHU9XqdOoN6pa6LdohBH3XAOGsaSJUsGyu9A/pESBQIu9unVS6PzhqsfN7j/kHPt2L7DSQH8SCON+YfCofvNeuqFPD3ZpKnGXXLXGxoolK9Vi5Yyd95cjVTL38926KijYe4DAgYWK3apTP9oupa1Yf0Gqm43Y+ZM/ZtAj/eb6049D3r1VQ35wv3hVf/ojfQzZUW5kRG237wGX+PgurFYUgWMxKpVqxIWLlxo7uOUM2Xq1IRPP5ulvy9ZsiTBNCwJpuHQv/n5wfQPE+6tcn+CeSgSfl68OME0OLoNFv7wQ8Jzzz+fYBoY/Zuf/M33MO399xJq1Ho0wTSk+jd5f7J5s4Q5381JMAYl4YUXuyd8N3eubjPGJKFz164J6zes1/OOHDUqwTywCaa3pn9Pe++9hPYdOyTs27fvhHTZxmf16tUJL738suaB3x+pWUOPYRtpkJZprDT/69atS3iyRfOERT//rOkBafKBP9evD2zneDPaMnnronUB7NeoyRMJmzZt0u3fzpmjeTPGW7e7cadLvmrWqqX7cxzHt3iqVcKKFSsSTEOU8HTbNgm/r1yp+/KzS7euCXv27NE8Uv/vjh+fsGv3Lj3WNECaJ/LG39Rji1YtE7Zu25rw18aNCc1btkhYuSoxLc7z1NOtE35Lug7k5/kunU84lmvs5NMN9cl5OT95pP4i1Y+b4HskFJTp6XZtEz7/4gtNz7lew4YPTzAdBK23WnVqJ5hRh+4/+5vZCVUefDDwN/mnrjjHjh07Eho2bpxgOi+a1vIVyxOqPlIt8Df1+lSbpxO2m/1g4ODBmsdw9U+alIGffvLqdY0tllNBTN1NJr2w8qX8RGMYzWtkLV8Z+Io8Vqe29gD9Qi/tsqQw1YTerlmjppiHWs9ND3jxksUq70l46+7duskF51+gAjPMZ3BuR4Ly3nvukQ6mN0qkV0CSElcB25z8uilSuIjccfvtuo00qj1cTd1npnHQXh7Kaii4hYoQiizq1WWukjJXXqnHExEVOVNjmLXHDV5SnpEoXPiiQLqU+cILLpB/9u3TkYT5UuuDURQjpxe6dtO8kkckSpEqpTfPeeZ9P1/uqnSXjhLo6TLqYzTHCCmcFCmjPcqH/KcT6RVZUOacQkGabolUesN+6ica6H2Hk5YFylK6VCn9nXsEzQ+uPzBiZD/n3Llz55Ly5ctrWgXyF9A6vrJ0af0b7RBz86mCnZtw9e/GT169rrHFciqImZHwI1/qgBYDfuTRI0fpsH7Em2+qS8cPCMDwsDjQ4O3evUd/Z4iecCxBmjZrJg8+XFUnzfHzhpK45GHEJeakFUkEiHkVtw8Zo3Ds6FHZ52MuBVnUPHnznJBvwlkzf0MjC15SnpFwy5fSMCHPCpQVdxguNDQQaj5WS8WWQvm0acQwBkOHDQ3IpHbq/LzWGyJEHOMlRUpDSmPm1mIgP7jM/OKnfhz8SOBGkpYFjJU25D7gWnBNosFv/fvJq9c1tlhOBTEdSUSSL2XOYOjwYYHlmzQKxYsXl4IFC8lenxPXNFxuaOBy5MiuDxENebMnn5Tx48bJyDdGyG9m9PDDjz+ElKBk5BFugjYYZE+dfINbqjQSqNUF5xujRUPobhxiDSOA55/rJJMnTJRePV+WWbNmac81GBrMggUL6DyIWyaVT2nTYw4nRcqx9I7RZXBw5EP9Ek39+JHAjSQte6rwU/9nSl4tFi9iZiT8yJciHo8LAaEfGmk+9LSQkmTIzbJTNB6cYTa9rGCZyM+/+EJWrV6lvzPhPvPTmboklB7tMx3ay/fz5+s2XBkYB1bSOBKUSFTSk+O8X38zW/r07XvCCCcc9Ha/+PLLQL5pNHPnyqX5xgAh1UkeQvVwWZY5f8GCQL4Z3UyZNlWXQbp74LFk46ZN0qJVy8A5ySs9VM4N6dLFyT97/9H80tAjU4qErFMfTKJSn7zjEk6KFHcdk9vBx6L+54VbIpW6jKZ+/EjgRpKWPRVEqn+HMyGvFks4YjqSiCRfii+1ZYsWKsGJy4LPy717qZQkDz8PRqkrSkrjpk3UrTFl6hS56qoySUcnQiMwaPBglcSsU6+uFL6osNxx+x06vK/16KO6AodtSFnSO7vphht1iI4EJQaJ7+vUfVwmTpwodR6r7bsnzwqcxUuWSG1zbK3atWW2MTJPNH5Cj8e1cmP5G6TNM+3ktSFDko44DrKoSGx2ePZZzRuuBxrX+++7L2mP2FOwQAFdafXc889L/UYNtT7xw5coUUK332nq7IMPP9S6xq1xV8VKWl+4lMhjx+ee1XkXXHKRpEgph/vYMWPHSLFLT1695hAskRpt/USSwPUjLZvaRKp/hzMhrxZLOE6LngQ9P0YMEEqOE7cQPVwa/uBt4ByfkclX0wt2Q08M1wfuJ3pubjiOskYrA0qD5iyHxVd8+MjhkMdzbh5sr3TD5S21oPGmzKGkWKkP6tm9lJK65xh68O7vnboDr+sS6bq5CXXuaOvH2Z+RXKhzOvdJakrLRiJc/bs5E/JqsYTCig75wG0kwj3oFovFcrYRU3fT2Qq9XeY3bO/OYrGca9iRhMVisVg8sSMJi8VisXhijYTFYrFYPLFGwmKxWCyenNFGgmWBvF3LMsJQRNqeHHi/IzgUhJtI288UWI7q5DPWeWbpKfVO/Z9JkB9eaDzT8nU6cerE+d25bu7fLZZwxNxI8NZtOGW6aODtVFTYeIktFF7bmYjnrW7iRwV/yE84IqnfJVcdL7heUhu3Mlxy8+zFn3/+KZ27dgnEFnJD+YjV5a5z3j4+FY3Ruaj4Rsw0d13zLLjDz7gVFrlePC/8dP9usYQj5kZi69atMu29adq7pxGfOm3aSREyUxt6TkuWLpGffv5ZG8dXh7wuC3/8Qf+mgTsd8NLXu+PH68+zGco3ctQomTf/e63vOXO/k7bt2skbI0boCCQ14S1wIq2i+HYmQ2QCdFVicS8u+GGhTJoyWeuaz8effCz1GjZQbRYgIm+nZ5/TmFfnMigxoohoiZ6YGwmGsF7KdG4wIF69SxqTcA1KpO2EU0YYplnTpnL/ffdrmO/GDRvp33fecUfSXpHTCadSFky48kRDpDyF2x7pWDfk1XFD+MVvGYnRRVgJ6ptIqIMHDpQVv644Ibgd6YQLsBhNWRy8FN9CEaksbhem5tXsH4pI5Qh1bCglQ4fkuMtuvvlmrWs+z3V8Vp40P7/86kt9o53gi6EUFpNLuGciOdfMgePc6YY7T6TnMtS19VJitEQmZtJWvGfhVqYjjr6jTPd027aqTEfk0HAKZ7iJhg0fLp998bmGWuD7w4ePu2cibfcLQ+9effvIunXr9O+yV18trVs9FTBmhDfv8GzHkOp3weBa6dW7txwxD2RweaIhXJ5oXMOpk+HiCaUMFwoexgmTJuq+PEzEZurYoYMGYQSU1bJnzyYzZ85UNTZUAslb7359Nc4S+1d9qKru6xfynSVLVkF/gvN7KeBBqGu8es1qqf5IdbNPyROUCsGtZkiZHcU3QFEOrQjCnD/RuLGq5IW7Xo5C4O+//yarVq9WTQ3igeG6457g7y6du6heSqRyUI958uSWT2bM0GPPL1RIujzfWYNeOkqGTZo9GVAyDKeqGC2Z44+HNHFHC0gu1AtlIC3nmahZo0Ygf7isBg4epNsAXfiOz7TX8Pc9er4kle++2zz7N+o2OpHde7yonTaO9asQCCj49ezdS70VXDvSRe2P/IRTd+RaOEqM0z/6SJUYuQ4Wf8RsJEGl9365l97chOsmzDQP612VKqnIEJFhN23eLJPN0Lj3yy/L1EmT5Y2hw2TOnDl689HreXvsGInPHC/T3/9APpn+kQb9c+YbIm33Cw/3mHfGJga4m/aeTJk4SYWRPp11fCiKH7eBGYl8NvNTDTn+5ZdfyvwFidFl3azfsEEbkO4vdNfyjBg2XGbPnh2I6OkXP3ki6Bs3/MyPP5HRpm6XLFsqq5LmVz6e8Yn+Tkhqtpe/vnwgGm4w9DAJ/f32qNFaPvI+fMQIWfvH2qQ9RCOyDh44SHp0764h3GkAGBnMmjFTRo54Uxs0Gny/bPhrg+zctVNdHpx/5aqVGm582uQpGiRx+BtvqBxorK6xw+a//5YE8486RXDKz/XCTdnpuU7y/tRpGjzy7bFj9b7mb9xYc76bo/uFK4fD0mXLZPiQoVpvGAMi29IgdjOGBmGpvr37mMayoRrrae+9p2lMGj9B8/X77ytN/jcnpRQeGk9nToJ06ABUq/pwTAMEBj8Tc+fODTwT73/wgblO+bUeqOtbb74lYDxvNM899xPXFlabZ53vicoMv6/8XYN2vjdlqhoygndWuLOC/o288Cfm3sYjgYtu8Ouv6X3Ieaj3zaY9+WTmDE0H6ADgWqO+n36qtUw19Y37kzqm49SgXn15xRjiUJ4NizcxdTdh+cMp04VTONu9Z4/2ounVEVmVY1CLc7SwI233C70X9JEfqFJF0yCtG8rfoA2Kg5f6nXOjO6CoVqJ4ccmXN6+OpEiL0OhoWESDnzx5qZPxAPlVhqMxwng8YvZ1RI5QY6NX/tNPx9UBEYSi3KRFA8R1Ik3+5hycK5wID6HfW5sOQoNGDTWy6fNduuiDSj2FU8CL1TV2yHlezkBaNJh+rhcKcdy/XJOixYqa/UsE/qZhY6RMPYYrhwNKhs41YRTEcXQIMBRuJUNGTDScjL4Jk+9WVfQD53TmJDCE+/bv00Y1ltCB8Xom6j7+uDzZpInWEWVlFPzvvwe1bspdXVbbBBp02gdGDLjHnACOfhUC6UgSYZp5J+qbtG+79TZZZEYv1Ct4qTtyLrcSI9st/omZkcAlEUmZjgfES+GMyW3ngjroMD5HotWPtD0aWAXTvGULDTNNWGpE6N14qd9xY7pBYwL3WdskNTc+lMedR79EypOXOhkPkF9lOFa97NixQxsnNxgMpFgdcuXMlfRb4igga9ZsgXMD5woX6JD0XjCN3Iumx57HNHj06nBncf5wCnixvMZAHt1p+blefq5dpHI4uOsx0VCFdh1RRi9VRT+45yRwXbV7uo0uksC1EyuClQOpJ+eZwENAmHeeZ1aXdez0nKmjxAUaGDxCwTPyxU1EO4HhcOAa+Rnx0KYwMiOEvVPn494dp1oxDslVd7SEJ6YjiUjKdOEUzhgC0qNyL9+jl8L8BkTa7hcenFGjR0tT0/NBwY48tGzeImlrIsEqaZzTUb9zg/4F7rRgNbf6desl7eEPP3nygoeMnql71RT1EkoZLtS+QPnwn4cipHKaachRT/MiLm2c+ui59uhE4HqgZ8v5wyngxeoaexGr6xWpHMmBsodSVUwOiHdRj//6NDJ+8HomgNVs1OvEd8fLuDFj5YWuXbWOAMNy800363PPyIN7AsMRLdyH5cqWk+FDh51Q322NQfSzUMGSfGJmJPwo04VTOHPU4+aZEQjDUj6LzPDZUaaLtN0vTOweOnxIGzLgZv/s88/0dwcv9bvgHg+KasuXL9ehNJBWl25d9R2NaPCTJy+iUYZjXxToJk+dEmiIUXf7evZsuaZc6OCOuFFwH+FLBs6Bwp/fl/OoI9L45JMZ2nCEU8CLdI05vlChgrJy5UrdRhpz583VbX6I1fVy6tGrHJGgAXcrGXKPeakqUs+Tp0yR33//XbdFgtE68we4udyCX5H4bu535p77XO/FUHg9ExgBFo+kjUurvyeef7Yp2/H7AzdVGvPMT5o8WQ2Ge0TiFxT8cDM59yHneW3I6/Lh9A/170i4lRi5d3A3InXr3AsWb2I6koikTBdO4YwGmEmphT8s1GEr4vG4AjA8frb7BTdMxQoVpFOXzqoY1qp1a22Y3Hip3wXDMLpSxUrSvFVL3Zeh9vmFztfGKBSbNm/SvFe8+67AJ3E1UeQ8hSMaZThU3ejJkVf2bdOurTz8UNWADzcYJo5RDuzW/QWdX2hsRjs0JH5lV/FTM4dBw88qpXAKeH6uceW77paPPvlY1QHJC42p37xEe73CEa4ckeB6u5UMadC9VBV5l4I6oJxeDBk6NHA/3VvlfnXzNn2iiXbM/ICx/HD6dMmcOV4NWCgwCP0HvKL5cz8TPOv33nOvvPb667qtYePGprOTVtNywDV10003mg7kBYF5jWhBwa/2Y7UC9yF1hOuUSW4/MKfiVmJcvmK5LFmyJKRb1nIipzxUOFac84EzqefG2U6DEco/HGm7XzBi+HyDFdgcOI+X+l0wPNDkKZL6WCQi5SkSPOz0lELVazCci54s+wa70UJBzw03FXXuZ/9IkFfqLVRZ3deYRit42WtK8xKr6wXhyhEJykEZnWvllIsyOfc2Szu3bd0mjRo2TFYP3A9rTO982BtvSKdnn9VRTDDkAVgEwDORPt3JyoFOnXrdT/TaWcSCkU8JoerIL9xXPB/UOaOQYsWKpTg/5wIxHUn4gRsdvzifUDe9s93rBoi03S80DjwQXg8252ElhJ9GhBsW11pKG5xIeYoEdeJVr8FwLvLst5ElT+TN7/6RIK9eZY10jVOal1hdLwhXjkhwjPtaOeVyyu2M2O6pXNnXNU0uzC89YEYgnDsczjMR6ro4dRp8Teh8smQal557wjq5BNdRNJB/jsdFyKjy+hArAC0nc8qNhMUSDTzYuXLlNCM6f66TswlGUZUqVDxh8UdqUPzyywMvu4UCFzKf5DBz1qfy+pChUrdOHXVdngngIrvvnnvVqFkiY5XpLBaLxeKJHUlYLBaLxRNrJCwWi8XiiTUSFovFYvHEGgmLxWKxeHLajQRrlwlLwc9TAe8hsNY6uaT0+FjBew58vIi03WKxWPxw2o0Ebz+eKhlFVnE906GDvDXm7aRvoiOlx8eSSJKksZYstVgs5ybnlLuJF5OaN2smD1R5IOmb8BASAZlJJ+xytMdHQ/C5LBaL5Uwg5kYCVwwumeSAy8lLCjJSuoSYiOSy4sUsYtU7ehduQkkick6iXyI3CV7HR8ob2/mEI/hcbkg7XNkiyTk6hKtfi8ViCUXMXqajIXtz1EiNJElslPz58qmyVJEiRTSI3UUXXajykUCsGIKZde3cRf9GZvKKK66QKVMTlaSKFy+u8oe8aRouXUCrov+AAfL3li36JqUjq8g8Ryj5SvJCeHLiAIWTZaRn375jx0DPnjDOwccTt2f4iDdk1mefaSPPq/7PdeioeaM+OT8SoKjxEWIBQZs2rZ8+KaQA5w8+F3Fywkm9hsq7W2bVibdDnslbOKlNi8Vi8SJmIwmiKm7cuEneHfuOym8SbXP2N98kbQ0PCmwI5yDdiPTgHbfdro0jjXC4dB05ys7Pdw4pqxgsXxkKL1nGiy66yKT7vEZHHTH8jZMCgdErRyYSpk6eovkmgunAVwdrdErg/Aj8IMOJXCZKcmgyBxPqXOGkXh38yqz6kdq0WCyWUMTMSCAPuGXL3/L7ypUaafHBBx5QWUM/0JDSMBLaGJcOerT0hunNh0sXOcqry1x1gqziSy/2UHESCJavDAUhhEPJMpKPbFmzqsIVPe/gYHAI8fz626+qJZw5Pl73R+Izd67cqi0AnL/89dfrNqJjItO4fceJ4i1AWYPPFU7q1cGPzCojMT9SmxaLxRKKmBmJK0qUkIYNGsrI0aOk6iPVpOVTreSX5cuTtoYnS5asJwTbSmzQ02jPO1y6yFEGyyq6o3vyM1K0yHCyjOFg/oBokjT+DrhyiE+/cdNG/Tv4/NFErsRF5CX16oDmRKS8MxrzI7VpsVgsoYiZkaCxuv666+TVgYMS3Tv3V1ENWhqpSLCe371fYk84QbJmyRI2XeQog2UV/U7iOgQfT7qhpEqD8ZLaRDaU0URKCSf16uAn7xiqWEttWiyWc4eYGYkvv/pKpSBpqGjYcZccPHhIG06UxVavWq29YxpwJlrdbpOdu3bKB9OnB7YjWbl//wEpWKhg2HRx38xfsEAlOAEXUJeuXWXxkiX6tx/CSZWmNR9i7eOycbtwgJj2RYsWDeQbfl68WP744w8NvRwtwecKJ/Xq4EdmNaVSmxaL5dwmZkaC3j4NZ72GDVTGsMsL3aT6I4+oeMz1119vGvJ1KjlYp+7jaiAK5M+fdKToktK4uLRS22xj+7Dhw6Rl8+YqcBIuXSZ6kd5EgpNtSH+yYqdUyZJJKUfGS5YRMEiXX3qZfv/hR9P1OwcaYkT+N2/epOVCUpHVTI0bNUpW3Pzgc4WTenXwK7OaEqlNi8VybhNzPQl6/DRIwXKOjBAiyYHidsJdlD1bdh01uPFKF/ieMkQrR+lHlhEYKWAUgvPkEC5v0eI+F3VGucBLktRPvTrEMp8Wi+Xc4JwWHXK/S2CxWCyWk4mZu+m/SEpkGS0Wi+VcwMqXWiwWi8WTc3okYbFYLJbwWCNhsVgsFk+skbBYLBaLJ9ZIWCwWi8UTayQsFovF4ok1EhaLxWLxJKZGYsvuIzJi1jbp/8EWWbc1MU7Q54v3SuuRG/T3WMK5Hu69Vn9aLBaLJXWImZFYufGg1Bu8TvLnTC9lL4mXNqP+kkVrDiRttVgsFst/kZgZCUYO95TLLlWuySG3l84m/eqdL5kzJsYaOnQkQT5csFu6vLtJlq47bjgYBQz6aKv0nLJZ1mw+KEeOJshPa/bL/oOJOs8/rz0gf+9KHCn8teOw/LElcXQSzLEEkRk/7ZHn3tkoXy7dq3+Dkz4fZ8QR6juLxWKxhCZmRqJU4Uzy6aK90n3iZtmw/bAUyZdBLj8/MeDcD6v2S9b4tFK1/HnywoTNsn7bITUqTw5bL9dfltkYlxzSYsQG+e2vg/LJD3t0BLJn/1HpNG6jjPk6UQp0zJc7ZOuekxv1BGMQXvlwiyz7819pclcemf/bfhn1+XbZte+otH/7L7nliqxyY/Es0mHMX7LBnDf4u70HTgwBbrFYLJbjxMxIFDgvvUxuf7H8r1hmaTtqg1TtvUY270pUSLvusixye6lsctXF8VIkfwb5c+th+eznvVLntpy6je9b3ZdXvlq2V24pmVVHGxiRa01aO/YekY1mFPH37sNSrEBGTc/Nzn+OyC9/HpCq1+eQ+Axp5a6y2dQo7TOjkX3/HjMjkEPGWGWU0S0LG0MVd9J32cx3FovFYglNzIzEwcMJgnMJl9PEZy6WhhVyy6DpW3VbnDmLE+Ual9KBQ8fksPmZNdPxBjpd2jTqTmL0wUiD0cSdZbJJloxpZd5v+yRH5jg5L8vJDTqupYNHEmTJHwfUOGzeeUTq35lL8udIJyOaX6QupXqD/5THB63TfAR/Z0cSFovF4k3MjMSUubtk8Mdb1f0D2SP00M/PnV4Wm4ad/fnwO6OI3Nni5MgxkVk/75FLC2ZSN9bQmdvkpivQU0g62EUmM3rAkJQtitsqu5S8KJPOgezef1TTqHNbLh3hFMyZXuc4gr/zmuewWCwWSwyNRJVrs8sffx+UWzr9Lg/1WiOd390k9e7IlbT1ZCqXza6uJJaxVu+7Vhvr20tllXRxaeTKwvGSL0d680mnjT8jANxDociaKa00qphH6g9ep3Mc/GTEkd2MPBYbo1Cj7x+66urvXYeldJH4k767JIQLy2KxWCyJxDxUOHMBhw4naEPtIeR2Ao67J6VzA7ivmOzGOKQ3hsaB/Bw7lnBC+qG+s1gsFsvJxGwk4YDrJ2dWfwYCaKhj0VhjGHJnS3eCgQDyE5x+qO8sFovFcjIxNxIWi8ViOXuwRsJisVgsnlgjYbFYLBZPrJGwWCwWiyfWSFgsFovFE2skLBaLxeKJNRIWi8Vi8cQaCYvFYrF4Yo2ExWKxWDyxRsJisVgsnlgjYbFYLBZPrJGwWCwWiyfWSFgsFovFA5H/A1qBwrACfJ4tAAAAAElFTkSuQmCC;imageBackground=#590707;" parent="1" vertex="1">
                    <mxGeometry x="-840" y="-1420" width="696.21" height="448.19" as="geometry"/>
                </mxCell>
                <mxCell id="34" value="Tenant" style="swimlane;childLayout=stackLayout;horizontal=1;startSize=30;horizontalStack=0;rounded=1;fontSize=14;fontStyle=0;strokeWidth=2;resizeParent=0;resizeLast=1;shadow=0;dashed=0;align=center;" parent="1" vertex="1">
                    <mxGeometry x="-840" y="-950" width="160" height="190" as="geometry"/>
                </mxCell>
                <mxCell id="35" value="&#10;FirstName&#10;MiddleName&#10;LastName &#10;Suffix&#10;MobileContact&#10;Email&#10;Username&#10;Password&#10;" style="align=left;strokeColor=none;fillColor=none;spacingLeft=4;fontSize=12;verticalAlign=top;resizable=0;rotatable=0;part=1;fontStyle=0" parent="34" vertex="1">
                    <mxGeometry y="30" width="160" height="160" as="geometry"/>
                </mxCell>
                <mxCell id="41" value="Property Details" style="swimlane;childLayout=stackLayout;horizontal=1;startSize=30;horizontalStack=0;rounded=1;fontSize=14;fontStyle=0;strokeWidth=2;resizeParent=0;resizeLast=1;shadow=0;dashed=0;align=center;" parent="1" vertex="1">
                    <mxGeometry x="-840" y="-720.91" width="160" height="190.91" as="geometry"/>
                </mxCell>
                <mxCell id="42" value="PropertyDetailID&#10;TenantID&#10;Photo&#10;NumberofBeds&#10;NumberofRooms&#10;NumberofPerson&#10;ReserveFee&#10;DetailType&#10;Rate&#10;Status&#10;" style="align=left;spacingLeft=4;fontSize=12;verticalAlign=top;resizable=0;rotatable=0;part=1;" parent="41" vertex="1">
                    <mxGeometry y="30" width="160" height="160.91" as="geometry"/>
                </mxCell>
                <mxCell id="44" value="Rent Property" style="swimlane;childLayout=stackLayout;horizontal=1;startSize=30;horizontalStack=0;rounded=1;fontSize=14;fontStyle=0;strokeWidth=2;resizeParent=0;resizeLast=1;shadow=0;dashed=0;align=center;" parent="1" vertex="1">
                    <mxGeometry x="-630" y="-950" width="160" height="130" as="geometry"/>
                </mxCell>
                <mxCell id="45" value="RentID&#10;PropertyDetailID&#10;DateReserve&#10;DateStartRent&#10;DateEndrRent&#10;Status&#10;" style="align=left;strokeColor=none;fillColor=none;spacingLeft=4;fontSize=12;verticalAlign=top;resizable=0;rotatable=0;part=1;" parent="44" vertex="1">
                    <mxGeometry y="30" width="160" height="100" as="geometry"/>
                </mxCell>
                <mxCell id="49" value="Requirements" style="swimlane;childLayout=stackLayout;horizontal=1;startSize=30;horizontalStack=0;rounded=1;fontSize=14;fontStyle=0;strokeWidth=2;resizeParent=0;resizeLast=1;shadow=0;dashed=0;align=center;" parent="1" vertex="1">
                    <mxGeometry x="-610" y="-780" width="160" height="120" as="geometry"/>
                </mxCell>
                <mxCell id="50" value="Req_ID&#10;RentID&#10;Req_File&#10;DocuName" style="align=left;strokeColor=none;fillColor=none;spacingLeft=4;fontSize=12;verticalAlign=top;resizable=0;rotatable=0;part=1;" parent="49" vertex="1">
                    <mxGeometry y="30" width="160" height="90" as="geometry"/>
                </mxCell>
                <mxCell id="52" value="Property" style="swimlane;childLayout=stackLayout;horizontal=1;startSize=30;horizontalStack=0;rounded=1;fontSize=14;fontStyle=0;strokeWidth=2;resizeParent=0;resizeLast=1;shadow=0;dashed=0;align=center;" parent="1" vertex="1">
                    <mxGeometry x="-600" y="-610" width="160" height="170" as="geometry"/>
                </mxCell>
                <mxCell id="53" value="PropertyID&#10;LandlordID&#10;Name&#10;Type&#10;Location&#10;Photo&#10;Desc&#10;RoomsNo&#10;" style="align=left;strokeColor=none;fillColor=none;spacingLeft=4;fontSize=12;verticalAlign=top;resizable=0;rotatable=0;part=1;" parent="52" vertex="1">
                    <mxGeometry y="30" width="160" height="140" as="geometry"/>
                </mxCell>
                <mxCell id="54" value="Landlord Requirements" style="swimlane;childLayout=stackLayout;horizontal=1;startSize=30;horizontalStack=0;rounded=1;fontSize=14;fontStyle=0;strokeWidth=2;resizeParent=0;resizeLast=1;shadow=0;dashed=0;align=center;" vertex="1" parent="1">
                    <mxGeometry x="-380" y="-950" width="160" height="120" as="geometry"/>
                </mxCell>
                <mxCell id="55" value="Req_ID&#10;LandlordID&#10;&#10; " style="align=left;strokeColor=none;fillColor=none;spacingLeft=4;fontSize=12;verticalAlign=top;resizable=0;rotatable=0;part=1;" vertex="1" parent="54">
                    <mxGeometry y="30" width="160" height="90" as="geometry"/>
                </mxCell>
                <mxCell id="58" value="Landlord" style="swimlane;childLayout=stackLayout;horizontal=1;startSize=30;horizontalStack=0;rounded=1;fontSize=14;fontStyle=0;strokeWidth=2;resizeParent=0;resizeLast=1;shadow=0;dashed=0;align=center;" vertex="1" parent="1">
                    <mxGeometry x="-330" y="-760" width="160" height="170" as="geometry"/>
                </mxCell>
                <mxCell id="59" value="LandlordID&#10;LandlordFname&#10;LandlordMname&#10;LandlordLname&#10;LandlordSuffix&#10;Mobile&#10;Email&#10;Username&#10;Password " style="align=left;strokeColor=none;fillColor=none;spacingLeft=4;fontSize=12;verticalAlign=top;resizable=0;rotatable=0;part=1;" vertex="1" parent="58">
                    <mxGeometry y="30" width="160" height="140" as="geometry"/>
                </mxCell>
                <mxCell id="60" value="Bill" style="swimlane;childLayout=stackLayout;horizontal=1;startSize=30;horizontalStack=0;rounded=1;fontSize=14;fontStyle=0;strokeWidth=2;resizeParent=0;resizeLast=1;shadow=0;dashed=0;align=center;" vertex="1" parent="1">
                    <mxGeometry x="-160" y="-965" width="160" height="120" as="geometry"/>
                </mxCell>
                <mxCell id="61" value="+Attribute1&#10;+Attribute2&#10;+Attribute3" style="align=left;strokeColor=none;fillColor=none;spacingLeft=4;fontSize=12;verticalAlign=top;resizable=0;rotatable=0;part=1;" vertex="1" parent="60">
                    <mxGeometry y="30" width="160" height="90" as="geometry"/>
                </mxCell>
                <mxCell id="62" value="Payment" style="swimlane;childLayout=stackLayout;horizontal=1;startSize=30;horizontalStack=0;rounded=1;fontSize=14;fontStyle=0;strokeWidth=2;resizeParent=0;resizeLast=1;shadow=0;dashed=0;align=center;" vertex="1" parent="1">
                    <mxGeometry x="-150" y="-780" width="160" height="120" as="geometry"/>
                </mxCell>
                <mxCell id="63" value="+Attribute1&#10;+Attribute2&#10;+Attribute3" style="align=left;strokeColor=none;fillColor=none;spacingLeft=4;fontSize=12;verticalAlign=top;resizable=0;rotatable=0;part=1;" vertex="1" parent="62">
                    <mxGeometry y="30" width="160" height="90" as="geometry"/>
                </mxCell>
                <mxCell id="64" value="Subscription" style="swimlane;childLayout=stackLayout;horizontal=1;startSize=30;horizontalStack=0;rounded=1;fontSize=14;fontStyle=0;strokeWidth=2;resizeParent=0;resizeLast=1;shadow=0;dashed=0;align=center;" vertex="1" parent="1">
                    <mxGeometry x="-160" y="-620" width="160" height="120" as="geometry"/>
                </mxCell>
                <mxCell id="65" value="+Attribute1&#10;+Attribute2&#10;+Attribute3" style="align=left;strokeColor=none;fillColor=none;spacingLeft=4;fontSize=12;verticalAlign=top;resizable=0;rotatable=0;part=1;" vertex="1" parent="64">
                    <mxGeometry y="30" width="160" height="90" as="geometry"/>
                </mxCell>
            </root>
        </mxGraphModel>
    </diagram>
</mxfile>